<svg width="24" height="24" viewBox="0 0 24 24" fill="none" xmlns="http://www.w3.org/2000/svg">
<path d="M15.0076 19.1664C15.0076 17.0493 15.0076 14.9735 15.0076 12.8577C15.6823 12.8577 16.3456 12.8577 17.0482 12.8577C17.1339 12.0131 17.2158 11.2056 17.3022 10.3493C16.5639 10.3493 15.8528 10.3493 15.1153 10.3493C15.1153 9.92902 15.0903 9.55285 15.1221 9.18013C15.1524 8.82464 15.445 8.7144 15.7967 8.71165C16.2735 8.7082 16.7511 8.71096 17.2484 8.71096C17.2484 7.98205 17.2484 7.28759 17.2484 6.51803C16.2447 6.55524 15.2411 6.51528 14.2663 6.64825C13.0065 6.81979 12.2454 7.8043 12.2037 9.11468C12.1916 9.50394 12.2014 9.89457 12.2014 10.3231C11.7443 10.3231 11.3092 10.3231 10.8271 10.3231C10.8271 10.7702 10.8271 11.1802 10.8271 11.5894C10.8271 12 10.8271 12.4106 10.8271 12.8509C11.2956 12.8509 11.7216 12.8509 12.1779 12.8509C12.1779 14.9632 12.1779 17.0445 12.1779 19.1664C12.0551 19.1664 11.9331 19.1664 11.8103 19.1664C9.96602 19.1664 8.121 19.1678 6.27672 19.1658C4.88954 19.1644 4.0019 18.359 4.00114 17.0989C3.99962 13.4234 3.99962 9.74783 4.00114 6.07228C4.0019 4.80944 4.88651 4.00199 6.27142 4.0013C10.3147 3.99924 14.3573 3.99993 18.4006 4.0013C19.7938 4.00199 20.6814 4.80255 20.6822 6.06195C20.6845 9.7492 20.6845 13.4365 20.6822 17.123C20.6814 18.3576 19.7855 19.163 18.4187 19.1658C17.2954 19.1685 16.172 19.1664 15.0076 19.1664Z" fill="white"/>
</svg>
