<svg width="24" height="24" viewBox="0 0 24 24" fill="none" xmlns="http://www.w3.org/2000/svg">
<path d="M19.6821 11.5817C19.6821 12.8255 19.6847 14.0692 19.6814 15.3123C19.6755 17.5315 17.8826 19.1613 15.4408 19.1643C12.7045 19.1679 9.96885 19.1684 7.23255 19.1643C4.80963 19.1607 3.00823 17.5285 3.00367 15.3313C2.99846 12.8343 2.99911 10.3374 3.00367 7.83992C3.00758 5.6409 4.80637 4.00689 7.22799 4.00334C9.97471 3.99919 12.7214 3.9986 15.4688 4.00334C17.8709 4.00748 19.6723 5.64209 19.6814 7.82097C19.6866 9.07476 19.6821 10.328 19.6821 11.5817ZM11.3272 17.6434C12.6947 17.6434 14.0629 17.6476 15.4304 17.6422C16.9809 17.6363 18.0025 16.713 18.0064 15.3052C18.0129 12.8284 18.0123 10.3516 18.0064 7.87486C18.0031 6.44873 16.9849 5.52778 15.4115 5.52541C12.698 5.52127 9.98384 5.52127 7.27034 5.52541C5.69827 5.52778 4.68063 6.45051 4.67802 7.87664C4.67281 10.3434 4.67346 12.8107 4.67802 15.2774C4.68063 16.7213 5.69567 17.6381 7.28923 17.6422C8.63523 17.6464 9.98123 17.6434 11.3272 17.6434Z" fill="white"/>
<path d="M7.17196 11.5894C7.16936 9.46505 9.00724 7.79254 11.3442 7.79313C13.6804 7.79372 15.5157 9.46683 15.5118 11.593C15.5079 13.7032 13.6765 15.3698 11.3565 15.3745C9.01831 15.3798 7.17522 13.7121 7.17196 11.5894ZM13.8362 11.6256C13.8596 10.3297 12.8146 9.34127 11.3956 9.31699C9.97016 9.29211 8.87889 10.2391 8.84762 11.5279C8.81635 12.8355 9.87178 13.8341 11.3044 13.8518C12.7286 13.8696 13.8127 12.9155 13.8362 11.6256Z" fill="white"/>
<path d="M16.349 7.78721C16.3529 8.19231 15.9744 8.54588 15.5268 8.55476C15.0707 8.56365 14.6681 8.2006 14.6746 7.78484C14.6805 7.37856 15.0675 7.0315 15.5131 7.03269C15.96 7.03328 16.3444 7.38093 16.349 7.78721Z" fill="white"/>
</svg>
