<svg width="24" height="24" viewBox="0 0 24 24" fill="none" xmlns="http://www.w3.org/2000/svg">
<path d="M11.2259 14.5077C11.036 15.187 10.8612 15.9285 10.6165 16.6463C10.423 17.2137 10.1577 17.7591 9.89489 18.3004C9.78879 18.5184 9.62483 18.7192 9.45061 18.8921C8.99368 19.3452 8.53132 19.2303 8.40353 18.609C8.31853 18.1986 8.30708 17.7662 8.31973 17.3457C8.36314 15.8829 8.83514 14.4971 9.15041 13.0834C9.28363 12.4864 9.44338 11.8953 9.57359 11.2978C9.60313 11.1627 9.58203 11.0052 9.54224 10.869C9.2764 9.9504 9.26555 9.05374 9.77613 8.20743C10.0884 7.68981 10.5321 7.33683 11.171 7.29656C12.0047 7.24385 12.6672 7.78516 12.6618 8.60778C12.6576 9.15028 12.5238 9.69751 12.4014 10.2317C12.285 10.7405 12.0952 11.232 11.9613 11.7372C11.7063 12.702 12.4424 13.4038 13.4286 13.1509C13.9422 13.0188 14.3153 12.699 14.6089 12.2838C15.2195 11.4215 15.4462 10.4378 15.5113 9.40968C15.5487 8.82514 15.5348 8.24296 15.2973 7.69099C14.85 6.65042 13.9994 6.13576 12.9047 5.99066C11.3863 5.7893 10.045 6.13694 9.04432 7.354C8.36856 8.17604 8.08223 9.13547 8.23534 10.1778C8.28959 10.5492 8.50359 10.9134 8.70734 11.2439C8.85986 11.4914 8.93641 11.7182 8.86347 11.9936C8.80801 12.2033 8.76039 12.4159 8.69348 12.6226C8.56749 13.0099 8.27271 13.1467 7.89234 12.9845C7.07553 12.6368 6.5553 12.0108 6.28765 11.1983C5.67037 9.32321 6.05798 7.61696 7.34076 6.13694C8.83695 4.41056 10.8274 3.85681 13.0579 4.03034C14.4877 4.14168 15.7404 4.68773 16.7356 5.72534C17.7357 6.76768 18.1993 8.0108 18.1263 9.44818C18.0461 11.0383 17.6404 12.5154 16.5162 13.7117C15.4583 14.8376 14.1387 15.3522 12.581 15.0603C12.1151 14.9744 11.6846 14.7008 11.2259 14.5077Z" fill="white"/>
</svg>
