<svg width="24" height="24" viewBox="0 0 24 24" fill="none" xmlns="http://www.w3.org/2000/svg">
<path d="M12.8822 16.3067C12.2426 16.9381 11.6135 17.5743 10.9648 18.1882C10.7938 18.3503 10.5602 18.4408 10.3553 18.5644C10.3279 18.5381 10.3005 18.5124 10.2737 18.4861C10.29 18.1666 10.3024 17.8465 10.3233 17.527C10.3853 16.595 10.4395 15.6624 10.5256 14.733C10.5406 14.5696 10.6633 14.3852 10.788 14.2691C13.0153 12.1869 15.2505 10.1142 17.4824 8.03677C17.5947 7.93209 17.6899 7.80782 17.8211 7.66127C17.4916 7.50053 17.2919 7.64641 17.0935 7.77473C15.4163 8.85937 13.7404 9.94604 12.0645 11.032C10.9133 11.7776 9.75946 12.5199 8.61348 13.2743C8.43923 13.3891 8.2924 13.4026 8.10118 13.3398C6.98392 12.9717 5.86144 12.6212 4.74482 12.2517C4.43288 12.1484 4.01064 12.091 4.0002 11.6628C3.98976 11.2367 4.39176 11.1016 4.71154 10.9726C6.37047 10.304 8.03331 9.64685 9.69616 8.98769C12.9298 7.70584 16.1642 6.42467 19.3991 5.14485C19.5101 5.10095 19.623 5.05705 19.7385 5.02936C20.2501 4.90644 20.6332 5.17592 20.6782 5.71688C20.6972 5.94786 20.6665 6.18964 20.6195 6.41859C19.7953 10.4431 18.9651 14.4663 18.1344 18.4894C18.105 18.6313 18.0613 18.7731 18.0045 18.9055C17.8159 19.3445 17.485 19.5072 17.0497 19.3505C16.8592 19.2823 16.6778 19.1662 16.5126 19.0419C15.3601 18.1761 14.2135 17.3021 13.0643 16.4316C13.0101 16.3924 12.9553 16.3573 12.8822 16.3067Z" fill="white"/>
</svg>
