<svg width="24" height="24" viewBox="0 0 24 24" fill="none" xmlns="http://www.w3.org/2000/svg">
<path d="M10.6086 9.60184C10.6086 10.5028 10.6086 11.3587 10.6086 12.2009C10.2497 12.2009 9.89942 12.1529 9.56748 12.2092C8.34812 12.4167 7.56911 13.464 7.72099 14.643C7.86675 15.7739 8.90666 16.6067 10.0978 16.5462C11.2811 16.4863 12.2113 15.5303 12.2138 14.3478C12.2205 11.0297 12.2187 7.71164 12.2205 4.39357C12.2205 4.26791 12.2205 4.14166 12.2205 4C13.1269 4 14.0003 4 14.9097 4C14.9563 4.97325 15.2919 5.841 16.0188 6.54042C16.7385 7.23331 17.6118 7.58658 18.6505 7.61503C18.6505 8.47567 18.6505 9.32741 18.6505 10.2135C17.2982 10.2218 16.0881 9.82234 14.9183 9.06128C14.9183 9.21183 14.9183 9.312 14.9183 9.41277C14.9183 11.0522 14.9293 12.6911 14.9152 14.3306C14.895 16.6908 13.2947 18.5775 10.9222 19.0665C7.75712 19.7185 4.72742 17.1099 5.01955 13.9839C5.2633 11.3729 7.47418 9.47263 10.1701 9.55976C10.311 9.56391 10.4518 9.58584 10.6086 9.60184Z" fill="white"/>
</svg>
