<svg width="24" height="24" viewBox="0 0 24 24" fill="none" xmlns="http://www.w3.org/2000/svg">
<path d="M13.9734 9.07806C13.9734 9.80854 13.955 10.539 13.9854 11.2679C13.9942 11.4692 14.1021 11.7484 14.2533 11.836C14.3756 11.9074 14.6811 11.8036 14.8163 11.6786C15.2257 11.2971 15.6695 10.9164 15.9598 10.4465C16.7011 9.2485 17.3944 8.01724 18.0478 6.76813C18.3213 6.24543 18.6611 5.98976 19.2329 6.00031C19.9118 6.0133 20.5915 5.99544 21.2713 6.006C21.9854 6.01736 22.2117 6.30955 21.955 6.97996C21.7343 7.55542 21.4624 8.12032 21.1417 8.64464C20.4812 9.7225 19.7783 10.7744 19.0818 11.8287C18.6611 12.465 18.6819 12.6209 19.2001 13.1915C20.1013 14.1849 20.9954 15.1865 21.863 16.21C22.0997 16.49 22.2709 16.8455 22.4044 17.1929C22.5955 17.6904 22.3956 18.0694 21.8854 18.0962C20.9834 18.1425 20.0734 18.1555 19.1753 18.08C18.8634 18.054 18.5372 17.7659 18.2861 17.5248C17.5799 16.8479 16.9322 16.1077 16.2157 15.4421C15.8486 15.1012 15.4112 14.8115 14.9594 14.5988C14.3101 14.2929 13.9958 14.5152 13.9758 15.2303C13.9574 15.865 13.9734 16.5013 13.971 17.1368C13.9686 17.7894 13.7807 17.9996 13.1337 18.0832C11.7239 18.265 10.4092 17.9412 9.15772 17.3024C8.15971 16.7927 7.26567 16.1272 6.53476 15.2741C4.60114 13.0178 3.12013 10.4895 2.2029 7.63658C2.10453 7.33059 2.04296 7.00837 2.00617 6.68859C1.96379 6.32497 2.14052 6.05551 2.50917 6.04577C3.42641 6.02223 4.34444 6.01655 5.26087 6.04901C5.6991 6.06443 5.84144 6.46295 5.99418 6.81601C6.46519 7.90199 6.88902 9.01475 7.4368 10.0593C7.85904 10.8629 8.42361 11.5941 8.96259 12.3287C9.16891 12.6103 9.4608 12.9504 9.86064 12.7913C10.2413 12.6395 10.1253 12.211 10.1301 11.8912C10.1477 10.8913 10.1397 9.89051 10.1357 8.88976C10.1325 8.20798 9.947 7.596 9.51757 7.04895C9.37203 6.8639 9.26567 6.54655 9.31445 6.32984C9.38483 6.01411 9.72469 6.00275 10.015 6.00356C11.0674 6.006 12.1197 6.00194 13.1721 6.00518C13.7671 6.00762 13.9422 6.16102 13.959 6.76732C13.9806 7.53756 13.9638 8.30862 13.9638 9.07887C13.9678 9.07806 13.9702 9.07806 13.9734 9.07806Z" fill="white"/>
</svg>
