<svg width="24" height="24" viewBox="0 0 24 24" fill="none" xmlns="http://www.w3.org/2000/svg">
<path d="M4.56094 19.5608C4.64608 19.2956 4.71443 19.0731 4.78838 18.8532C5.00527 18.207 5.21718 17.5584 5.44711 16.9166C5.52106 16.7103 5.49061 16.5594 5.37378 16.3748C3.70708 13.7436 3.54116 11.0124 4.96239 8.24264C6.49299 5.25916 9.90593 3.56426 13.1418 4.09733C16.6088 4.66893 19.2598 7.26844 19.816 10.6421C20.5462 15.0689 17.549 19.1906 13.1045 19.8386C11.2482 20.1088 9.50013 19.7479 7.88999 18.7755C7.68678 18.6531 7.51837 18.6208 7.28905 18.6991C6.49734 18.97 5.69693 19.2173 4.89962 19.472C4.80454 19.5024 4.70698 19.5229 4.56094 19.5608ZM7.34871 9.83317C7.37108 10.0177 7.38289 10.2035 7.41707 10.3855C7.57927 11.2448 8.05902 11.9431 8.55865 12.6334C9.92644 14.5215 11.6832 15.8399 13.9938 16.3363C14.3101 16.404 14.6643 16.4351 14.9744 16.3655C16.2564 16.0778 16.7548 15.4199 16.7579 14.3718C16.7585 14.2525 16.6746 14.0729 16.5777 14.0226C15.9718 13.7095 15.3528 13.4224 14.7351 13.1323C14.5077 13.0254 14.3101 13.0838 14.1572 13.2814C13.9994 13.4864 13.8508 13.6983 13.6905 13.9014C13.3829 14.291 13.2443 14.3258 12.7875 14.1313C11.5136 13.5889 10.5634 12.6831 9.84379 11.5144C9.71267 11.3007 9.73504 11.1323 9.89537 10.9565C10.0625 10.7732 10.2483 10.598 10.3757 10.3892C10.4634 10.2457 10.5429 10.0214 10.492 9.88287C10.2496 9.22429 9.96559 8.58001 9.68408 7.93634C9.64244 7.84128 9.54426 7.71951 9.45601 7.70459C8.97813 7.62258 8.50397 7.60394 8.11992 7.98915C7.61282 8.49799 7.36301 9.11308 7.34871 9.83317Z" fill="white"/>
</svg>
