<svg width="24" height="24" viewBox="0 0 24 24" fill="none" xmlns="http://www.w3.org/2000/svg">
<path d="M12.6732 19.1672C10.3599 19.0367 8.07388 18.9104 5.7887 18.7775C3.81732 18.6633 2.43958 17.6524 2.19948 15.2497C1.93784 12.6326 1.90555 10.0147 2.27234 7.40413C2.52735 5.58847 3.68567 4.50495 5.52789 4.3264C10.0453 3.88858 14.566 3.9163 19.0875 4.26036C19.5122 4.29297 19.9394 4.3533 20.3551 4.44461C21.8007 4.76176 22.7305 5.81512 22.9731 7.39924C23.2853 9.43747 23.2679 11.4888 23.1743 13.5392C23.142 14.2436 23.0692 14.948 22.9731 15.6468C22.7181 17.5064 21.6103 18.6046 19.7167 18.7522C17.3661 18.9348 15.0089 19.0335 12.6732 19.1672ZM12.6144 5.55178C10.287 5.68549 7.98612 5.79556 5.68852 5.95943C4.57739 6.03851 4.0773 6.5334 3.92247 7.60877C3.55899 10.1248 3.57969 12.6497 3.86948 15.1682C4.03507 16.6047 4.44326 16.9512 5.9129 17.1526C6.04951 17.1714 6.18612 17.1942 6.32274 17.2048C9.753 17.4763 13.1874 17.5162 16.6243 17.3564C17.6162 17.3099 18.6064 17.2268 19.5942 17.1273C20.6664 17.0197 21.1648 16.5428 21.3155 15.4804C21.4149 14.7817 21.4919 14.0773 21.5209 13.3737C21.6003 11.4586 21.6318 9.54265 21.3238 7.64057C21.1441 6.53095 20.6639 6.04585 19.5329 5.96514C17.2237 5.79963 14.9096 5.68549 12.6144 5.55178Z" fill="white"/>
<path d="M10.547 8.26182C12.4828 9.3641 14.3639 10.4354 16.3088 11.5426C14.3747 12.6448 12.4886 13.7194 10.547 14.8258C10.547 12.6253 10.547 10.4827 10.547 8.26182Z" fill="white"/>
</svg>
