<svg width="384" height="82" viewBox="0 0 384 82" fill="none" xmlns="http://www.w3.org/2000/svg">
<rect x="60" width="324" height="82" rx="10" fill="#041366"/>
<path d="M170.939 58.8406C169.903 58.8406 168.948 58.5198 168.072 57.8782C167.276 57.2366 166.877 56.3144 166.877 55.1114V39.9541C166.877 36.4254 166.081 33.819 164.488 32.1349C162.975 30.4507 160.945 29.6087 158.396 29.6087C155.131 29.6087 152.742 30.6913 151.229 32.8566C149.796 34.9418 149.079 37.2675 149.079 39.8338V55.1114C149.079 56.3144 148.641 57.2366 147.765 57.8782C146.969 58.5198 146.053 58.8406 145.018 58.8406C143.983 58.8406 143.027 58.5198 142.151 57.8782C141.355 57.2366 140.957 56.3144 140.957 55.1114V26.8418C140.957 25.4785 141.355 24.476 142.151 23.8344C143.027 23.1127 143.983 22.7518 145.018 22.7518C146.053 22.7518 146.969 23.1127 147.765 23.8344C148.641 24.476 149.079 25.4785 149.079 26.8418C150.433 25.4785 152.185 24.3557 154.335 23.4736C156.485 22.5914 158.516 22.1503 160.427 22.1503C164.887 22.1503 168.43 23.5939 171.058 26.481C173.686 29.3681 175 33.6185 175 39.2323V55.1114C175 56.3144 174.562 57.2366 173.686 57.8782C172.81 58.5198 171.894 58.8406 170.939 58.8406Z" fill="white"/>
<path fill-rule="evenodd" clip-rule="evenodd" d="M116.133 22.6226C116.133 18.8326 120.495 16.6704 123.444 19.0514L123.446 19.0526C129.664 24.1042 133.655 31.8279 133.655 40.4884C133.655 56.3222 120.299 69.0865 104.327 67.9268C91.2188 66.9981 80.5171 56.564 79.1521 43.4308L79.1212 43.1194C78.2292 33.4506 82.3319 24.6904 89.1326 19.1271C92.0882 16.7074 96.5321 18.7719 96.5322 22.6226C96.5322 24.0404 95.8628 25.3338 94.7952 26.203L94.3714 26.562C90.0448 30.334 87.4809 36.094 88.131 42.4343C89.002 50.9555 95.7857 57.8568 104.235 58.8049L104.751 58.8562C115.559 59.7776 124.64 51.1784 124.64 40.4884C124.64 34.7285 121.992 29.5715 117.858 26.1914C116.788 25.3203 116.133 24.0255 116.133 22.6226ZM106.908 67.4267C106.668 67.4317 106.428 67.4336 106.187 67.4322C106.422 67.4335 106.655 67.4321 106.889 67.4273L106.908 67.4267Z" fill="#2044F7"/>
<path fill-rule="evenodd" clip-rule="evenodd" d="M106.32 7C108.817 7.0001 110.828 9.03931 110.828 11.539V29.8328C110.828 32.3335 108.804 34.3717 106.32 34.3718C103.838 34.3717 101.813 32.3469 101.813 29.8328V11.539C101.813 9.03927 103.824 7.00003 106.32 7ZM102.377 29.9354C102.378 29.9558 102.379 29.9761 102.38 29.9964C102.378 29.9422 102.376 29.8876 102.376 29.8328L102.377 29.9354ZM110.261 29.969C110.262 29.9576 110.263 29.9461 110.263 29.9348L110.264 29.8328C110.264 29.8784 110.263 29.9237 110.261 29.969Z" fill="#2044F7"/>
<path d="M195.288 36H193.848V30.672H187.992V36H186.552V24.576H187.992V29.408H193.848V24.576H195.288V36ZM205.675 31.696C205.675 32.4107 205.579 33.0453 205.387 33.6C205.206 34.144 204.939 34.608 204.587 34.992C204.246 35.376 203.825 35.6693 203.323 35.872C202.833 36.064 202.283 36.16 201.675 36.16C201.11 36.16 200.587 36.064 200.107 35.872C199.627 35.6693 199.211 35.376 198.859 34.992C198.507 34.608 198.23 34.144 198.027 33.6C197.835 33.0453 197.739 32.4107 197.739 31.696C197.739 30.7467 197.899 29.9467 198.219 29.296C198.539 28.6347 198.998 28.1333 199.595 27.792C200.193 27.44 200.902 27.264 201.723 27.264C202.502 27.264 203.185 27.44 203.771 27.792C204.369 28.1333 204.833 28.6347 205.163 29.296C205.505 29.9467 205.675 30.7467 205.675 31.696ZM199.195 31.696C199.195 32.368 199.281 32.9547 199.451 33.456C199.633 33.9467 199.91 34.3253 200.283 34.592C200.657 34.8587 201.131 34.992 201.707 34.992C202.283 34.992 202.758 34.8587 203.131 34.592C203.505 34.3253 203.777 33.9467 203.947 33.456C204.129 32.9547 204.219 32.368 204.219 31.696C204.219 31.0133 204.129 30.432 203.947 29.952C203.766 29.472 203.489 29.104 203.115 28.848C202.753 28.5813 202.278 28.448 201.691 28.448C200.817 28.448 200.182 28.736 199.787 29.312C199.393 29.888 199.195 30.6827 199.195 31.696ZM214.803 29.584C214.803 30.1173 214.643 30.5333 214.323 30.832C214.003 31.1307 213.592 31.3333 213.091 31.44V31.504C213.624 31.5787 214.088 31.7707 214.483 32.08C214.878 32.3787 215.075 32.848 215.075 33.488C215.075 33.8507 215.006 34.1867 214.867 34.496C214.739 34.8053 214.536 35.072 214.259 35.296C213.982 35.52 213.624 35.696 213.187 35.824C212.75 35.9413 212.222 36 211.603 36H207.907V27.424H211.587C212.195 27.424 212.739 27.4933 213.219 27.632C213.71 27.76 214.094 27.984 214.371 28.304C214.659 28.6133 214.803 29.04 214.803 29.584ZM213.619 33.488C213.619 32.9973 213.432 32.6453 213.059 32.432C212.686 32.2187 212.136 32.112 211.411 32.112H209.315V34.864H211.443C212.147 34.864 212.686 34.7627 213.059 34.56C213.432 34.3467 213.619 33.9893 213.619 33.488ZM213.379 29.76C213.379 29.3547 213.23 29.0613 212.931 28.88C212.643 28.688 212.168 28.592 211.507 28.592H209.315V30.944H211.251C211.944 30.944 212.472 30.848 212.835 30.656C213.198 30.464 213.379 30.1653 213.379 29.76ZM224.582 31.696C224.582 32.4107 224.486 33.0453 224.294 33.6C224.112 34.144 223.846 34.608 223.494 34.992C223.152 35.376 222.731 35.6693 222.23 35.872C221.739 36.064 221.19 36.16 220.582 36.16C220.016 36.16 219.494 36.064 219.014 35.872C218.534 35.6693 218.118 35.376 217.766 34.992C217.414 34.608 217.136 34.144 216.934 33.6C216.742 33.0453 216.646 32.4107 216.646 31.696C216.646 30.7467 216.806 29.9467 217.126 29.296C217.446 28.6347 217.904 28.1333 218.502 27.792C219.099 27.44 219.808 27.264 220.63 27.264C221.408 27.264 222.091 27.44 222.678 27.792C223.275 28.1333 223.739 28.6347 224.07 29.296C224.411 29.9467 224.582 30.7467 224.582 31.696ZM218.102 31.696C218.102 32.368 218.187 32.9547 218.358 33.456C218.539 33.9467 218.816 34.3253 219.19 34.592C219.563 34.8587 220.038 34.992 220.614 34.992C221.19 34.992 221.664 34.8587 222.038 34.592C222.411 34.3253 222.683 33.9467 222.854 33.456C223.035 32.9547 223.126 32.368 223.126 31.696C223.126 31.0133 223.035 30.432 222.854 29.952C222.672 29.472 222.395 29.104 222.022 28.848C221.659 28.5813 221.184 28.448 220.598 28.448C219.723 28.448 219.088 28.736 218.694 29.312C218.299 29.888 218.102 30.6827 218.102 31.696ZM230.253 36.16C229.496 36.16 228.818 36.0053 228.221 35.696C227.634 35.3867 227.17 34.9067 226.829 34.256C226.498 33.6053 226.333 32.7733 226.333 31.76C226.333 30.704 226.509 29.8453 226.861 29.184C227.213 28.5227 227.688 28.0373 228.285 27.728C228.893 27.4187 229.581 27.264 230.349 27.264C230.786 27.264 231.208 27.312 231.613 27.408C232.018 27.4933 232.349 27.6 232.605 27.728L232.173 28.896C231.917 28.8 231.618 28.7093 231.277 28.624C230.936 28.5387 230.616 28.496 230.317 28.496C229.741 28.496 229.266 28.6187 228.893 28.864C228.52 29.1093 228.242 29.472 228.061 29.952C227.88 30.432 227.789 31.0293 227.789 31.744C227.789 32.4267 227.88 33.008 228.061 33.488C228.242 33.968 228.514 34.3307 228.877 34.576C229.24 34.8213 229.693 34.944 230.237 34.944C230.706 34.944 231.117 34.896 231.469 34.8C231.832 34.704 232.162 34.5867 232.461 34.448V35.696C232.173 35.8453 231.853 35.9573 231.501 36.032C231.16 36.1173 230.744 36.16 230.253 36.16ZM235.829 32.656C235.829 32.752 235.823 32.8907 235.813 33.072C235.813 33.2427 235.807 33.4293 235.797 33.632C235.786 33.824 235.775 34.0107 235.765 34.192C235.754 34.3627 235.743 34.5013 235.733 34.608L240.325 27.424H242.053V36H240.741V30.944C240.741 30.7733 240.741 30.5493 240.741 30.272C240.751 29.9947 240.762 29.7227 240.773 29.456C240.783 29.1787 240.794 28.9707 240.805 28.832L236.245 36H234.501V27.424H235.829V32.656ZM244.334 30.848C244.334 29.6 244.457 28.5387 244.702 27.664C244.958 26.7787 245.347 26.0747 245.87 25.552C246.403 25.0187 247.086 24.6613 247.918 24.48C248.611 24.3307 249.289 24.1973 249.95 24.08C250.611 23.9627 251.23 23.856 251.806 23.76L252.046 24.992C251.769 25.0347 251.459 25.088 251.118 25.152C250.777 25.2053 250.43 25.264 250.078 25.328C249.726 25.3813 249.385 25.44 249.054 25.504C248.734 25.5573 248.451 25.6107 248.206 25.664C247.854 25.7387 247.539 25.8667 247.262 26.048C246.985 26.2187 246.745 26.4533 246.542 26.752C246.35 27.0507 246.195 27.4187 246.078 27.856C245.961 28.2933 245.891 28.8107 245.87 29.408H245.966C246.115 29.2053 246.318 28.9973 246.574 28.784C246.841 28.5707 247.155 28.3893 247.518 28.24C247.891 28.0907 248.313 28.016 248.782 28.016C249.529 28.016 250.147 28.1813 250.638 28.512C251.139 28.832 251.513 29.28 251.758 29.856C252.014 30.432 252.142 31.104 252.142 31.872C252.142 32.8213 251.977 33.616 251.646 34.256C251.315 34.896 250.857 35.376 250.27 35.696C249.683 36.0053 249.001 36.16 248.222 36.16C247.635 36.16 247.102 36.048 246.622 35.824C246.142 35.5893 245.731 35.248 245.39 34.8C245.049 34.352 244.787 33.7973 244.606 33.136C244.425 32.4747 244.334 31.712 244.334 30.848ZM248.334 34.992C248.803 34.992 249.209 34.896 249.55 34.704C249.902 34.512 250.174 34.1973 250.366 33.76C250.558 33.3227 250.654 32.7413 250.654 32.016C250.654 31.1413 250.489 30.4533 250.158 29.952C249.838 29.44 249.305 29.184 248.558 29.184C248.089 29.184 247.662 29.2907 247.278 29.504C246.894 29.7067 246.574 29.9413 246.318 30.208C246.062 30.4747 245.881 30.6987 245.774 30.88C245.774 31.4027 245.811 31.9093 245.886 32.4C245.961 32.8907 246.089 33.3333 246.27 33.728C246.462 34.112 246.723 34.4213 247.054 34.656C247.395 34.88 247.822 34.992 248.334 34.992ZM255.688 32.656C255.688 32.752 255.683 32.8907 255.672 33.072C255.672 33.2427 255.667 33.4293 255.656 33.632C255.645 33.824 255.635 34.0107 255.624 34.192C255.613 34.3627 255.603 34.5013 255.592 34.608L260.184 27.424H261.912V36H260.6V30.944C260.6 30.7733 260.6 30.5493 260.6 30.272C260.611 29.9947 260.621 29.7227 260.632 29.456C260.643 29.1787 260.653 28.9707 260.664 28.832L256.104 36H254.36V27.424H255.688V32.656ZM268.721 27.264C269.777 27.264 270.625 27.632 271.265 28.368C271.916 29.104 272.241 30.2133 272.241 31.696C272.241 32.6667 272.092 33.488 271.793 34.16C271.505 34.8213 271.095 35.3227 270.561 35.664C270.039 35.9947 269.42 36.16 268.705 36.16C268.268 36.16 267.879 36.1013 267.537 35.984C267.196 35.8667 266.903 35.7173 266.657 35.536C266.423 35.344 266.22 35.136 266.049 34.912H265.953C265.975 35.0933 265.996 35.3227 266.017 35.6C266.039 35.8773 266.049 36.1173 266.049 36.32V39.84H264.641V27.424H265.793L265.985 28.592H266.049C266.22 28.3467 266.423 28.1227 266.657 27.92C266.903 27.7173 267.191 27.5573 267.521 27.44C267.863 27.3227 268.263 27.264 268.721 27.264ZM268.465 28.448C267.889 28.448 267.425 28.56 267.073 28.784C266.721 28.9973 266.465 29.3227 266.305 29.76C266.145 30.1973 266.06 30.752 266.049 31.424V31.696C266.049 32.4 266.124 32.9973 266.273 33.488C266.423 33.9787 266.673 34.352 267.025 34.608C267.388 34.864 267.879 34.992 268.497 34.992C269.02 34.992 269.447 34.848 269.777 34.56C270.119 34.272 270.369 33.8827 270.529 33.392C270.7 32.8907 270.785 32.32 270.785 31.68C270.785 30.6987 270.593 29.9147 270.209 29.328C269.836 28.7413 269.255 28.448 268.465 28.448ZM277.925 36.16C277.168 36.16 276.49 36.0053 275.893 35.696C275.306 35.3867 274.842 34.9067 274.501 34.256C274.17 33.6053 274.005 32.7733 274.005 31.76C274.005 30.704 274.181 29.8453 274.533 29.184C274.885 28.5227 275.36 28.0373 275.957 27.728C276.565 27.4187 277.253 27.264 278.021 27.264C278.458 27.264 278.88 27.312 279.285 27.408C279.69 27.4933 280.021 27.6 280.277 27.728L279.845 28.896C279.589 28.8 279.29 28.7093 278.949 28.624C278.608 28.5387 278.288 28.496 277.989 28.496C277.413 28.496 276.938 28.6187 276.565 28.864C276.192 29.1093 275.914 29.472 275.733 29.952C275.552 30.432 275.461 31.0293 275.461 31.744C275.461 32.4267 275.552 33.008 275.733 33.488C275.914 33.968 276.186 34.3307 276.549 34.576C276.912 34.8213 277.365 34.944 277.909 34.944C278.378 34.944 278.789 34.896 279.141 34.8C279.504 34.704 279.834 34.5867 280.133 34.448V35.696C279.845 35.8453 279.525 35.9573 279.173 36.032C278.832 36.1173 278.416 36.16 277.925 36.16ZM287.245 27.424H288.781L285.117 31.552L289.085 36H287.453L283.581 31.648V36H282.173V27.424H283.581V31.584L287.245 27.424ZM289.977 38.008L290.873 36.032L290.177 35.992V34.224H292.025V35.76L290.665 38.008H289.977ZM186.568 43.576H187.912V49.848C187.912 50.1147 187.907 50.408 187.896 50.728C187.896 51.0373 187.891 51.3467 187.88 51.656C187.869 51.9653 187.853 52.2427 187.832 52.488C187.821 52.7227 187.811 52.904 187.8 53.032H187.864L194.152 43.576H195.752V55H194.408V48.792C194.408 48.504 194.413 48.1947 194.424 47.864C194.435 47.5227 194.445 47.1973 194.456 46.888C194.477 46.568 194.493 46.2853 194.504 46.04C194.515 45.7947 194.525 45.6133 194.536 45.496H194.472L188.168 55H186.568V43.576ZM205.889 46.424V55H204.481V47.624H200.049V55H198.641V46.424H205.889ZM215.874 46.424V55H214.466V47.624H210.034V55H208.626V46.424H215.874ZM226.066 50.696C226.066 51.4107 225.97 52.0453 225.778 52.6C225.597 53.144 225.33 53.608 224.978 53.992C224.637 54.376 224.215 54.6693 223.714 54.872C223.223 55.064 222.674 55.16 222.066 55.16C221.501 55.16 220.978 55.064 220.498 54.872C220.018 54.6693 219.602 54.376 219.25 53.992C218.898 53.608 218.621 53.144 218.418 52.6C218.226 52.0453 218.13 51.4107 218.13 50.696C218.13 49.7467 218.29 48.9467 218.61 48.296C218.93 47.6347 219.389 47.1333 219.986 46.792C220.583 46.44 221.293 46.264 222.114 46.264C222.893 46.264 223.575 46.44 224.162 46.792C224.759 47.1333 225.223 47.6347 225.554 48.296C225.895 48.9467 226.066 49.7467 226.066 50.696ZM219.586 50.696C219.586 51.368 219.671 51.9547 219.842 52.456C220.023 52.9467 220.301 53.3253 220.674 53.592C221.047 53.8587 221.522 53.992 222.098 53.992C222.674 53.992 223.149 53.8587 223.522 53.592C223.895 53.3253 224.167 52.9467 224.338 52.456C224.519 51.9547 224.61 51.368 224.61 50.696C224.61 50.0133 224.519 49.432 224.338 48.952C224.157 48.472 223.879 48.104 223.506 47.848C223.143 47.5813 222.669 47.448 222.082 47.448C221.207 47.448 220.573 47.736 220.178 48.312C219.783 48.888 219.586 49.6827 219.586 50.696ZM234.666 46.424V53.816H235.914V57.976H234.554V55H228.586V57.976H227.242V53.816H227.93C228.42 53.1333 228.826 52.392 229.146 51.592C229.476 50.7813 229.722 49.9387 229.882 49.064C230.052 48.1787 230.143 47.2987 230.154 46.424H234.666ZM231.402 47.528C231.359 48.2533 231.247 49.0053 231.066 49.784C230.884 50.552 230.65 51.288 230.362 51.992C230.084 52.696 229.759 53.304 229.386 53.816H233.306V47.528H231.402ZM241.674 46.264C242.73 46.264 243.578 46.632 244.218 47.368C244.869 48.104 245.194 49.2133 245.194 50.696C245.194 51.6667 245.045 52.488 244.746 53.16C244.458 53.8213 244.048 54.3227 243.514 54.664C242.992 54.9947 242.373 55.16 241.658 55.16C241.221 55.16 240.832 55.1013 240.49 54.984C240.149 54.8667 239.856 54.7173 239.61 54.536C239.376 54.344 239.173 54.136 239.002 53.912H238.906C238.928 54.0933 238.949 54.3227 238.97 54.6C238.992 54.8773 239.002 55.1173 239.002 55.32V58.84H237.594V46.424H238.746L238.938 47.592H239.002C239.173 47.3467 239.376 47.1227 239.61 46.92C239.856 46.7173 240.144 46.5573 240.474 46.44C240.816 46.3227 241.216 46.264 241.674 46.264ZM241.418 47.448C240.842 47.448 240.378 47.56 240.026 47.784C239.674 47.9973 239.418 48.3227 239.258 48.76C239.098 49.1973 239.013 49.752 239.002 50.424V50.696C239.002 51.4 239.077 51.9973 239.226 52.488C239.376 52.9787 239.626 53.352 239.978 53.608C240.341 53.864 240.832 53.992 241.45 53.992C241.973 53.992 242.4 53.848 242.73 53.56C243.072 53.272 243.322 52.8827 243.482 52.392C243.653 51.8907 243.738 51.32 243.738 50.68C243.738 49.6987 243.546 48.9147 243.162 48.328C242.789 47.7413 242.208 47.448 241.418 47.448ZM254.894 50.696C254.894 51.4107 254.798 52.0453 254.606 52.6C254.425 53.144 254.158 53.608 253.806 53.992C253.465 54.376 253.043 54.6693 252.542 54.872C252.051 55.064 251.502 55.16 250.894 55.16C250.329 55.16 249.806 55.064 249.326 54.872C248.846 54.6693 248.43 54.376 248.078 53.992C247.726 53.608 247.449 53.144 247.246 52.6C247.054 52.0453 246.958 51.4107 246.958 50.696C246.958 49.7467 247.118 48.9467 247.438 48.296C247.758 47.6347 248.217 47.1333 248.814 46.792C249.411 46.44 250.121 46.264 250.942 46.264C251.721 46.264 252.403 46.44 252.99 46.792C253.587 47.1333 254.051 47.6347 254.382 48.296C254.723 48.9467 254.894 49.7467 254.894 50.696ZM248.414 50.696C248.414 51.368 248.499 51.9547 248.67 52.456C248.851 52.9467 249.129 53.3253 249.502 53.592C249.875 53.8587 250.35 53.992 250.926 53.992C251.502 53.992 251.977 53.8587 252.35 53.592C252.723 53.3253 252.995 52.9467 253.166 52.456C253.347 51.9547 253.438 51.368 253.438 50.696C253.438 50.0133 253.347 49.432 253.166 48.952C252.985 48.472 252.707 48.104 252.334 47.848C251.971 47.5813 251.497 47.448 250.91 47.448C250.035 47.448 249.401 47.736 249.006 48.312C248.611 48.888 248.414 49.6827 248.414 50.696ZM266.326 46.424V55H265.062V49.528C265.062 49.304 265.067 49.0693 265.078 48.824C265.099 48.5787 265.12 48.3387 265.142 48.104H265.094L262.294 55H261.11L258.39 48.104H258.342C258.363 48.3387 258.374 48.5787 258.374 48.824C258.384 49.0693 258.39 49.32 258.39 49.576V55H257.126V46.424H258.998L261.702 53.32L264.454 46.424H266.326ZM272.503 55.16C271.746 55.16 271.068 55.0053 270.471 54.696C269.884 54.3867 269.42 53.9067 269.079 53.256C268.748 52.6053 268.583 51.7733 268.583 50.76C268.583 49.704 268.759 48.8453 269.111 48.184C269.463 47.5227 269.938 47.0373 270.535 46.728C271.143 46.4187 271.831 46.264 272.599 46.264C273.036 46.264 273.458 46.312 273.863 46.408C274.268 46.4933 274.599 46.6 274.855 46.728L274.423 47.896C274.167 47.8 273.868 47.7093 273.527 47.624C273.186 47.5387 272.866 47.496 272.567 47.496C271.991 47.496 271.516 47.6187 271.143 47.864C270.77 48.1093 270.492 48.472 270.311 48.952C270.13 49.432 270.039 50.0293 270.039 50.744C270.039 51.4267 270.13 52.008 270.311 52.488C270.492 52.968 270.764 53.3307 271.127 53.576C271.49 53.8213 271.943 53.944 272.487 53.944C272.956 53.944 273.367 53.896 273.719 53.8C274.082 53.704 274.412 53.5867 274.711 53.448V54.696C274.423 54.8453 274.103 54.9573 273.751 55.032C273.41 55.1173 272.994 55.16 272.503 55.16ZM281.823 46.424H283.359L279.695 50.552L283.663 55H282.031L278.159 50.648V55H276.751V46.424H278.159V50.584L281.823 46.424ZM288.467 46.28C289.513 46.28 290.286 46.5093 290.787 46.968C291.289 47.4267 291.539 48.1573 291.539 49.16V55H290.515L290.243 53.784H290.179C289.934 54.0933 289.678 54.3547 289.411 54.568C289.155 54.7707 288.857 54.92 288.515 55.016C288.185 55.112 287.779 55.16 287.299 55.16C286.787 55.16 286.323 55.0693 285.907 54.888C285.502 54.7067 285.182 54.4293 284.947 54.056C284.713 53.672 284.595 53.192 284.595 52.616C284.595 51.7627 284.931 51.1067 285.603 50.648C286.275 50.1787 287.31 49.9227 288.707 49.88L290.163 49.832V49.32C290.163 48.6053 290.009 48.1093 289.699 47.832C289.39 47.5547 288.953 47.416 288.387 47.416C287.939 47.416 287.513 47.4853 287.107 47.624C286.702 47.752 286.323 47.9013 285.971 48.072L285.539 47.016C285.913 46.8133 286.355 46.6427 286.867 46.504C287.379 46.3547 287.913 46.28 288.467 46.28ZM288.883 50.856C287.817 50.8987 287.075 51.0693 286.659 51.368C286.254 51.6667 286.051 52.088 286.051 52.632C286.051 53.112 286.195 53.464 286.483 53.688C286.782 53.912 287.161 54.024 287.619 54.024C288.345 54.024 288.947 53.8267 289.427 53.432C289.907 53.0267 290.147 52.408 290.147 51.576V50.808L288.883 50.856ZM294.716 55H293.084L295.532 51.4C295.201 51.3147 294.881 51.1813 294.572 51C294.263 50.808 294.012 50.5467 293.82 50.216C293.628 49.8747 293.532 49.4533 293.532 48.952C293.532 48.1307 293.809 47.5067 294.364 47.08C294.919 46.6427 295.655 46.424 296.572 46.424H300.412V55H299.004V51.592H296.924L294.716 55ZM294.892 48.968C294.892 49.4587 295.073 49.8267 295.436 50.072C295.809 50.3067 296.327 50.424 296.988 50.424H299.004V47.592H296.716C296.065 47.592 295.596 47.72 295.308 47.976C295.031 48.232 294.892 48.5627 294.892 48.968ZM305.672 46.424H307.176L309.032 51.304C309.139 51.592 309.235 51.8693 309.32 52.136C309.416 52.4027 309.502 52.664 309.576 52.92C309.651 53.1653 309.71 53.4053 309.752 53.64H309.816C309.88 53.3733 309.982 53.0267 310.12 52.6C310.259 52.1627 310.403 51.7253 310.552 51.288L312.296 46.424H313.816L310.12 56.184C309.918 56.7173 309.678 57.1813 309.4 57.576C309.134 57.9813 308.803 58.2907 308.408 58.504C308.024 58.728 307.555 58.84 307 58.84C306.744 58.84 306.52 58.824 306.328 58.792C306.136 58.7707 305.971 58.744 305.832 58.712V57.592C305.95 57.6133 306.088 57.6347 306.248 57.656C306.419 57.6773 306.595 57.688 306.776 57.688C307.107 57.688 307.39 57.624 307.624 57.496C307.87 57.3787 308.078 57.2027 308.248 56.968C308.419 56.744 308.563 56.4773 308.68 56.168L309.128 55.032L305.672 46.424ZM321.388 55H319.964V47.592H317.436C317.329 48.9467 317.196 50.104 317.036 51.064C316.876 52.0133 316.673 52.7867 316.428 53.384C316.183 53.9813 315.889 54.4187 315.548 54.696C315.207 54.9733 314.807 55.112 314.348 55.112C314.209 55.112 314.071 55.1013 313.932 55.08C313.804 55.0693 313.697 55.0427 313.612 55V53.944C313.676 53.9653 313.745 53.9813 313.82 53.992C313.895 54.0027 313.969 54.008 314.044 54.008C314.279 54.008 314.492 53.912 314.684 53.72C314.876 53.528 315.047 53.2347 315.196 52.84C315.356 52.4453 315.5 51.9493 315.628 51.352C315.756 50.744 315.868 50.0293 315.964 49.208C316.06 48.3867 316.145 47.4587 316.22 46.424H321.388V55ZM323.63 55V53.112H325.39V55H323.63ZM327.852 57.008L328.748 55.032L328.052 54.992V53.224H329.9V54.76L328.54 57.008H327.852ZM341.005 55V52.048H335.557V50.696L340.949 43.432H342.453V50.744H344.373V52.048H342.453V55H341.005ZM336.973 50.744H340.973V45.376L336.973 50.744ZM350.043 55.176C349.147 55.176 348.368 54.944 347.707 54.48C347.051 54.016 346.542 53.3547 346.179 52.496C345.822 51.632 345.643 50.5973 345.643 49.392C345.643 48.1547 345.816 47.0773 346.163 46.16C346.515 45.2427 347.027 44.5333 347.699 44.032C348.371 43.5253 349.195 43.272 350.171 43.272C350.811 43.272 351.4 43.392 351.939 43.632C352.483 43.872 352.934 44.216 353.291 44.664C353.648 45.112 353.87 45.6533 353.955 46.288H352.563C352.408 45.7387 352.128 45.304 351.723 44.984C351.318 44.664 350.808 44.504 350.195 44.504C349.512 44.504 348.942 44.6987 348.483 45.088C348.03 45.472 347.699 46.0373 347.491 46.784C347.283 47.5253 347.211 48.4373 347.275 49.52C347.419 49.1307 347.638 48.7893 347.931 48.496C348.23 48.1973 348.576 47.968 348.971 47.808C349.366 47.6427 349.792 47.56 350.251 47.56C351.014 47.56 351.68 47.7093 352.251 48.008C352.822 48.3013 353.267 48.7227 353.587 49.272C353.907 49.816 354.067 50.4667 354.067 51.224C354.067 51.9973 353.902 52.6827 353.571 53.28C353.246 53.872 352.782 54.336 352.179 54.672C351.576 55.008 350.864 55.176 350.043 55.176ZM350.027 53.952C350.502 53.952 350.923 53.84 351.291 53.616C351.659 53.392 351.947 53.08 352.155 52.68C352.368 52.28 352.475 51.8187 352.475 51.296C352.475 50.768 352.379 50.3147 352.187 49.936C352 49.5573 351.723 49.2667 351.355 49.064C350.987 48.8613 350.539 48.76 350.011 48.76C349.59 48.76 349.184 48.8613 348.795 49.064C348.411 49.2613 348.096 49.5227 347.851 49.848C347.611 50.1733 347.491 50.5333 347.491 50.928C347.486 51.5147 347.587 52.0373 347.795 52.496C348.008 52.9493 348.307 53.3067 348.691 53.568C349.075 53.824 349.52 53.952 350.027 53.952Z" fill="white"/>
<path d="M22.6383 72C19.1006 68.6432 15.851 65.0001 12.8095 61.1978C9.25574 56.7433 6.02215 52.082 3.52493 46.9434C1.94015 43.698 0.691539 40.3412 0.211304 36.7458C-0.493042 31.4481 0.563477 26.5004 3.38086 21.9823C7.09468 16.0164 12.5213 12.4369 19.4848 11.2915C28.6893 9.78012 38.1179 14.2505 42.8082 22.2845C46.49 28.6004 46.8902 35.2026 44.505 42.0594C42.7281 47.1661 40.0228 51.7797 36.9493 56.1865C33.1074 61.6751 28.7373 66.7182 23.967 71.4273C23.7749 71.6182 23.5668 71.7932 23.3587 71.9841C23.1185 72 22.8784 72 22.6383 72ZM12.4573 33.9299C12.4573 39.6889 17.2116 44.3821 23.0385 44.3821C28.7853 44.3821 33.5236 39.673 33.5396 33.9617C33.5557 28.1709 28.8493 23.4459 23.1025 23.43C17.1796 23.3982 12.4573 28.0595 12.4573 33.9299Z" fill="#2044F7"/>
</svg>
