<svg width="46" height="61" viewBox="0 0 46 61" fill="none" xmlns="http://www.w3.org/2000/svg">
<path d="M22.6383 61C19.1006 57.6432 15.851 54.0001 12.8095 50.1978C9.25574 45.7433 6.02215 41.082 3.52493 35.9434C1.94015 32.698 0.691539 29.3412 0.211304 25.7458C-0.493042 20.4481 0.563477 15.5004 3.38086 10.9823C7.09468 5.01642 12.5213 1.43691 19.4848 0.291465C28.6893 -1.21988 38.1179 3.25053 42.8082 11.2845C46.49 17.6004 46.8902 24.2026 44.505 31.0594C42.7281 36.1661 40.0228 40.7797 36.9493 45.1865C33.1074 50.6751 28.7373 55.7182 23.967 60.4273C23.7749 60.6182 23.5668 60.7932 23.3587 60.9841C23.1185 61 22.8784 61 22.6383 61ZM12.4573 22.9299C12.4573 28.6889 17.2116 33.3821 23.0385 33.3821C28.7853 33.3821 33.5236 28.673 33.5396 22.9617C33.5557 17.1709 28.8493 12.4459 23.1025 12.43C17.1796 12.3982 12.4573 17.0595 12.4573 22.9299Z" fill="#2044F7"/>
</svg>
