<svg width="40" height="40" viewBox="0 0 40 40" fill="none" xmlns="http://www.w3.org/2000/svg">
<circle cx="20" cy="20" r="20" transform="matrix(-1 0 0 1 40 0)" fill="#2044F7"/>
<path fill-rule="evenodd" clip-rule="evenodd" d="M22.3833 14.6742C21.5229 13.7751 20.0973 13.7755 19.2371 14.6742L15.6164 18.4583C15.1987 18.895 15 19.4574 15 20.0005C15.0001 20.5427 15.1985 21.1057 15.6164 21.5428L19.2371 25.3257C20.0973 26.2245 21.5229 26.2251 22.3833 25.3257C23.2052 24.4663 23.2048 23.1014 22.3833 22.2424L20.239 20.0005L22.3833 17.7575C23.1535 16.9522 23.2027 15.703 22.5286 14.8418L22.3833 14.6742ZM21.1834 24.2616C21.1761 24.2679 21.1664 24.2721 21.1588 24.278C21.1822 24.26 21.2057 24.2415 21.2268 24.2194L21.1834 24.2616Z" fill="white"/>
</svg>
