<svg width="40" height="40" viewBox="0 0 40 40" fill="none" xmlns="http://www.w3.org/2000/svg">
<circle cx="20" cy="20" r="20" fill="#2044F7"/>
<path fill-rule="evenodd" clip-rule="evenodd" d="M17.6167 14.6742C18.4771 13.7751 19.9027 13.7755 20.7629 14.6742L24.3836 18.4583C24.8013 18.895 25 19.4574 25 20.0005C24.9999 20.5427 24.8015 21.1057 24.3836 21.5428L20.7629 25.3257C19.9027 26.2245 18.4771 26.2251 17.6167 25.3257C16.7948 24.4663 16.7952 23.1014 17.6167 22.2424L19.761 20.0005L17.6167 17.7575C16.8465 16.9522 16.7973 15.703 17.4714 14.8418L17.6167 14.6742ZM18.8166 24.2616C18.8239 24.2679 18.8336 24.2721 18.8412 24.278C18.8178 24.26 18.7943 24.2415 18.7732 24.2194L18.8166 24.2616Z" fill="white"/>
</svg>
