<svg width="12" height="8" viewBox="0 0 12 8" fill="none" xmlns="http://www.w3.org/2000/svg">
<path fill-rule="evenodd" clip-rule="evenodd" d="M11.074 0.442594C11.7164 1.06017 11.7161 2.08338 11.074 2.70073L5.38823 7.55762C5.07626 7.85736 4.67443 8 4.28639 8C3.89901 7.99992 3.49678 7.85753 3.18455 7.55762L0.481864 4.95887C-0.160269 4.34148 -0.160686 3.31827 0.481864 2.70073C1.09585 2.11084 2.07101 2.11114 2.6847 2.70073L4.28639 4.2398L8.87115 0.442594C9.44645 -0.110152 10.339 -0.145449 10.9543 0.338307L11.074 0.442594ZM1.2421 3.56194C1.2376 3.56723 1.23457 3.57415 1.23038 3.5796C1.24326 3.56285 1.25646 3.54599 1.27224 3.53082L1.2421 3.56194Z" fill="#2044F7"/>
</svg>
