<svg width="40" height="40" viewBox="0 0 40 40" fill="none" xmlns="http://www.w3.org/2000/svg">
<circle cx="20" cy="20" r="20" fill="#2044F7"/>
<path d="M10.5618 29.4381C9.78612 28.6624 9.81757 27.3734 10.632 26.5589L26.559 10.632C27.3735 9.81757 28.6625 9.78612 29.4382 10.5618C30.2139 11.3375 30.1824 12.6265 29.368 13.441L13.441 29.3679C12.6265 30.1823 11.3375 30.2138 10.5618 29.4381Z" fill="white"/>
<path d="M10.5618 10.5619C9.78612 11.3376 9.81757 12.6266 10.632 13.4411L26.559 29.368C27.3735 30.1824 28.6625 30.2139 29.4382 29.4382C30.2139 28.6625 30.1824 27.3735 29.368 26.559L13.441 10.6321C12.6265 9.81767 11.3375 9.78622 10.5618 10.5619Z" fill="white"/>
</svg>
