<svg width="23" height="21" viewBox="0 0 23 21" fill="none" xmlns="http://www.w3.org/2000/svg">
<path d="M5.60258 9.60004C6.09113 9.60004 6.48721 10.0029 6.48721 10.5V20.1C6.48721 20.597 6.09113 21 5.60258 21H0.884635C0.396076 21 0 20.597 0 20.1V10.5C4.74948e-06 10.0029 0.396079 9.60004 0.884635 9.60004H5.60258ZM13.859 0C14.3476 9.18087e-06 14.7436 0.40297 14.7436 0.90002V20.1C14.7436 20.597 14.3476 21 13.859 21H9.14106C8.6525 21 8.25642 20.597 8.25642 20.1V0.90002C8.25642 0.402964 8.6525 0 9.14106 0H13.859ZM22.1154 14.4C22.6039 14.4 23 14.8029 23 15.3V20.1C23 20.597 22.6039 21 22.1154 21H17.3974C16.9089 21 16.5128 20.597 16.5128 20.1V15.3C16.5129 14.8029 16.9089 14.4 17.3974 14.4H22.1154ZM18.2821 19.2H21.2308V16.2H18.2821V19.2ZM10.0256 19.2H12.9744V1.80004H10.0256V19.2ZM1.76927 19.2H4.71794V11.4H1.76927V19.2Z" fill="#DCE0ED"/>
</svg>
