<svg width="27" height="23" viewBox="0 0 27 23" fill="none" xmlns="http://www.w3.org/2000/svg">
<path d="M26.0002 7.39249C25.9219 7.0038 25.8697 6.60884 25.7653 6.22014C24.9173 3.03536 21.8577 0.853661 18.4459 1.01666C16.5998 1.10443 15.0146 1.78151 13.6838 3.02282C13.625 3.07925 13.5663 3.1294 13.5272 3.16075C13.0575 2.8034 12.6139 2.42724 12.1312 2.12005C7.8191 -0.625884 1.84355 1.95078 1.0803 6.87215C0.806309 8.65262 1.25643 10.2826 2.10449 11.8437C3.05693 13.5991 4.36816 15.0849 5.81638 16.4704C7.94305 18.5016 10.3176 20.2319 12.8357 21.7867C13.2793 22.0626 13.6642 22.0751 14.1143 21.7992C17.0825 19.9812 19.8485 17.9248 22.2231 15.4109C23.4886 14.0755 24.5911 12.6336 25.3217 10.9472C25.6414 10.2074 25.8697 9.44254 25.9545 8.64635C25.961 8.58365 25.9806 8.52723 25.9937 8.47081C26.0002 8.11346 26.0002 7.74984 26.0002 7.39249ZM2.55461 7.8C2.57419 7.62446 2.60028 7.28592 2.65899 6.95992C3.1613 4.11367 6.14255 2.0887 9.09771 2.57771C10.6438 2.83475 11.8898 3.56198 12.8161 4.77822C12.9923 5.00391 13.2075 5.1481 13.5141 5.14183C13.8403 5.13556 14.0426 4.94749 14.2252 4.70925C16.0844 2.30813 19.6071 1.79405 22.1122 3.56198C24.1736 5.01645 24.9368 7.4928 24.0692 9.92527C23.5212 11.4612 22.5688 12.759 21.4729 13.9689C19.2027 16.4704 16.5084 18.4828 13.6381 20.3072C13.5207 20.3824 13.4424 20.3636 13.338 20.2946C11.3157 19.0157 9.38475 17.6239 7.61035 16.0378C6.12298 14.7087 4.75304 13.2793 3.72233 11.5804C3.0504 10.4644 2.58071 9.27954 2.55461 7.8Z" fill="#DCE0ED"/>
<path d="M12.1848 2.0361C7.81579 -0.746074 1.7569 1.8596 0.981625 6.85641C0.703506 8.66444 1.16174 10.3177 2.01678 11.8916C2.97618 13.6597 4.29546 15.154 5.74725 16.5429C7.88019 18.5801 10.2612 20.3137 12.7834 21.8711L12.7824 21.872C13.0145 22.0164 13.2397 22.0961 13.4709 22.0996C13.7024 22.1031 13.9297 22.0296 14.1662 21.8847C17.1393 20.0637 19.9136 18.0018 22.2961 15.4795C23.5659 14.1396 24.6764 12.688 25.4133 10.9873C25.7359 10.2405 25.9678 9.46545 26.0539 8.6572C26.0596 8.60249 26.0748 8.56321 26.091 8.49313L26.0939 8.48337V8.47263C26.1005 8.11423 26.0998 7.74971 26.0998 7.39255V7.38278L26.0978 7.37302C26.0214 6.99372 25.9668 6.58647 25.8615 6.1943L25.7746 5.8945C24.8068 2.82636 21.79 0.757171 18.4416 0.916961C16.6885 1.00031 15.1655 1.60883 13.8713 2.72067L13.6154 2.95016L13.6144 2.95114C13.5839 2.98044 13.552 3.00643 13.5246 3.03024C13.0832 2.69126 12.6495 2.33187 12.1848 2.0361ZM9.09771 2.57771C6.14255 2.0887 3.1613 4.11367 2.65899 6.95992C2.60028 7.28592 2.57419 7.62446 2.55461 7.8C2.58071 9.27954 3.0504 10.4644 3.72233 11.5804L3.91913 11.8955C4.9244 13.4575 6.21583 14.7917 7.61035 16.0378L8.28338 16.624C9.86922 17.9703 11.5687 19.1757 13.338 20.2946L13.4123 20.3359C13.4602 20.3566 13.5056 20.3623 13.5568 20.3466L13.6381 20.3072C16.329 18.5969 18.8651 16.7214 21.0422 14.4326L21.4729 13.9689C22.5002 12.8347 23.4019 11.6234 23.9621 10.2109L24.0692 9.92527C24.9368 7.4928 24.1736 5.01645 22.1122 3.56198C19.6071 1.79405 16.0844 2.30813 14.2252 4.70925C14.0654 4.91764 13.8906 5.08731 13.631 5.13083L13.5141 5.14183C13.2461 5.14723 13.0473 5.03789 12.884 4.85934L12.8161 4.77822C11.9477 3.63799 10.7982 2.92795 9.38397 2.6318L9.09771 2.57771ZM2.75702 6.97751C3.24919 4.18871 6.17668 2.19615 9.08123 2.67673C10.6035 2.92981 11.8264 3.64394 12.7365 4.83884L12.7375 4.83981C12.9267 5.08224 13.1691 5.24912 13.5158 5.24216C13.8888 5.23499 14.1168 5.01569 14.3049 4.77048C16.131 2.41302 19.5932 1.90623 22.0549 3.64352C24.0784 5.07133 24.8278 7.50013 23.9748 9.89157C23.4332 11.4097 22.4905 12.6959 21.3986 13.9013C19.1368 16.3935 16.4507 18.4007 13.5842 20.2226L13.5275 20.2509C13.5124 20.2555 13.5008 20.2556 13.4914 20.2549C13.4695 20.253 13.4406 20.2425 13.3928 20.2109L13.3918 20.2099C11.3728 18.9331 9.44618 17.5444 7.67694 15.9629C6.19303 14.6368 4.83114 13.2151 3.8078 11.5283C3.14356 10.425 2.68296 9.26004 2.65545 7.80759C2.67045 7.67205 2.68763 7.45322 2.71991 7.21774L2.75702 6.97751ZM25.9937 8.47081C25.9806 8.52723 25.961 8.58365 25.9545 8.64635C25.8697 9.44254 25.6414 10.2074 25.3217 10.9472C24.5911 12.6336 23.4886 14.0755 22.2231 15.4109C19.8485 17.9248 17.0825 19.9812 14.1143 21.7992C13.6642 22.0751 13.2793 22.0626 12.8357 21.7867C10.475 20.3291 8.2404 18.7171 6.21795 16.8476L5.81638 16.4704C4.45872 15.1715 3.22142 13.7845 2.28729 12.1699L2.10449 11.8437C1.30941 10.3801 0.864041 8.85599 1.03729 7.20407L1.0803 6.87215C1.84355 1.95078 7.8191 -0.625884 12.1312 2.12005L12.4865 2.36227C12.837 2.61444 13.1749 2.8927 13.5272 3.16075L13.6838 3.02282C14.9313 1.85924 16.4026 1.19127 18.1027 1.04001L18.4459 1.01666C21.8577 0.853661 24.9173 3.03536 25.7653 6.22014C25.8697 6.60884 25.9219 7.0038 26.0002 7.39249C26.0002 7.74984 26.0002 8.11346 25.9937 8.47081Z" fill="#DCE0ED"/>
</svg>
