<svg width="40" height="40" viewBox="0 0 40 40" fill="none" xmlns="http://www.w3.org/2000/svg">
<circle cx="20" cy="20" r="20" fill="#2044F7"/>
<path d="M20 12.5891C17.4448 12.5891 15.3659 14.7544 15.3659 17.416C15.3659 20.0775 17.4448 22.2429 20 22.2429C22.5553 22.2429 24.6341 20.0775 24.6341 17.416C24.6341 14.7544 22.5553 12.5891 20 12.5891ZM20 20.2105C18.5206 20.2105 17.3171 18.9569 17.3171 17.416C17.3171 15.8751 18.5206 14.6215 20 14.6215C21.4794 14.6215 22.6829 15.8751 22.6829 17.416C22.6829 18.9569 21.4794 20.2105 20 20.2105Z" fill="white"/>
<path d="M20 7C14.486 7 10 11.6726 10 17.416V17.7039C10 20.6086 11.5988 23.9935 14.7522 27.7644C17.0381 30.498 19.2921 32.4041 19.3869 32.484L20 33L20.6131 32.484C20.7079 32.4042 22.9619 30.4981 25.2478 27.7644C28.4011 23.9935 30 20.6087 30 17.704V17.416C30 11.6726 25.514 7 20 7ZM28.0488 17.704C28.0488 22.6127 21.9766 28.5549 20 30.3588C18.0229 28.5544 11.9512 22.6124 11.9512 17.704V17.416C11.9512 12.7933 15.5619 9.03242 20 9.03242C24.4381 9.03242 28.0488 12.7933 28.0488 17.416V17.704Z" fill="white"/>
</svg>
