<svg width="337" height="122" viewBox="0 0 337 122" fill="none" xmlns="http://www.w3.org/2000/svg">
<path d="M1.358 101.873V91.8774H8.862V101.873H7.616V92.9834H2.618V101.873H1.358ZM15.0002 94.2294C15.9242 94.2294 16.6662 94.5514 17.2262 95.1954C17.7956 95.8394 18.0802 96.8101 18.0802 98.1074C18.0802 98.9568 17.9496 99.6754 17.6882 100.263C17.4362 100.842 17.0769 101.281 16.6102 101.579C16.1529 101.869 15.6116 102.013 14.9862 102.013C14.6036 102.013 14.2629 101.962 13.9642 101.859C13.6656 101.757 13.4089 101.626 13.1942 101.467C12.9889 101.299 12.8116 101.117 12.6622 100.921H12.5782C12.5969 101.08 12.6156 101.281 12.6342 101.523C12.6529 101.766 12.6622 101.976 12.6622 102.153V105.233H11.4302V94.3694H12.4382L12.6062 95.3914H12.6622C12.8116 95.1768 12.9889 94.9808 13.1942 94.8034C13.4089 94.6261 13.6609 94.4861 13.9502 94.3834C14.2489 94.2808 14.5989 94.2294 15.0002 94.2294ZM14.7762 95.2654C14.2722 95.2654 13.8662 95.3634 13.5582 95.5594C13.2502 95.7461 13.0262 96.0308 12.8862 96.4134C12.7462 96.7961 12.6716 97.2814 12.6622 97.8694V98.1074C12.6622 98.7234 12.7276 99.2461 12.8582 99.6754C12.9889 100.105 13.2082 100.431 13.5162 100.655C13.8336 100.879 14.2629 100.991 14.8042 100.991C15.2616 100.991 15.6349 100.865 15.9242 100.613C16.2229 100.361 16.4422 100.021 16.5822 99.5914C16.7316 99.1528 16.8062 98.6534 16.8062 98.0934C16.8062 97.2348 16.6382 96.5488 16.3022 96.0354C15.9756 95.5221 15.4669 95.2654 14.7762 95.2654ZM26.5675 98.1074C26.5675 98.7328 26.4835 99.2881 26.3155 99.7734C26.1568 100.249 25.9235 100.655 25.6155 100.991C25.3168 101.327 24.9482 101.584 24.5095 101.761C24.0802 101.929 23.5995 102.013 23.0675 102.013C22.5728 102.013 22.1155 101.929 21.6955 101.761C21.2755 101.584 20.9115 101.327 20.6035 100.991C20.2955 100.655 20.0528 100.249 19.8755 99.7734C19.7075 99.2881 19.6235 98.7328 19.6235 98.1074C19.6235 97.2768 19.7635 96.5768 20.0435 96.0074C20.3235 95.4288 20.7248 94.9901 21.2475 94.6914C21.7702 94.3834 22.3908 94.2294 23.1095 94.2294C23.7908 94.2294 24.3882 94.3834 24.9015 94.6914C25.4242 94.9901 25.8302 95.4288 26.1195 96.0074C26.4182 96.5768 26.5675 97.2768 26.5675 98.1074ZM20.8975 98.1074C20.8975 98.6954 20.9722 99.2088 21.1215 99.6474C21.2802 100.077 21.5228 100.408 21.8495 100.641C22.1762 100.875 22.5915 100.991 23.0955 100.991C23.5995 100.991 24.0148 100.875 24.3415 100.641C24.6682 100.408 24.9062 100.077 25.0555 99.6474C25.2142 99.2088 25.2935 98.6954 25.2935 98.1074C25.2935 97.5101 25.2142 97.0014 25.0555 96.5814C24.8968 96.1614 24.6542 95.8394 24.3275 95.6154C24.0102 95.3821 23.5948 95.2654 23.0815 95.2654C22.3162 95.2654 21.7608 95.5174 21.4155 96.0214C21.0702 96.5254 20.8975 97.2208 20.8975 98.1074ZM36.5701 94.3694V101.873H35.4641V97.0854C35.4641 96.8894 35.4687 96.6841 35.4781 96.4694C35.4967 96.2548 35.5154 96.0448 35.5341 95.8394H35.4921L33.0421 101.873H32.0061L29.6261 95.8394H29.5841C29.6027 96.0448 29.6121 96.2548 29.6121 96.4694C29.6214 96.6841 29.6261 96.9034 29.6261 97.1274V101.873H28.5201V94.3694H30.1581L32.5241 100.403L34.9321 94.3694H36.5701ZM38.9654 101.873V94.3694H40.1974V97.4494H42.1434C42.7967 97.4494 43.3334 97.5288 43.7534 97.6874C44.1734 97.8461 44.4861 98.0841 44.6914 98.4014C44.8967 98.7094 44.9994 99.1014 44.9994 99.5774C44.9994 100.044 44.8967 100.45 44.6914 100.795C44.4954 101.141 44.1827 101.407 43.7534 101.593C43.3334 101.78 42.7781 101.873 42.0874 101.873H38.9654ZM41.9754 100.879C42.5074 100.879 42.9414 100.791 43.2774 100.613C43.6134 100.427 43.7814 100.105 43.7814 99.6474C43.7814 99.1901 43.6274 98.8821 43.3194 98.7234C43.0114 98.5554 42.5681 98.4714 41.9894 98.4714H40.1974V100.879H41.9754ZM46.2454 101.873V94.3694H47.4774V101.873H46.2454ZM60.0399 94.3694V101.873H49.8619V94.3694H51.0939V100.837H54.3279V94.3694H55.5599V100.837H58.8079V94.3694H60.0399ZM68.152 101.873H66.906V95.3914H64.694C64.6007 96.5768 64.484 97.5894 64.344 98.4294C64.204 99.2601 64.0267 99.9368 63.812 100.459C63.5973 100.982 63.3407 101.365 63.042 101.607C62.7433 101.85 62.3933 101.971 61.992 101.971C61.8707 101.971 61.7493 101.962 61.628 101.943C61.516 101.934 61.4227 101.911 61.348 101.873V100.949C61.404 100.968 61.4647 100.982 61.53 100.991C61.5953 101.001 61.6607 101.005 61.726 101.005C61.9313 101.005 62.118 100.921 62.286 100.753C62.454 100.585 62.6033 100.329 62.734 99.9834C62.874 99.6381 63 99.2041 63.112 98.6814C63.224 98.1494 63.322 97.5241 63.406 96.8054C63.49 96.0868 63.5647 95.2748 63.63 94.3694H68.152V101.873ZM73.4318 94.2294C74.0758 94.2294 74.6264 94.3694 75.0838 94.6494C75.5504 94.9294 75.9051 95.3261 76.1478 95.8394C76.3998 96.3434 76.5258 96.9361 76.5258 97.6174V98.3594H71.3878C71.4064 99.2088 71.6211 99.8574 72.0318 100.305C72.4518 100.744 73.0351 100.963 73.7818 100.963C74.2578 100.963 74.6778 100.921 75.0418 100.837C75.4151 100.744 75.7978 100.613 76.1898 100.445V101.523C75.8071 101.691 75.4291 101.813 75.0558 101.887C74.6824 101.971 74.2391 102.013 73.7258 102.013C73.0164 102.013 72.3864 101.869 71.8358 101.579C71.2944 101.29 70.8698 100.861 70.5618 100.291C70.2631 99.7128 70.1138 99.0081 70.1138 98.1774C70.1138 97.3561 70.2491 96.6514 70.5198 96.0634C70.7998 95.4754 71.1871 95.0228 71.6818 94.7054C72.1858 94.3881 72.7691 94.2294 73.4318 94.2294ZM73.4178 95.2374C72.8298 95.2374 72.3631 95.4288 72.0178 95.8114C71.6818 96.1848 71.4811 96.7074 71.4158 97.3794H75.2378C75.2378 96.9501 75.1724 96.5768 75.0418 96.2594C74.9111 95.9421 74.7104 95.6948 74.4398 95.5174C74.1784 95.3308 73.8378 95.2374 73.4178 95.2374ZM79.6681 94.3694V97.4914H83.7421V94.3694H84.9741V101.873H83.7421V98.5274H79.6681V101.873H78.4361V94.3694H79.6681ZM88.5822 94.3694V97.4914H92.6562V94.3694H93.8882V101.873H92.6562V98.5274H88.5822V101.873H87.3502V94.3694H88.5822ZM99.1062 94.2434C100.021 94.2434 100.698 94.4441 101.136 94.8454C101.575 95.2468 101.794 95.8861 101.794 96.7634V101.873H100.898L100.66 100.809H100.604C100.39 101.08 100.166 101.309 99.9322 101.495C99.7082 101.673 99.4469 101.803 99.1482 101.887C98.8589 101.971 98.5042 102.013 98.0842 102.013C97.6362 102.013 97.2302 101.934 96.8662 101.775C96.5116 101.617 96.2316 101.374 96.0262 101.047C95.8209 100.711 95.7182 100.291 95.7182 99.7874C95.7182 99.0408 96.0122 98.4668 96.6002 98.0654C97.1882 97.6548 98.0936 97.4308 99.3162 97.3934L100.59 97.3514V96.9034C100.59 96.2781 100.455 95.8441 100.184 95.6014C99.9136 95.3588 99.5309 95.2374 99.0362 95.2374C98.6442 95.2374 98.2709 95.2981 97.9162 95.4194C97.5616 95.5314 97.2302 95.6621 96.9222 95.8114L96.5442 94.8874C96.8709 94.7101 97.2582 94.5608 97.7062 94.4394C98.1542 94.3088 98.6209 94.2434 99.1062 94.2434ZM99.4702 98.2474C98.5369 98.2848 97.8882 98.4341 97.5242 98.6954C97.1696 98.9568 96.9922 99.3254 96.9922 99.8014C96.9922 100.221 97.1182 100.529 97.3702 100.725C97.6316 100.921 97.9629 101.019 98.3642 101.019C98.9989 101.019 99.5262 100.847 99.9462 100.501C100.366 100.147 100.576 99.6054 100.576 98.8774V98.2054L99.4702 98.2474ZM104.574 101.873H103.146L105.288 98.7234C104.999 98.6488 104.719 98.5321 104.448 98.3734C104.177 98.2054 103.958 97.9768 103.79 97.6874C103.622 97.3888 103.538 97.0201 103.538 96.5814C103.538 95.8628 103.781 95.3168 104.266 94.9434C104.751 94.5608 105.395 94.3694 106.198 94.3694H109.558V101.873H108.326V98.8914H106.506L104.574 101.873ZM104.728 96.5954C104.728 97.0248 104.887 97.3468 105.204 97.5614C105.531 97.7668 105.983 97.8694 106.562 97.8694H108.326V95.3914H106.324C105.755 95.3914 105.344 95.5034 105.092 95.7274C104.849 95.9514 104.728 96.2408 104.728 96.5954ZM118.233 94.2434C119.148 94.2434 119.825 94.4441 120.263 94.8454C120.702 95.2468 120.921 95.8861 120.921 96.7634V101.873H120.025L119.787 100.809H119.731C119.517 101.08 119.293 101.309 119.059 101.495C118.835 101.673 118.574 101.803 118.275 101.887C117.986 101.971 117.631 102.013 117.211 102.013C116.763 102.013 116.357 101.934 115.993 101.775C115.639 101.617 115.359 101.374 115.153 101.047C114.948 100.711 114.845 100.291 114.845 99.7874C114.845 99.0408 115.139 98.4668 115.727 98.0654C116.315 97.6548 117.221 97.4308 118.443 97.3934L119.717 97.3514V96.9034C119.717 96.2781 119.582 95.8441 119.311 95.6014C119.041 95.3588 118.658 95.2374 118.163 95.2374C117.771 95.2374 117.398 95.2981 117.043 95.4194C116.689 95.5314 116.357 95.6621 116.049 95.8114L115.671 94.8874C115.998 94.7101 116.385 94.5608 116.833 94.4394C117.281 94.3088 117.748 94.2434 118.233 94.2434ZM118.597 98.2474C117.664 98.2848 117.015 98.4341 116.651 98.6954C116.297 98.9568 116.119 99.3254 116.119 99.8014C116.119 100.221 116.245 100.529 116.497 100.725C116.759 100.921 117.09 101.019 117.491 101.019C118.126 101.019 118.653 100.847 119.073 100.501C119.493 100.147 119.703 99.6054 119.703 98.8774V98.2054L118.597 98.2474ZM129.273 96.2594C129.273 96.7261 129.133 97.0901 128.853 97.3514C128.573 97.6128 128.213 97.7901 127.775 97.8834V97.9394C128.241 98.0048 128.647 98.1728 128.993 98.4434C129.338 98.7048 129.511 99.1154 129.511 99.6754C129.511 99.9928 129.45 100.287 129.329 100.557C129.217 100.828 129.039 101.061 128.797 101.257C128.554 101.453 128.241 101.607 127.859 101.719C127.476 101.822 127.014 101.873 126.473 101.873H123.239V94.3694H126.459C126.991 94.3694 127.467 94.4301 127.887 94.5514C128.316 94.6634 128.652 94.8594 128.895 95.1394C129.147 95.4101 129.273 95.7834 129.273 96.2594ZM128.237 99.6754C128.237 99.2461 128.073 98.9381 127.747 98.7514C127.42 98.5648 126.939 98.4714 126.305 98.4714H124.471V100.879H126.333C126.949 100.879 127.42 100.791 127.747 100.613C128.073 100.427 128.237 100.114 128.237 99.6754ZM128.027 96.4134C128.027 96.0588 127.896 95.8021 127.635 95.6434C127.383 95.4754 126.967 95.3914 126.389 95.3914H124.471V97.4494H126.165C126.771 97.4494 127.233 97.3654 127.551 97.1974C127.868 97.0294 128.027 96.7681 128.027 96.4134ZM136.485 95.4054H134.035V101.873H132.817V95.4054H130.395V94.3694H136.485V95.4054ZM144.351 98.1074C144.351 98.7328 144.267 99.2881 144.099 99.7734C143.94 100.249 143.707 100.655 143.399 100.991C143.1 101.327 142.731 101.584 142.293 101.761C141.863 101.929 141.383 102.013 140.851 102.013C140.356 102.013 139.899 101.929 139.479 101.761C139.059 101.584 138.695 101.327 138.387 100.991C138.079 100.655 137.836 100.249 137.659 99.7734C137.491 99.2881 137.407 98.7328 137.407 98.1074C137.407 97.2768 137.547 96.5768 137.827 96.0074C138.107 95.4288 138.508 94.9901 139.031 94.6914C139.553 94.3834 140.174 94.2294 140.893 94.2294C141.574 94.2294 142.171 94.3834 142.685 94.6914C143.207 94.9901 143.613 95.4288 143.903 96.0074C144.201 96.5768 144.351 97.2768 144.351 98.1074ZM138.681 98.1074C138.681 98.6954 138.755 99.2088 138.905 99.6474C139.063 100.077 139.306 100.408 139.633 100.641C139.959 100.875 140.375 100.991 140.879 100.991C141.383 100.991 141.798 100.875 142.125 100.641C142.451 100.408 142.689 100.077 142.839 99.6474C142.997 99.2088 143.077 98.6954 143.077 98.1074C143.077 97.5101 142.997 97.0014 142.839 96.5814C142.68 96.1614 142.437 95.8394 142.111 95.6154C141.793 95.3821 141.378 95.2654 140.865 95.2654C140.099 95.2654 139.544 95.5174 139.199 96.0214C138.853 96.5254 138.681 97.2208 138.681 98.1074ZM154.353 94.3694V101.873H153.247V97.0854C153.247 96.8894 153.252 96.6841 153.261 96.4694C153.28 96.2548 153.299 96.0448 153.317 95.8394H153.275L150.825 101.873H149.789L147.409 95.8394H147.367C147.386 96.0448 147.395 96.2548 147.395 96.4694C147.405 96.6841 147.409 96.9034 147.409 97.1274V101.873H146.303V94.3694H147.941L150.307 100.403L152.715 94.3694H154.353ZM159.591 94.2434C160.505 94.2434 161.182 94.4441 161.621 94.8454C162.059 95.2468 162.279 95.8861 162.279 96.7634V101.873H161.383L161.145 100.809H161.089C160.874 101.08 160.65 101.309 160.417 101.495C160.193 101.673 159.931 101.803 159.633 101.887C159.343 101.971 158.989 102.013 158.569 102.013C158.121 102.013 157.715 101.934 157.351 101.775C156.996 101.617 156.716 101.374 156.511 101.047C156.305 100.711 156.203 100.291 156.203 99.7874C156.203 99.0408 156.497 98.4668 157.085 98.0654C157.673 97.6548 158.578 97.4308 159.801 97.3934L161.075 97.3514V96.9034C161.075 96.2781 160.939 95.8441 160.669 95.6014C160.398 95.3588 160.015 95.2374 159.521 95.2374C159.129 95.2374 158.755 95.2981 158.401 95.4194C158.046 95.5314 157.715 95.6621 157.407 95.8114L157.029 94.8874C157.355 94.7101 157.743 94.5608 158.191 94.4394C158.639 94.3088 159.105 94.2434 159.591 94.2434ZM159.955 98.2474C159.021 98.2848 158.373 98.4341 158.009 98.6954C157.654 98.9568 157.477 99.3254 157.477 99.8014C157.477 100.221 157.603 100.529 157.855 100.725C158.116 100.921 158.447 101.019 158.849 101.019C159.483 101.019 160.011 100.847 160.431 100.501C160.851 100.147 161.061 99.6054 161.061 98.8774V98.2054L159.955 98.2474ZM169.776 95.4054H167.326V101.873H166.108V95.4054H163.686V94.3694H169.776V95.4054ZM172.416 98.9474C172.416 99.0314 172.412 99.1528 172.402 99.3114C172.402 99.4608 172.398 99.6241 172.388 99.8014C172.379 99.9694 172.37 100.133 172.36 100.291C172.351 100.441 172.342 100.562 172.332 100.655L176.35 94.3694H177.862V101.873H176.714V97.4494C176.714 97.3001 176.714 97.1041 176.714 96.8614C176.724 96.6188 176.733 96.3808 176.742 96.1474C176.752 95.9048 176.761 95.7228 176.77 95.6014L172.78 101.873H171.254V94.3694H172.416V98.9474ZM184.689 94.3694H186.033L182.827 97.9814L186.299 101.873H184.871L181.483 98.0654V101.873H180.251V94.3694H181.483V98.0094L184.689 94.3694ZM190.503 94.2434C191.417 94.2434 192.094 94.4441 192.533 94.8454C192.971 95.2468 193.191 95.8861 193.191 96.7634V101.873H192.295L192.057 100.809H192.001C191.786 101.08 191.562 101.309 191.329 101.495C191.105 101.673 190.843 101.803 190.545 101.887C190.255 101.971 189.901 102.013 189.481 102.013C189.033 102.013 188.627 101.934 188.263 101.775C187.908 101.617 187.628 101.374 187.423 101.047C187.217 100.711 187.115 100.291 187.115 99.7874C187.115 99.0408 187.409 98.4668 187.997 98.0654C188.585 97.6548 189.49 97.4308 190.713 97.3934L191.987 97.3514V96.9034C191.987 96.2781 191.851 95.8441 191.581 95.6014C191.31 95.3588 190.927 95.2374 190.433 95.2374C190.041 95.2374 189.667 95.2981 189.313 95.4194C188.958 95.5314 188.627 95.6621 188.319 95.8114L187.941 94.8874C188.267 94.7101 188.655 94.5608 189.103 94.4394C189.551 94.3088 190.017 94.2434 190.503 94.2434ZM190.867 98.2474C189.933 98.2848 189.285 98.4341 188.921 98.6954C188.566 98.9568 188.389 99.3254 188.389 99.8014C188.389 100.221 188.515 100.529 188.767 100.725C189.028 100.921 189.359 101.019 189.761 101.019C190.395 101.019 190.923 100.847 191.343 100.501C191.763 100.147 191.973 99.6054 191.973 98.8774V98.2054L190.867 98.2474ZM2.352 114.947C2.352 115.031 2.34733 115.153 2.338 115.311C2.338 115.461 2.33333 115.624 2.324 115.801C2.31467 115.969 2.30533 116.133 2.296 116.291C2.28667 116.441 2.27733 116.562 2.268 116.655L6.286 110.369H7.798V117.873H6.65V113.449C6.65 113.3 6.65 113.104 6.65 112.861C6.65933 112.619 6.66867 112.381 6.678 112.147C6.68733 111.905 6.69667 111.723 6.706 111.601L2.716 117.873H1.19V110.369H2.352V114.947ZM14.8491 118.013C14.4197 118.013 14.0464 117.976 13.7291 117.901C13.4211 117.836 13.1317 117.738 12.8611 117.607V116.543C13.1411 116.655 13.4444 116.753 13.7711 116.837C14.0977 116.921 14.4664 116.963 14.8771 116.963C15.3624 116.963 15.7824 116.879 16.1371 116.711C16.4917 116.534 16.7717 116.263 16.9771 115.899C17.1824 115.535 17.2991 115.073 17.3271 114.513H13.6311V113.505H17.3131C17.2477 112.74 17.0284 112.18 16.6551 111.825C16.2911 111.471 15.7544 111.293 15.0451 111.293C14.7744 111.293 14.4757 111.331 14.1491 111.405C13.8317 111.48 13.5471 111.564 13.2951 111.657L12.9451 110.663C13.2157 110.542 13.5377 110.439 13.9111 110.355C14.2844 110.271 14.6577 110.229 15.0311 110.229C15.7311 110.229 16.3471 110.36 16.8791 110.621C17.4204 110.883 17.8404 111.298 18.1391 111.867C18.4471 112.437 18.6011 113.188 18.6011 114.121C18.6011 115.008 18.4377 115.741 18.1111 116.319C17.7937 116.898 17.3504 117.327 16.7811 117.607C16.2211 117.878 15.5771 118.013 14.8491 118.013ZM26.275 117.873H25.029V111.391H22.817C22.7237 112.577 22.607 113.589 22.467 114.429C22.327 115.26 22.1497 115.937 21.935 116.459C21.7204 116.982 21.4637 117.365 21.165 117.607C20.8664 117.85 20.5164 117.971 20.115 117.971C19.9937 117.971 19.8724 117.962 19.751 117.943C19.639 117.934 19.5457 117.911 19.471 117.873V116.949C19.527 116.968 19.5877 116.982 19.653 116.991C19.7184 117.001 19.7837 117.005 19.849 117.005C20.0544 117.005 20.241 116.921 20.409 116.753C20.577 116.585 20.7264 116.329 20.857 115.983C20.997 115.638 21.123 115.204 21.235 114.681C21.347 114.149 21.445 113.524 21.529 112.805C21.613 112.087 21.6877 111.275 21.753 110.369H26.275V117.873ZM31.5548 110.229C32.1988 110.229 32.7495 110.369 33.2068 110.649C33.6735 110.929 34.0281 111.326 34.2708 111.839C34.5228 112.343 34.6488 112.936 34.6488 113.617V114.359H29.5108C29.5295 115.209 29.7441 115.857 30.1548 116.305C30.5748 116.744 31.1581 116.963 31.9048 116.963C32.3808 116.963 32.8008 116.921 33.1648 116.837C33.5381 116.744 33.9208 116.613 34.3128 116.445V117.523C33.9301 117.691 33.5521 117.813 33.1788 117.887C32.8055 117.971 32.3621 118.013 31.8488 118.013C31.1395 118.013 30.5095 117.869 29.9588 117.579C29.4175 117.29 28.9928 116.861 28.6848 116.291C28.3861 115.713 28.2368 115.008 28.2368 114.177C28.2368 113.356 28.3721 112.651 28.6428 112.063C28.9228 111.475 29.3101 111.023 29.8048 110.705C30.3088 110.388 30.8921 110.229 31.5548 110.229ZM31.5408 111.237C30.9528 111.237 30.4861 111.429 30.1408 111.811C29.8048 112.185 29.6041 112.707 29.5388 113.379H33.3608C33.3608 112.95 33.2955 112.577 33.1648 112.259C33.0341 111.942 32.8335 111.695 32.5628 111.517C32.3015 111.331 31.9608 111.237 31.5408 111.237ZM40.9971 110.369H42.3411L39.1351 113.981L42.6071 117.873H41.1791L37.7911 114.065V117.873H36.5591V110.369H37.7911V114.009L40.9971 110.369ZM49.1493 111.405H46.6993V117.873H45.4813V111.405H43.0593V110.369H49.1493V111.405ZM54.1975 110.229C55.1215 110.229 55.8635 110.551 56.4235 111.195C56.9928 111.839 57.2775 112.81 57.2775 114.107C57.2775 114.957 57.1468 115.675 56.8855 116.263C56.6335 116.842 56.2742 117.281 55.8075 117.579C55.3502 117.869 54.8088 118.013 54.1835 118.013C53.8008 118.013 53.4602 117.962 53.1615 117.859C52.8628 117.757 52.6062 117.626 52.3915 117.467C52.1862 117.299 52.0088 117.117 51.8595 116.921H51.7755C51.7942 117.08 51.8128 117.281 51.8315 117.523C51.8502 117.766 51.8595 117.976 51.8595 118.153V121.233H50.6275V110.369H51.6355L51.8035 111.391H51.8595C52.0088 111.177 52.1862 110.981 52.3915 110.803C52.6062 110.626 52.8582 110.486 53.1475 110.383C53.4462 110.281 53.7962 110.229 54.1975 110.229ZM53.9735 111.265C53.4695 111.265 53.0635 111.363 52.7555 111.559C52.4475 111.746 52.2235 112.031 52.0835 112.413C51.9435 112.796 51.8688 113.281 51.8595 113.869V114.107C51.8595 114.723 51.9248 115.246 52.0555 115.675C52.1862 116.105 52.4055 116.431 52.7135 116.655C53.0308 116.879 53.4602 116.991 54.0015 116.991C54.4588 116.991 54.8322 116.865 55.1215 116.613C55.4202 116.361 55.6395 116.021 55.7795 115.591C55.9288 115.153 56.0035 114.653 56.0035 114.093C56.0035 113.235 55.8355 112.549 55.4995 112.035C55.1728 111.522 54.6642 111.265 53.9735 111.265ZM65.7648 114.107C65.7648 114.733 65.6808 115.288 65.5128 115.773C65.3541 116.249 65.1208 116.655 64.8128 116.991C64.5141 117.327 64.1454 117.584 63.7068 117.761C63.2774 117.929 62.7968 118.013 62.2648 118.013C61.7701 118.013 61.3128 117.929 60.8928 117.761C60.4728 117.584 60.1088 117.327 59.8008 116.991C59.4928 116.655 59.2501 116.249 59.0728 115.773C58.9048 115.288 58.8208 114.733 58.8208 114.107C58.8208 113.277 58.9608 112.577 59.2408 112.007C59.5208 111.429 59.9221 110.99 60.4448 110.691C60.9674 110.383 61.5881 110.229 62.3068 110.229C62.9881 110.229 63.5854 110.383 64.0988 110.691C64.6214 110.99 65.0274 111.429 65.3168 112.007C65.6154 112.577 65.7648 113.277 65.7648 114.107ZM60.0948 114.107C60.0948 114.695 60.1694 115.209 60.3188 115.647C60.4774 116.077 60.7201 116.408 61.0468 116.641C61.3734 116.875 61.7888 116.991 62.2928 116.991C62.7968 116.991 63.2121 116.875 63.5388 116.641C63.8654 116.408 64.1034 116.077 64.2528 115.647C64.4114 115.209 64.4908 114.695 64.4908 114.107C64.4908 113.51 64.4114 113.001 64.2528 112.581C64.0941 112.161 63.8514 111.839 63.5248 111.615C63.2074 111.382 62.7921 111.265 62.2788 111.265C61.5134 111.265 60.9581 111.517 60.6128 112.021C60.2674 112.525 60.0948 113.221 60.0948 114.107ZM68.9213 118.013C68.492 118.013 68.1187 117.976 67.8013 117.901C67.4933 117.836 67.204 117.738 66.9333 117.607V116.543C67.2133 116.655 67.5167 116.753 67.8433 116.837C68.17 116.921 68.5387 116.963 68.9493 116.963C69.4347 116.963 69.8547 116.879 70.2093 116.711C70.564 116.534 70.844 116.263 71.0493 115.899C71.2547 115.535 71.3713 115.073 71.3993 114.513H67.7033V113.505H71.3853C71.32 112.74 71.1007 112.18 70.7273 111.825C70.3633 111.471 69.8267 111.293 69.1173 111.293C68.8467 111.293 68.548 111.331 68.2213 111.405C67.904 111.48 67.6193 111.564 67.3673 111.657L67.0173 110.663C67.288 110.542 67.61 110.439 67.9833 110.355C68.3567 110.271 68.73 110.229 69.1033 110.229C69.8033 110.229 70.4193 110.36 70.9513 110.621C71.4927 110.883 71.9127 111.298 72.2113 111.867C72.5193 112.437 72.6733 113.188 72.6733 114.121C72.6733 115.008 72.51 115.741 72.1833 116.319C71.866 116.898 71.4227 117.327 70.8533 117.607C70.2933 117.878 69.6493 118.013 68.9213 118.013ZM75.8673 110.369V113.491H79.9413V110.369H81.1733V117.873H79.9413V114.527H75.8673V117.873H74.6353V110.369H75.8673ZM86.4474 110.229C87.0914 110.229 87.642 110.369 88.0994 110.649C88.566 110.929 88.9207 111.326 89.1634 111.839C89.4154 112.343 89.5414 112.936 89.5414 113.617V114.359H84.4034C84.422 115.209 84.6367 115.857 85.0474 116.305C85.4674 116.744 86.0507 116.963 86.7974 116.963C87.2734 116.963 87.6934 116.921 88.0574 116.837C88.4307 116.744 88.8134 116.613 89.2054 116.445V117.523C88.8227 117.691 88.4447 117.813 88.0714 117.887C87.698 117.971 87.2547 118.013 86.7414 118.013C86.032 118.013 85.402 117.869 84.8514 117.579C84.31 117.29 83.8854 116.861 83.5774 116.291C83.2787 115.713 83.1294 115.008 83.1294 114.177C83.1294 113.356 83.2647 112.651 83.5354 112.063C83.8154 111.475 84.2027 111.023 84.6974 110.705C85.2014 110.388 85.7847 110.229 86.4474 110.229ZM86.4334 111.237C85.8454 111.237 85.3787 111.429 85.0334 111.811C84.6974 112.185 84.4967 112.707 84.4314 113.379H88.2534C88.2534 112.95 88.188 112.577 88.0574 112.259C87.9267 111.942 87.726 111.695 87.4554 111.517C87.194 111.331 86.8534 111.237 86.4334 111.237ZM95.0217 110.229C95.9457 110.229 96.6877 110.551 97.2477 111.195C97.8171 111.839 98.1017 112.81 98.1017 114.107C98.1017 114.957 97.9711 115.675 97.7097 116.263C97.4577 116.842 97.0984 117.281 96.6317 117.579C96.1744 117.869 95.6331 118.013 95.0077 118.013C94.6251 118.013 94.2844 117.962 93.9857 117.859C93.6871 117.757 93.4304 117.626 93.2157 117.467C93.0104 117.299 92.8331 117.117 92.6837 116.921H92.5997C92.6184 117.08 92.6371 117.281 92.6557 117.523C92.6744 117.766 92.6837 117.976 92.6837 118.153V121.233H91.4517V110.369H92.4597L92.6277 111.391H92.6837C92.8331 111.177 93.0104 110.981 93.2157 110.803C93.4304 110.626 93.6824 110.486 93.9717 110.383C94.2704 110.281 94.6204 110.229 95.0217 110.229ZM94.7977 111.265C94.2937 111.265 93.8877 111.363 93.5797 111.559C93.2717 111.746 93.0477 112.031 92.9077 112.413C92.7677 112.796 92.6931 113.281 92.6837 113.869V114.107C92.6837 114.723 92.7491 115.246 92.8797 115.675C93.0104 116.105 93.2297 116.431 93.5377 116.655C93.8551 116.879 94.2844 116.991 94.8257 116.991C95.2831 116.991 95.6564 116.865 95.9457 116.613C96.2444 116.361 96.4637 116.021 96.6037 115.591C96.7531 115.153 96.8277 114.653 96.8277 114.093C96.8277 113.235 96.6597 112.549 96.3237 112.035C95.9971 111.522 95.4884 111.265 94.7977 111.265ZM104.643 110.369V111.405H101.297V117.873H100.065V110.369H104.643ZM108.883 110.229C109.527 110.229 110.078 110.369 110.535 110.649C111.002 110.929 111.356 111.326 111.599 111.839C111.851 112.343 111.977 112.936 111.977 113.617V114.359H106.839C106.858 115.209 107.072 115.857 107.483 116.305C107.903 116.744 108.486 116.963 109.233 116.963C109.709 116.963 110.129 116.921 110.493 116.837C110.866 116.744 111.249 116.613 111.641 116.445V117.523C111.258 117.691 110.88 117.813 110.507 117.887C110.134 117.971 109.69 118.013 109.177 118.013C108.468 118.013 107.838 117.869 107.287 117.579C106.746 117.29 106.321 116.861 106.013 116.291C105.714 115.713 105.565 115.008 105.565 114.177C105.565 113.356 105.7 112.651 105.971 112.063C106.251 111.475 106.638 111.023 107.133 110.705C107.637 110.388 108.22 110.229 108.883 110.229ZM108.869 111.237C108.281 111.237 107.814 111.429 107.469 111.811C107.133 112.185 106.932 112.707 106.867 113.379H110.689C110.689 112.95 110.624 112.577 110.493 112.259C110.362 111.942 110.162 111.695 109.891 111.517C109.63 111.331 109.289 111.237 108.869 111.237ZM119.067 111.405H116.617V117.873H115.399V111.405H112.977V110.369H119.067V111.405ZM121.707 114.947C121.707 115.031 121.703 115.153 121.693 115.311C121.693 115.461 121.689 115.624 121.679 115.801C121.67 115.969 121.661 116.133 121.651 116.291C121.642 116.441 121.633 116.562 121.623 116.655L125.641 110.369H127.153V117.873H126.005V113.449C126.005 113.3 126.005 113.104 126.005 112.861C126.015 112.619 126.024 112.381 126.033 112.147C126.043 111.905 126.052 111.723 126.061 111.601L122.071 117.873H120.545V110.369H121.707V114.947ZM133.98 110.369H135.324L132.118 113.981L135.59 117.873H134.162L130.774 114.065V117.873H129.542V110.369H130.774V114.009L133.98 110.369ZM139.794 110.243C140.708 110.243 141.385 110.444 141.824 110.845C142.262 111.247 142.482 111.886 142.482 112.763V117.873H141.586L141.348 116.809H141.292C141.077 117.08 140.853 117.309 140.62 117.495C140.396 117.673 140.134 117.803 139.836 117.887C139.546 117.971 139.192 118.013 138.772 118.013C138.324 118.013 137.918 117.934 137.554 117.775C137.199 117.617 136.919 117.374 136.714 117.047C136.508 116.711 136.406 116.291 136.406 115.787C136.406 115.041 136.7 114.467 137.288 114.065C137.876 113.655 138.781 113.431 140.004 113.393L141.278 113.351V112.903C141.278 112.278 141.142 111.844 140.872 111.601C140.601 111.359 140.218 111.237 139.724 111.237C139.332 111.237 138.958 111.298 138.604 111.419C138.249 111.531 137.918 111.662 137.61 111.811L137.232 110.887C137.558 110.71 137.946 110.561 138.394 110.439C138.842 110.309 139.308 110.243 139.794 110.243ZM140.158 114.247C139.224 114.285 138.576 114.434 138.212 114.695C137.857 114.957 137.68 115.325 137.68 115.801C137.68 116.221 137.806 116.529 138.058 116.725C138.319 116.921 138.65 117.019 139.052 117.019C139.686 117.019 140.214 116.847 140.634 116.501C141.054 116.147 141.264 115.605 141.264 114.877V114.205L140.158 114.247Z" fill="white"/>
<path d="M26.3453 71.4043C18.0606 71.4043 11.5985 69.0293 6.95913 64.2794C2.31971 59.5296 0 53.1227 0 45.059C0 37.9894 2.31971 32.1901 6.95913 27.6612C11.709 23.1322 17.7844 20.8677 25.1854 20.8677C32.3655 20.8677 38.1095 22.9665 42.4175 27.1641C46.7256 31.2512 48.8796 36.3325 48.8796 42.4079C48.8796 44.8381 48.2168 46.6607 46.8913 47.8758C45.6762 49.0909 44.0745 49.6984 42.0861 49.6984H13.2555C12.1509 49.6984 11.7642 50.3059 12.0956 51.521C12.9793 54.614 14.7467 57.0441 17.3978 58.8115C20.1594 60.4685 23.2523 61.2969 26.6767 61.2969C29.2173 61.2969 31.6475 60.9656 33.9672 60.3028C36.3973 59.64 38.4961 58.6459 40.2635 57.3203C40.8158 56.8785 41.5338 56.6575 42.4175 56.6575C43.6326 56.6575 44.7372 57.2098 45.7314 58.3145C46.7256 59.3086 47.2226 60.5237 47.2226 61.9597C47.2226 62.6225 47.1122 63.2853 46.8913 63.948C46.6703 64.6108 46.1733 65.2736 45.4 65.9364C42.528 68.0351 39.4351 69.4712 36.1212 70.2444C32.9178 71.0176 29.6591 71.4043 26.3453 71.4043ZM35.9555 41.0823C36.6183 41.0823 36.9497 40.751 36.9497 40.0882C36.9497 37.5475 35.7898 35.3383 33.4701 33.4604C31.2608 31.5826 28.4993 30.6436 25.1854 30.6436C22.3134 30.6436 19.5518 31.4169 16.9007 32.9634C14.3601 34.5098 12.8136 36.5534 12.2613 39.094C12.2613 39.094 12.2613 39.1492 12.2613 39.2597C12.1509 39.7016 12.0956 40.0882 12.0956 40.4196C12.2061 40.751 12.7032 40.9166 13.5869 40.9166L35.9555 41.0823Z" fill="white"/>
<path d="M78.3666 71.4043C76.7096 71.4043 75.1631 71.0176 73.7271 70.2444C72.2911 69.5816 71.2417 68.5322 70.5789 67.0962L54.1753 28.4896C53.9544 27.6059 53.8439 26.9432 53.8439 26.5013C53.8439 24.7339 54.4515 23.3531 55.6665 22.359C56.8816 21.3648 58.2072 20.8677 59.6432 20.8677C60.6373 20.8677 61.5763 21.1439 62.46 21.6962C63.4541 22.2485 64.1721 23.1322 64.614 24.3473L76.2125 54.3378C76.7648 55.4424 77.4829 55.9948 78.3666 55.9948C79.4712 55.9948 80.1892 55.4424 80.5206 54.3378L91.9534 24.3473C92.3953 23.1322 93.058 22.2485 93.9417 21.6962C94.9359 21.1439 95.9301 20.8677 96.9242 20.8677C98.4707 20.8677 99.7962 21.3648 100.901 22.359C102.116 23.3531 102.723 24.6787 102.723 26.3356C102.723 26.8879 102.613 27.6059 102.392 28.4896L86.1541 67.0962C85.4914 68.5322 84.442 69.5816 83.006 70.2444C81.57 71.0176 80.0235 71.4043 78.3666 71.4043Z" fill="white"/>
<path d="M132.493 71.4043C124.208 71.4043 117.746 69.0293 113.107 64.2794C108.467 59.5296 106.147 53.1227 106.147 45.059C106.147 37.9894 108.467 32.1901 113.107 27.6612C117.856 23.1322 123.932 20.8677 131.333 20.8677C138.513 20.8677 144.257 22.9665 148.565 27.1641C152.873 31.2512 155.027 36.3325 155.027 42.4079C155.027 44.8381 154.364 46.6607 153.039 47.8758C151.824 49.0909 150.222 49.6984 148.234 49.6984H119.403C118.298 49.6984 117.912 50.3059 118.243 51.521C119.127 54.614 120.894 57.0441 123.545 58.8115C126.307 60.4685 129.4 61.2969 132.824 61.2969C135.365 61.2969 137.795 60.9656 140.115 60.3028C142.545 59.64 144.644 58.6459 146.411 57.3203C146.963 56.8785 147.681 56.6575 148.565 56.6575C149.78 56.6575 150.885 57.2098 151.879 58.3145C152.873 59.3086 153.37 60.5237 153.37 61.9597C153.37 62.6225 153.26 63.2853 153.039 63.948C152.818 64.6108 152.321 65.2736 151.547 65.9364C148.675 68.0351 145.582 69.4712 142.269 70.2444C139.065 71.0176 135.807 71.4043 132.493 71.4043ZM142.103 41.0823C142.766 41.0823 143.097 40.751 143.097 40.0882C143.097 37.5475 141.937 35.3383 139.617 33.4604C137.408 31.5826 134.647 30.6436 131.333 30.6436C128.461 30.6436 125.699 31.4169 123.048 32.9634C120.507 34.5098 118.961 36.5534 118.409 39.094C118.409 39.094 118.409 39.1492 118.409 39.2597C118.298 39.7016 118.243 40.0882 118.243 40.4196C118.353 40.751 118.851 40.9166 119.734 40.9166L142.103 41.0823Z" fill="white"/>
<path d="M176.229 45.2247V66.2678C176.229 67.9247 175.622 69.195 174.407 70.0787C173.302 70.9624 172.032 71.4043 170.596 71.4043C169.16 71.4043 167.834 70.9624 166.619 70.0787C165.514 69.195 164.962 67.9247 164.962 66.2678V27.3298C164.962 25.4519 165.514 24.0711 166.619 23.1874C167.834 22.1933 169.16 21.6962 170.596 21.6962C172.032 21.6962 173.302 22.1933 174.407 23.1874C175.622 24.0711 176.229 25.4519 176.229 27.3298V27.9926C177.776 25.8938 179.764 24.1816 182.194 22.8561C184.735 21.5305 187.386 20.8677 190.148 20.8677C191.473 20.8677 192.799 21.0334 194.124 21.3648C195.45 21.6962 196.444 22.359 197.107 23.3531C197.769 24.3473 198.101 25.4519 198.101 26.667C198.101 28.103 197.604 29.4286 196.61 30.6436C195.726 31.7483 194.4 32.3006 192.633 32.3006C191.86 32.3006 191.031 32.1901 190.148 31.9692C189.374 31.7483 188.38 31.6378 187.165 31.6378C183.962 31.6378 181.311 32.8529 179.212 35.2831C177.223 37.7132 176.229 41.0271 176.229 45.2247Z" fill="white"/>
<path d="M330.442 71.4042C329.006 71.4042 327.681 70.9624 326.466 70.0787C325.361 69.195 324.809 67.9247 324.809 66.2677V45.3904C324.809 40.53 323.704 36.94 321.495 34.6203C319.396 32.3006 316.579 31.1407 313.045 31.1407C308.516 31.1407 305.202 32.632 303.103 35.6145C301.115 38.4865 300.12 41.6899 300.12 45.2247V66.2677C300.12 67.9247 299.513 69.195 298.298 70.0787C297.193 70.9624 295.923 71.4042 294.487 71.4042C293.051 71.4042 291.725 70.9624 290.51 70.0787C289.406 69.195 288.853 67.9247 288.853 66.2677V27.3298C288.853 25.4519 289.406 24.0711 290.51 23.1874C291.725 22.1933 293.051 21.6962 294.487 21.6962C295.923 21.6962 297.193 22.1933 298.298 23.1874C299.513 24.0711 300.12 25.4519 300.12 27.3298C301.998 25.4519 304.428 23.9054 307.411 22.6904C310.393 21.4753 313.21 20.8677 315.861 20.8677C322.047 20.8677 326.963 22.8561 330.608 26.8327C334.253 30.8093 336.076 36.6638 336.076 44.3962V66.2677C336.076 67.9247 335.468 69.195 334.253 70.0787C333.038 70.9624 331.768 71.4042 330.442 71.4042Z" fill="white"/>
<path d="M254.42 21.5186C254.42 16.2982 260.47 13.3198 264.561 16.5996L264.563 16.6006C273.188 23.5584 278.725 34.1972 278.725 46.126C278.725 67.9349 260.198 85.5161 238.044 83.9189C219.86 82.6398 205.015 68.2683 203.122 50.1787L203.08 49.75C201.842 36.4325 207.533 24.3669 216.966 16.7041C221.066 13.3713 227.23 16.2146 227.23 21.5186C227.23 23.4714 226.302 25.253 224.821 26.4502H224.822C218.466 31.6289 214.646 39.7919 215.577 48.8066C216.785 60.5435 226.195 70.0496 237.915 71.3555H237.916C253.22 73.0702 266.22 61.0837 266.22 46.126C266.22 38.1927 262.547 31.0903 256.813 26.4346C255.329 25.2348 254.42 23.451 254.42 21.5186ZM242.103 83.2168C241.59 83.2341 241.074 83.2382 240.555 83.2344C241.074 83.2382 241.59 83.2341 242.103 83.2168ZM238.098 83.1396C238.554 83.1725 239.009 83.1935 239.462 83.21C239.009 83.1935 238.554 83.1725 238.098 83.1396ZM242.904 83.1797C242.962 83.1765 243.019 83.1743 243.077 83.1709C243.019 83.1743 242.962 83.1765 242.904 83.1797ZM243.719 83.124C243.836 83.115 243.953 83.1077 244.069 83.0977C243.953 83.1077 243.836 83.115 243.719 83.124ZM246.025 82.876C245.476 82.9531 244.923 83.0156 244.367 83.0684C244.923 83.0156 245.476 82.9531 246.025 82.876ZM246.506 82.8027C246.653 82.7801 246.8 82.7587 246.947 82.7344C246.8 82.7587 246.653 82.7801 246.506 82.8027ZM247.458 82.6436C247.613 82.6154 247.769 82.5887 247.924 82.5586C247.769 82.5887 247.613 82.6154 247.458 82.6436ZM248.358 82.4688C248.523 82.4347 248.687 82.4015 248.851 82.3652C248.687 82.4015 248.523 82.4347 248.358 82.4688ZM249.348 82.249C249.494 82.2148 249.639 82.1824 249.784 82.1465C249.639 82.1824 249.494 82.2148 249.348 82.249ZM250.373 81.9932C250.479 81.9649 250.585 81.9374 250.691 81.9082C250.585 81.9374 250.479 81.9649 250.373 81.9932ZM251.228 81.7539C251.359 81.7155 251.491 81.6785 251.622 81.6387C251.491 81.6785 251.359 81.7155 251.228 81.7539ZM252.089 81.4902C252.236 81.4435 252.383 81.3982 252.529 81.3496C252.383 81.3982 252.236 81.4435 252.089 81.4902ZM252.98 81.1934C253.125 81.143 253.27 81.0941 253.415 81.042C253.27 81.0941 253.125 81.143 252.98 81.1934ZM253.864 80.874C254.012 80.8183 254.16 80.7636 254.307 80.7061C254.16 80.7636 254.012 80.8183 253.864 80.874ZM254.799 80.5078C254.919 80.4592 255.038 80.4121 255.157 80.3623C255.038 80.4121 254.919 80.4592 254.799 80.5078ZM255.628 80.1572C255.769 80.0955 255.911 80.0351 256.051 79.9717C255.911 80.0351 255.769 80.0955 255.628 80.1572ZM256.369 79.8252C256.548 79.7422 256.727 79.659 256.905 79.5732C256.727 79.659 256.548 79.7422 256.369 79.8252ZM257.24 79.4082C257.404 79.327 257.567 79.2456 257.73 79.1621C257.567 79.2456 257.404 79.327 257.24 79.4082ZM258.124 78.9551C258.265 78.8803 258.406 78.806 258.546 78.7295C258.406 78.806 258.265 78.8803 258.124 78.9551ZM258.988 78.4834C259.11 78.4143 259.233 78.3458 259.355 78.2754C259.233 78.3458 259.11 78.4143 258.988 78.4834ZM259.785 78.0215C259.915 77.9439 260.044 77.8662 260.173 77.7871C260.044 77.8662 259.915 77.9439 259.785 78.0215ZM260.471 77.6016C260.643 77.4941 260.814 77.3865 260.984 77.2764C260.814 77.3865 260.643 77.4941 260.471 77.6016ZM261.224 77.1172C261.399 77.0018 261.573 76.8858 261.746 76.7676C261.573 76.8858 261.399 77.0018 261.224 77.1172ZM262.04 76.5625C262.195 76.4538 262.351 76.3454 262.504 76.2344C262.351 76.3454 262.195 76.4538 262.04 76.5625ZM262.806 76.0127C262.949 75.9072 263.092 75.8018 263.234 75.6943C263.092 75.8018 262.949 75.9072 262.806 76.0127ZM263.614 75.4004C263.729 75.3102 263.845 75.2204 263.96 75.1289C263.845 75.2204 263.729 75.3102 263.614 75.4004ZM264.329 74.8281C264.449 74.7296 264.569 74.6313 264.688 74.5312C264.569 74.6313 264.449 74.7296 264.329 74.8281ZM265.004 74.2598C265.132 74.15 265.26 74.0411 265.386 73.9297C265.26 74.0411 265.132 74.15 265.004 74.2598ZM265.756 73.5957C265.856 73.5051 265.956 73.4149 266.055 73.3232C265.956 73.4149 265.856 73.5051 265.756 73.5957ZM266.422 72.9756C266.529 72.8736 266.637 72.7722 266.743 72.6689C266.637 72.7722 266.529 72.8736 266.422 72.9756ZM267.157 72.2568C267.232 72.1809 267.308 72.1049 267.382 72.0283C267.308 72.1049 267.232 72.1809 267.157 72.2568ZM235.19 71.6953C235.787 71.826 236.391 71.9361 237.002 72.0244C236.391 71.9361 235.787 71.826 235.19 71.6953ZM267.786 71.6074C267.871 71.5177 267.956 71.4284 268.04 71.3379C267.956 71.4284 267.871 71.5177 267.786 71.6074ZM268.397 70.9453C268.48 70.8532 268.563 70.7609 268.645 70.668C268.563 70.7609 268.48 70.8532 268.397 70.9453ZM268.999 70.2617C269.088 70.158 269.176 70.054 269.264 69.9492C269.176 70.054 269.088 70.158 268.999 70.2617ZM229.51 69.7314C229.777 69.8603 230.046 69.9856 230.318 70.1055C230.046 69.9856 229.777 69.8603 229.51 69.7314ZM269.557 69.5947C269.657 69.4728 269.757 69.3508 269.855 69.2275C269.757 69.3508 269.657 69.4728 269.557 69.5947ZM270.145 68.8574C270.237 68.7398 270.328 68.6217 270.418 68.5029C270.328 68.6217 270.237 68.7398 270.145 68.8574ZM270.668 68.168C270.777 68.0201 270.886 67.8722 270.994 67.7227C270.886 67.8722 270.777 68.0201 270.668 68.168ZM271.207 67.4209C271.305 67.2807 271.404 67.1406 271.501 66.999C271.404 67.1406 271.305 67.2807 271.207 67.4209ZM271.762 66.6094C271.853 66.4725 271.944 66.3354 272.033 66.1973C271.944 66.3354 271.853 66.4725 271.762 66.6094ZM272.259 65.8408C272.347 65.7019 272.434 65.563 272.52 65.4229C272.434 65.563 272.347 65.7019 272.259 65.8408ZM272.778 64.9932C272.846 64.8777 272.914 64.7617 272.981 64.6455C272.914 64.7617 272.846 64.8777 272.778 64.9932ZM273.214 64.2354C273.298 64.0869 273.38 63.9378 273.462 63.7881C273.38 63.9378 273.298 64.0869 273.214 64.2354ZM273.64 63.4551C273.724 63.2963 273.807 63.1367 273.889 62.9766C273.807 63.1367 273.724 63.2963 273.64 63.4551ZM274.089 62.5781C274.159 62.4388 274.228 62.2995 274.296 62.1592C274.228 62.2995 274.159 62.4388 274.089 62.5781ZM274.537 61.6475C274.584 61.5442 274.632 61.4407 274.678 61.3369C274.632 61.4407 274.584 61.5442 274.537 61.6475ZM218.918 60.4287C219.015 60.577 219.114 60.7239 219.214 60.8701C219.114 60.7239 219.015 60.577 218.918 60.4287ZM274.911 60.8125C274.965 60.6882 275.017 60.5635 275.07 60.4385C275.017 60.5635 274.965 60.6882 274.911 60.8125ZM275.259 59.9766C275.309 59.8537 275.359 59.7309 275.407 59.6074C275.359 59.7309 275.309 59.8537 275.259 59.9766ZM275.648 58.9746C275.677 58.896 275.705 58.8171 275.734 58.7383C275.705 58.8171 275.677 58.896 275.648 58.9746ZM275.915 58.2275C275.967 58.0762 276.019 57.9247 276.07 57.7725C276.019 57.9247 275.967 58.0762 275.915 58.2275ZM276.212 57.3281C276.256 57.192 276.299 57.0557 276.34 56.9189C276.299 57.0557 276.256 57.192 276.212 57.3281ZM276.492 56.4082C276.534 56.262 276.576 56.1157 276.617 55.9688C276.576 56.1157 276.534 56.262 276.492 56.4082ZM276.747 55.4785C276.784 55.3358 276.822 55.1932 276.857 55.0498C276.822 55.1932 276.784 55.3358 276.747 55.4785ZM276.972 54.5645C277.007 54.4172 277.041 54.27 277.074 54.1221C277.041 54.27 277.007 54.4172 276.972 54.5645ZM277.172 53.6562C277.207 53.4912 277.24 53.326 277.272 53.1602C277.24 53.326 277.207 53.4912 277.172 53.6562ZM277.358 52.6973C277.386 52.54 277.414 52.3825 277.44 52.2246C277.414 52.3825 277.386 52.54 277.358 52.6973ZM277.516 51.7422C277.539 51.5927 277.562 51.443 277.583 51.293C277.562 51.443 277.539 51.5927 277.516 51.7422ZM277.653 50.7617C277.67 50.6217 277.687 50.4813 277.703 50.3408C277.687 50.4813 277.67 50.6217 277.653 50.7617ZM277.765 49.75C277.777 49.632 277.787 49.5138 277.797 49.3955C277.787 49.5138 277.777 49.632 277.765 49.75ZM203.693 46.0781C203.691 47.2658 203.745 48.4664 203.858 49.6777C203.745 48.4664 203.691 47.2658 203.693 46.0781ZM277.846 48.7871C277.855 48.6626 277.863 48.5379 277.871 48.4131C277.863 48.5379 277.855 48.6626 277.846 48.7871ZM277.903 47.8105C277.909 47.6756 277.914 47.5406 277.919 47.4053C277.914 47.5406 277.909 47.6756 277.903 47.8105ZM277.934 46.8467C277.936 46.7733 277.939 46.6995 277.94 46.626L277.944 46.127C277.944 46.3674 277.939 46.6073 277.934 46.8467ZM203.7 45.4707C203.699 45.5071 203.698 45.5436 203.698 45.5801C203.698 45.5436 203.699 45.5071 203.7 45.4707ZM203.771 43.7266C203.769 43.7643 203.767 43.8021 203.764 43.8398C203.767 43.8021 203.769 43.7643 203.771 43.7266ZM203.866 42.5342C203.857 42.6252 203.851 42.7164 203.842 42.8076C203.851 42.7164 203.857 42.6252 203.866 42.5342ZM204.073 40.8184C204.062 40.8915 204.053 40.9648 204.043 41.0381C204.053 40.9648 204.062 40.8915 204.073 40.8184ZM204.169 40.1973C204.152 40.298 204.137 40.399 204.122 40.5C204.137 40.399 204.152 40.298 204.169 40.1973ZM204.482 38.5088C204.461 38.6092 204.441 38.7098 204.421 38.8105C204.441 38.7098 204.461 38.6092 204.482 38.5088ZM204.587 38.0195C204.578 38.0634 204.569 38.1075 204.559 38.1514C204.569 38.1075 204.578 38.0634 204.587 38.0195ZM240.808 0C244.271 7.64126e-05 247.061 2.80893 247.061 6.25195V31.4492C247.061 34.8938 244.253 37.7011 240.808 37.7012C237.365 37.7011 234.555 34.9122 234.555 31.4492V6.25195C234.555 2.80891 237.345 3.6213e-05 240.808 0ZM204.718 37.459C204.709 37.4974 204.7 37.5358 204.691 37.5742C204.7 37.5358 204.709 37.4974 204.718 37.459ZM240.253 36.8916C240.345 36.9009 240.438 36.9084 240.532 36.9131L240.808 36.9199C240.621 36.9199 240.435 36.9101 240.253 36.8916ZM241.361 36.8916C241.179 36.91 240.995 36.9199 240.808 36.9199C240.995 36.9199 241.179 36.91 241.361 36.8916ZM239.461 36.751C239.613 36.7897 239.769 36.8211 239.926 36.8467C239.769 36.8211 239.613 36.7897 239.461 36.751ZM241.992 36.7871C242.046 36.775 242.101 36.7637 242.155 36.75C242.101 36.7637 242.046 36.775 241.992 36.7871ZM242.29 36.7129C242.335 36.7002 242.38 36.6886 242.424 36.6748C242.38 36.6886 242.335 36.7002 242.29 36.7129ZM242.583 36.6221C242.611 36.6122 242.64 36.6031 242.669 36.5928C242.64 36.6031 242.611 36.6122 242.583 36.6221ZM238.947 36.5938C238.972 36.6029 238.998 36.6113 239.023 36.6201C238.998 36.6113 238.972 36.6029 238.947 36.5938ZM238.697 36.4971C238.737 36.5139 238.778 36.529 238.819 36.5449C238.778 36.529 238.737 36.5139 238.697 36.4971ZM242.812 36.5361C242.847 36.5222 242.883 36.5088 242.918 36.4941C242.883 36.5088 242.847 36.5222 242.812 36.5361ZM204.996 36.3789C204.988 36.4066 204.981 36.4342 204.973 36.4619C204.981 36.4342 204.988 36.4066 204.996 36.3789ZM243.048 36.4355C243.084 36.4195 243.12 36.4045 243.155 36.3877C243.12 36.4045 243.084 36.4195 243.048 36.4355ZM238.461 36.3906C238.49 36.4048 238.52 36.418 238.55 36.4316C238.52 36.418 238.49 36.4048 238.461 36.3906ZM238.223 36.2705C238.25 36.2847 238.277 36.2978 238.303 36.3115C238.277 36.2978 238.25 36.2847 238.223 36.2705ZM243.312 36.3086C243.336 36.296 243.361 36.2844 243.385 36.2715C243.361 36.2844 243.336 36.296 243.312 36.3086ZM237.995 36.1406C238.029 36.1615 238.065 36.1811 238.1 36.2012C238.065 36.1811 238.029 36.1615 237.995 36.1406ZM243.531 36.1895C243.56 36.1725 243.59 36.1561 243.619 36.1387C243.59 36.1561 243.56 36.1725 243.531 36.1895ZM237.774 36.001C237.81 36.0248 237.846 36.0473 237.882 36.0703C237.846 36.0473 237.81 36.0248 237.774 36.001ZM243.803 36.0225C243.812 36.0167 243.821 36.0107 243.83 36.0049C243.821 36.0107 243.812 36.0167 243.803 36.0225ZM205.152 35.8203C205.136 35.8745 205.122 35.9291 205.106 35.9834C205.122 35.9291 205.136 35.8745 205.152 35.8203ZM237.552 35.8447C237.594 35.8757 237.637 35.9057 237.679 35.9355C237.637 35.9057 237.594 35.8757 237.552 35.8447ZM243.971 35.9062C244.001 35.885 244.031 35.8636 244.06 35.8418C244.031 35.8636 244.001 35.885 243.971 35.9062ZM237.345 35.6836C237.392 35.7218 237.44 35.7583 237.488 35.7949C237.44 35.7583 237.392 35.7218 237.345 35.6836ZM244.157 35.7676C244.19 35.7421 244.222 35.7166 244.254 35.6904C244.222 35.7166 244.19 35.7421 244.157 35.7676ZM237.146 35.5127C237.193 35.5553 237.242 35.5967 237.291 35.6377C237.242 35.5967 237.193 35.5553 237.146 35.5127ZM244.359 35.6025C244.398 35.5689 244.438 35.5357 244.476 35.501C244.438 35.5357 244.398 35.5689 244.359 35.6025ZM205.322 35.2529C205.299 35.3286 205.276 35.4046 205.254 35.4805C205.276 35.4046 205.299 35.3286 205.322 35.2529ZM236.97 35.3467C236.997 35.3725 237.024 35.3975 237.05 35.4229C237.024 35.3975 236.997 35.3725 236.97 35.3467ZM244.589 35.3945C244.608 35.3764 244.627 35.3583 244.646 35.3398C244.627 35.3583 244.608 35.3764 244.589 35.3945ZM236.78 35.1504C236.812 35.1853 236.846 35.2189 236.879 35.2529C236.846 35.2189 236.812 35.1853 236.78 35.1504ZM244.748 35.2363C244.775 35.2078 244.803 35.1795 244.83 35.1504C244.803 35.1795 244.775 35.2078 244.748 35.2363ZM236.597 34.9414C236.634 34.9862 236.673 35.0297 236.712 35.0732C236.673 35.0297 236.634 34.9862 236.597 34.9414ZM244.919 35.0508C244.95 35.0145 244.982 34.9785 245.013 34.9414C244.982 34.9785 244.95 35.0145 244.919 35.0508ZM205.522 34.623C205.489 34.7238 205.457 34.8247 205.424 34.9258C205.457 34.8247 205.489 34.7238 205.522 34.623ZM236.441 34.7441C236.477 34.7917 236.514 34.8384 236.551 34.8848C236.514 34.8384 236.477 34.7917 236.441 34.7441ZM245.08 34.8574C245.107 34.8234 245.134 34.7896 245.161 34.7549C245.134 34.7896 245.107 34.8234 245.08 34.8574ZM236.29 34.5342C236.323 34.5825 236.358 34.6296 236.392 34.6768C236.358 34.6295 236.323 34.5825 236.29 34.5342ZM245.248 34.6367C245.271 34.604 245.295 34.5714 245.318 34.5381C245.295 34.5714 245.271 34.604 245.248 34.6367ZM205.699 34.0967C205.656 34.2197 205.615 34.3431 205.574 34.4668C205.615 34.3431 205.656 34.2197 205.699 34.0967ZM236.15 34.3184C236.18 34.3667 236.21 34.4146 236.242 34.4619C236.21 34.4146 236.18 34.3667 236.15 34.3184ZM245.396 34.4189C245.416 34.3881 245.436 34.3574 245.456 34.3262C245.436 34.3574 245.416 34.3881 245.396 34.4189ZM236.02 34.0967C236.042 34.1368 236.065 34.1764 236.088 34.2158C236.065 34.1764 236.042 34.1368 236.02 34.0967ZM245.526 34.21C245.551 34.1676 245.575 34.1251 245.599 34.082C245.575 34.1251 245.551 34.1676 245.526 34.21ZM235.894 33.8545C235.917 33.9019 235.942 33.9485 235.966 33.9951C235.942 33.9485 235.917 33.9019 235.894 33.8545ZM245.648 33.9912C245.672 33.9463 245.695 33.9011 245.717 33.8555C245.695 33.9011 245.672 33.9463 245.648 33.9912ZM205.882 33.5752C205.842 33.6865 205.803 33.7984 205.764 33.9102C205.803 33.7984 205.842 33.6865 205.882 33.5752ZM235.778 33.6025C235.8 33.6535 235.823 33.7038 235.846 33.7539C235.823 33.7038 235.8 33.6535 235.778 33.6025ZM245.768 33.75C245.788 33.7076 245.807 33.665 245.826 33.6221C245.807 33.665 245.788 33.7076 245.768 33.75ZM235.683 33.3662C235.703 33.418 235.723 33.4694 235.744 33.5205C235.723 33.4694 235.703 33.418 235.683 33.3662ZM245.882 33.4863C245.897 33.4499 245.912 33.4137 245.926 33.377C245.912 33.4137 245.897 33.4499 245.882 33.4863ZM206.068 33.0732C206.024 33.1895 205.981 33.306 205.938 33.4229C205.981 33.306 206.024 33.1895 206.068 33.0732ZM235.604 33.1396C235.617 33.178 235.63 33.2159 235.643 33.2539C235.63 33.2159 235.617 33.178 235.604 33.1396ZM245.979 33.2295C245.99 33.1994 245.999 33.169 246.009 33.1387C245.999 33.169 245.99 33.1994 245.979 33.2295ZM235.523 32.8672C235.534 32.9082 235.546 32.9487 235.558 32.9893C235.546 32.9487 235.534 32.9082 235.523 32.8672ZM246.056 32.9893C246.069 32.9459 246.081 32.9022 246.092 32.8584C246.081 32.9022 246.069 32.9459 246.056 32.9893ZM206.243 32.6191C206.215 32.6904 206.186 32.7615 206.159 32.833C206.186 32.7615 206.215 32.6904 206.243 32.6191ZM235.461 32.6074C235.471 32.6562 235.483 32.7046 235.495 32.7529C235.483 32.7046 235.471 32.6562 235.461 32.6074ZM246.12 32.752C246.132 32.702 246.144 32.652 246.155 32.6016C246.144 32.652 246.132 32.702 246.12 32.752ZM246.177 32.4893C246.188 32.4338 246.199 32.3783 246.208 32.3223C246.199 32.3783 246.188 32.4338 246.177 32.4893ZM235.412 32.3486C235.419 32.3947 235.427 32.4406 235.436 32.4863C235.427 32.4406 235.419 32.3947 235.412 32.3486ZM246.222 32.2246C246.23 32.1721 246.237 32.1194 246.243 32.0664C246.237 32.1194 246.23 32.1721 246.222 32.2246ZM206.477 32.0371C206.455 32.0918 206.432 32.1464 206.41 32.2012C206.432 32.1464 206.455 32.0918 206.477 32.0371ZM235.374 32.0791C235.378 32.1164 235.383 32.1534 235.388 32.1904C235.383 32.1534 235.378 32.1164 235.374 32.0791ZM235.349 31.7969C235.352 31.8439 235.356 31.8908 235.36 31.9375C235.356 31.8908 235.352 31.8439 235.349 31.7969ZM246.255 31.9336C246.259 31.8911 246.262 31.8485 246.265 31.8057C246.262 31.8485 246.259 31.8911 246.255 31.9336ZM206.718 31.4668C206.68 31.5546 206.642 31.6423 206.605 31.7305C206.642 31.6423 206.68 31.5546 206.718 31.4668ZM235.338 31.5908C235.339 31.6192 235.341 31.6475 235.342 31.6758C235.339 31.6006 235.337 31.5251 235.337 31.4492L235.338 31.5908ZM246.274 31.6465C246.275 31.6277 246.276 31.6087 246.277 31.5898L246.279 31.4492C246.279 31.5153 246.276 31.581 246.274 31.6465ZM206.989 30.8535C206.914 31.0176 206.841 31.1823 206.769 31.3477C206.841 31.1823 206.914 31.0176 206.989 30.8535ZM207.405 29.9688C207.353 30.0756 207.302 30.1827 207.251 30.29C207.302 30.1827 207.353 30.0756 207.405 29.9688ZM207.644 29.4854C207.597 29.5781 207.552 29.6714 207.505 29.7646C207.552 29.6714 207.597 29.5781 207.644 29.4854ZM207.932 28.9287C207.872 29.0425 207.812 29.1561 207.754 29.2705C207.812 29.1561 207.872 29.0425 207.932 28.9287ZM208.182 28.46C208.123 28.5696 208.064 28.6798 208.005 28.79C208.064 28.6798 208.123 28.5696 208.182 28.46ZM208.421 28.0293C208.364 28.13 208.307 28.2307 208.252 28.332C208.307 28.2307 208.364 28.13 208.421 28.0293ZM208.717 27.5117C208.663 27.6047 208.609 27.6975 208.555 27.791C208.609 27.6975 208.663 27.6047 208.717 27.5117ZM208.942 27.1309C208.92 27.1679 208.898 27.205 208.876 27.2422C208.898 27.205 208.92 27.1679 208.942 27.1309ZM209.213 26.6836C209.186 26.7275 209.159 26.7714 209.132 26.8154C209.159 26.7714 209.186 26.7275 209.213 26.6836ZM209.611 26.0557C209.547 26.1544 209.483 26.2532 209.421 26.3525C209.483 26.2532 209.547 26.1544 209.611 26.0557ZM209.896 25.6211C209.822 25.733 209.748 25.8453 209.674 25.958C209.748 25.8453 209.822 25.733 209.896 25.6211ZM210.288 25.0439C210.469 24.7825 210.655 24.5241 210.842 24.2676C210.655 24.5241 210.469 24.7825 210.288 25.0439ZM211.111 23.9062C211.07 23.9611 211.028 24.0153 210.987 24.0703C211.028 24.0153 211.07 23.9611 211.111 23.9062ZM211.474 23.4277C211.423 23.4941 211.372 23.5612 211.321 23.6279C211.372 23.5612 211.423 23.4941 211.474 23.4277ZM211.867 22.9326C211.79 23.0279 211.713 23.1227 211.637 23.2188C211.713 23.1227 211.79 23.0279 211.867 22.9326ZM212.254 22.458C212.163 22.5681 212.071 22.6779 211.981 22.7891C212.071 22.6779 212.163 22.5681 212.254 22.458ZM213.04 21.542C212.806 21.805 212.577 22.0713 212.351 22.3408C212.577 22.0713 212.806 21.805 213.04 21.542ZM213.727 20.7891C213.633 20.8893 213.54 20.9896 213.447 21.0908C213.54 20.9896 213.633 20.8893 213.727 20.7891ZM214.467 20.0205C214.25 20.2393 214.036 20.4606 213.825 20.6846C214.036 20.4606 214.25 20.2392 214.467 20.0205ZM215.336 19.1719C215.461 19.0534 215.587 18.9361 215.714 18.8193C215.587 18.9361 215.461 19.0534 215.336 19.1719ZM216.485 18.1299C216.34 18.2558 216.197 18.3836 216.054 18.5117C216.197 18.3836 216.34 18.2558 216.485 18.1299ZM233.247 71.1895C233.314 71.2098 233.381 71.2312 233.448 71.251C233.381 71.2312 233.314 71.2098 233.247 71.1895ZM227.661 68.7451C227.746 68.7952 227.832 68.8454 227.918 68.8945C227.832 68.8454 227.746 68.7952 227.661 68.7451ZM218.683 60.0625C218.761 60.185 218.838 60.3075 218.918 60.4287C218.838 60.3075 218.761 60.185 218.683 60.0625ZM203.714 44.8555C203.71 44.9891 203.708 45.1229 203.705 45.2568C203.708 45.1229 203.71 44.9891 203.714 44.8555ZM203.714 44.8555C203.719 44.7283 203.724 44.6014 203.73 44.4746C203.724 44.6014 203.719 44.7283 203.714 44.8555ZM203.927 41.9551C203.916 42.0571 203.906 42.1594 203.895 42.2617C203.906 42.1594 203.916 42.0571 203.927 41.9551ZM204.258 39.666C204.237 39.7879 204.216 39.91 204.196 40.0322C204.216 39.91 204.237 39.7879 204.258 39.666ZM239.982 36.8564C240.069 36.8697 240.157 36.8816 240.246 36.8906C240.157 36.8816 240.069 36.8697 239.982 36.8564ZM241.369 36.8906C241.457 36.8815 241.545 36.8697 241.632 36.8564C241.545 36.8697 241.457 36.8815 241.369 36.8906ZM241.712 36.8428C241.777 36.8319 241.842 36.8208 241.906 36.8076C241.842 36.8208 241.777 36.8319 241.712 36.8428ZM207.176 30.4482C207.113 30.583 207.05 30.7179 206.989 30.8535C207.05 30.7179 207.113 30.583 207.176 30.4482ZM210.234 25.123C210.163 25.2256 210.093 25.3284 210.023 25.4316C210.093 25.3284 210.163 25.2256 210.234 25.123ZM210.234 25.123C210.252 25.0968 210.27 25.0701 210.288 25.0439C210.27 25.0701 210.252 25.0968 210.234 25.123ZM213.284 21.2715C213.202 21.3616 213.12 21.4511 213.04 21.542C213.12 21.4511 213.202 21.3616 213.284 21.2715ZM214.644 19.8418C214.753 19.7333 214.863 19.6257 214.973 19.5186C214.863 19.6257 214.753 19.7333 214.644 19.8418Z" fill="#2044F7"/>
</svg>
