<svg width="40" height="40" viewBox="0 0 40 40" fill="none" xmlns="http://www.w3.org/2000/svg">
<circle cx="20" cy="20" r="20" fill="#2044F7"/>
<path d="M25.7273 27H14.2727C13.405 26.9991 12.5731 26.6517 11.9596 26.0341C11.346 25.4166 11.0009 24.5793 11 23.7059V16.2941C11.0009 15.4207 11.346 14.5834 11.9596 13.9659C12.5731 13.3483 13.405 13.0009 14.2727 13H25.7273C26.595 13.0009 27.4269 13.3483 28.0404 13.9659C28.654 14.5834 28.9991 15.4207 29 16.2941V23.7059C28.9991 24.5793 28.654 25.4166 28.0404 26.0341C27.4269 26.6517 26.595 26.9991 25.7273 27ZM14.2727 14.6471C13.8389 14.6476 13.423 14.8212 13.1162 15.13C12.8094 15.4388 12.6369 15.8574 12.6364 16.2941V23.7059C12.6369 24.1426 12.8094 24.5612 13.1162 24.87C13.423 25.1788 13.8389 25.3524 14.2727 25.3529H25.7273C26.1611 25.3524 26.577 25.1788 26.8838 24.87C27.1906 24.5612 27.3631 24.1426 27.3636 23.7059V16.2941C27.3631 15.8574 27.1906 15.4388 26.8838 15.13C26.577 14.8212 26.1611 14.6476 25.7273 14.6471H14.2727Z" fill="white"/>
<path d="M20 21.1806C19.0899 21.1809 18.2058 20.8754 17.4879 20.3124L12.1337 16.1208C11.9624 15.9866 11.8511 15.7895 11.8242 15.5727C11.7973 15.3559 11.857 15.1372 11.9903 14.9647C12.1236 14.7923 12.3195 14.6802 12.5349 14.6531C12.7503 14.626 12.9676 14.6862 13.1389 14.8204L18.493 19.012C18.9236 19.3499 19.454 19.5334 20 19.5334C20.546 19.5334 21.0763 19.3499 21.5069 19.012L26.861 14.8204C27.0323 14.6862 27.2496 14.626 27.465 14.6531C27.6804 14.6802 27.8763 14.7923 28.0096 14.9647C28.1429 15.1372 28.2027 15.3559 28.1758 15.5727C28.1489 15.7895 28.0375 15.9866 27.8662 16.1208L22.512 20.3124C21.794 20.8752 20.91 21.1807 20 21.1806Z" fill="white"/>
</svg>
