<svg width="40" height="40" viewBox="0 0 40 40" fill="none" xmlns="http://www.w3.org/2000/svg">
<circle cx="20" cy="20" r="20" fill="#2044F7"/>
<path d="M15.2 8.23333H24.8C26.5674 8.23333 28 9.60628 28 11.3V29.7C28 31.3937 26.5674 32.7667 24.8 32.7667H15.2C13.4326 32.7667 12 31.3937 12 29.7V11.3C12 9.60628 13.4326 8.23333 15.2 8.23333ZM13.6 29.7C13.6 30.5467 14.3165 31.2333 15.2 31.2333H24.8C25.6835 31.2333 26.4 30.5467 26.4 29.7V11.3C26.4 10.4533 25.6835 9.76667 24.8 9.76667H23.2C23.2 10.6134 22.4835 11.3 21.6 11.3H18.4C17.5165 11.3 16.8 10.6134 16.8 9.76667H15.2C14.3165 9.76667 13.6 10.4533 13.6 11.3V29.7Z" fill="white"/>
</svg>
