<svg width="16" height="25" viewBox="0 0 16 25" fill="none" xmlns="http://www.w3.org/2000/svg">
<path d="M3.2 0H12.8C14.5674 0 16 1.37295 16 3.06667V21.4667C16 23.1604 14.5674 24.5333 12.8 24.5333H3.2C1.43264 24.5333 0 23.1604 0 21.4667V3.06667C0 1.37295 1.43264 0 3.2 0ZM1.6 21.4667C1.6 22.3134 2.31648 23 3.2 23H12.8C13.6835 23 14.4 22.3134 14.4 21.4667V3.06667C14.4 2.21996 13.6835 1.53333 12.8 1.53333H11.2C11.2 2.38004 10.4835 3.06667 9.6 3.06667H6.4C5.51648 3.06667 4.8 2.38004 4.8 1.53333H3.2C2.31648 1.53333 1.6 2.21996 1.6 3.06667V21.4667Z" fill="#041366"/>
</svg>
