<svg width="40" height="40" viewBox="0 0 40 40" fill="none" xmlns="http://www.w3.org/2000/svg">
<circle cx="20" cy="20" r="20" fill="#2044F7"/>
<path d="M30.5264 27.3436L25.9282 22.9152C26.7095 21.7174 27.1629 20.3017 27.1629 18.7824C27.1629 14.484 23.5446 11 19.0813 11C14.618 11 11 14.484 11 18.7824C11 23.0809 14.6179 26.5646 19.0813 26.5646C20.7982 26.5646 22.3885 26.0477 23.6971 25.1693L28.2405 29.545C28.5562 29.8487 28.9701 30 29.3835 30C29.7973 30 30.2107 29.8487 30.5269 29.545C31.1578 28.9368 31.1578 27.9516 30.5264 27.3436ZM19.0813 24.0432C16.0645 24.0432 13.6187 21.688 13.6187 18.7827C13.6187 15.8774 16.0645 13.522 19.0813 13.522C22.0982 13.522 24.5439 15.8774 24.5439 18.7827C24.5439 21.688 22.0982 24.0432 19.0813 24.0432Z" fill="white"/>
</svg>
