<svg width="186" height="129" viewBox="0 0 186 129" fill="none" xmlns="http://www.w3.org/2000/svg">
<path fill-rule="evenodd" clip-rule="evenodd" d="M123.161 93.6439H93.1755C93.1755 69.5825 69.8494 66.4766 69.878 40.621C69.9062 15.9642 89.0321 1.62533 108.165 1.88754C114.796 1.79547 122.002 3.78801 127.838 7.02877C128.221 7.24144 129.302 7.93647 129.686 8.1634C139.444 14.5811 146.437 25.7148 146.459 40.621C146.487 66.4766 123.161 69.5825 123.161 93.6439Z" fill="#B5BED7"/>
<path fill-rule="evenodd" clip-rule="evenodd" d="M123.161 93.6438C123.161 69.5825 146.487 66.4765 146.458 40.621C146.437 25.7147 139.443 14.5813 129.685 8.16336C129.301 7.93643 128.221 7.24139 127.837 7.02873C122.002 3.78797 114.795 1.79517 108.164 1.8875C106.636 1.86623 105.101 1.94429 103.58 2.10742C108.925 2.69612 114.369 4.476 118.967 7.02898C119.351 7.24164 120.438 7.93668 120.815 8.16361C130.573 14.5813 137.574 25.715 137.588 40.6213C137.617 66.4768 114.291 69.5827 114.291 93.6441L123.161 93.6438Z" fill="#9CAAD2"/>
<path fill-rule="evenodd" clip-rule="evenodd" d="M114.291 96.7428V59.5339C120.453 57.2504 124.88 51.3151 124.88 44.4007C124.88 38.8764 122.059 33.9764 117.787 31.0689C113.303 28.0125 114.17 32.8418 114.17 33.6501V43.3442C114.17 46.7268 111.505 49.5279 108.164 49.7549C104.824 49.5279 102.159 46.7268 102.159 43.3442V33.6501C102.159 32.8418 103.026 28.0125 98.5411 31.0689C94.2695 33.9764 91.4551 38.8767 91.4551 44.4007C91.4551 51.3148 95.8758 57.2504 102.038 59.5339V96.7428H114.291Z" fill="#2044F7"/>
<path fill-rule="evenodd" clip-rule="evenodd" d="M117.424 39.9971C117.424 46.3227 115.57 51.8257 110.545 54.4635C108.469 55.5556 109.045 55.9102 109.045 58.5837V93.6439H114.29V59.534C120.452 57.2504 124.88 51.3151 124.88 44.4007C124.88 38.8765 122.058 33.9764 117.787 31.0689C115.768 29.6931 114.83 29.913 114.418 30.6506C116.309 33.2886 117.424 36.5224 117.424 39.9971Z" fill="#6E87FF"/>
<path fill-rule="evenodd" clip-rule="evenodd" d="M108.164 126.222C116.081 126.222 122.499 119.819 122.499 111.926L108.164 108.905L93.8359 111.926C93.8359 119.818 100.254 126.222 108.164 126.222Z" fill="#9CAAD2"/>
<path fill-rule="evenodd" clip-rule="evenodd" d="M127.737 107.352C127.737 104.841 125.626 103.295 123.16 102.785L108.164 99.6435L93.1748 102.785C90.7087 103.296 88.5908 104.842 88.5908 107.352C88.5908 109.869 90.6519 111.926 93.1748 111.926H93.8359H122.499H123.16C125.676 111.925 127.737 109.869 127.737 107.352Z" fill="#2044F7"/>
<path fill-rule="evenodd" clip-rule="evenodd" d="M127.738 98.2106C127.738 95.7002 125.677 93.6439 123.161 93.6439H114.291H109.046H102.038H93.1758C90.6529 93.6439 88.5918 95.7004 88.5918 98.2106C88.5918 100.728 90.6529 102.785 93.1758 102.785H123.161C125.677 102.785 127.738 100.728 127.738 98.2106Z" fill="#2044F7"/>
<path fill-rule="evenodd" clip-rule="evenodd" d="M127.738 107.352C127.738 104.841 125.677 102.785 123.161 102.785H93.1753C90.8583 102.785 88.9323 104.515 88.6338 106.742C89.1882 106.501 89.8064 106.366 90.4532 106.366H120.438C122.954 106.366 125.016 108.423 125.016 110.933C125.016 111.139 125.001 111.344 124.973 111.543C126.6 110.841 127.738 109.224 127.738 107.352Z" fill="#2044F7"/>
<path fill-rule="evenodd" clip-rule="evenodd" d="M127.738 98.2106C127.738 95.7002 125.677 93.6439 123.161 93.6439H93.1753C90.8583 93.6439 88.9323 95.3742 88.6338 97.6009C89.1882 97.3597 89.8064 97.2251 90.4532 97.2251H120.438C122.954 97.2251 125.016 99.2817 125.016 101.792C125.016 101.998 125.001 102.203 124.973 102.402C126.6 101.7 127.738 100.083 127.738 98.2106Z" fill="#2044F7"/>
<path fill-rule="evenodd" clip-rule="evenodd" d="M122.499 111.926H93.8359C93.8359 113.294 94.0278 114.627 94.3904 115.883H113.743C115.222 115.883 115.151 115.613 115.008 117.166C114.703 120.584 113.189 123.662 110.9 125.959C117.51 124.69 122.499 118.889 122.499 111.926Z" fill="#EDEFF5"/>
<path fill-rule="evenodd" clip-rule="evenodd" d="M153.445 15.5102C151.49 16.0066 149.642 16.7797 147.951 17.7795L146.366 16.198C145.612 15.4391 144.369 15.4391 143.615 16.198L139.017 20.786C138.264 21.5376 138.264 22.7716 139.017 23.5304L140.602 25.1119C139.6 26.7997 138.825 28.6434 138.328 30.5936H136.082C135.016 30.5936 134.142 31.4658 134.142 32.5366V39.0182C134.142 40.089 135.016 40.9612 136.082 40.9612H138.328C138.825 42.9114 139.6 44.7551 140.609 46.4429L139.017 48.0244C138.264 48.7832 138.264 50.0172 139.017 50.7688L143.616 55.3568C144.369 56.1157 145.613 56.1157 146.366 55.3568L147.951 53.7753C149.643 54.7751 151.491 55.5482 153.445 56.0446V58.2856C153.445 59.3494 154.319 60.2286 155.393 60.2286H161.896C162.962 60.2286 163.836 59.3492 163.836 58.2856V56.0446C165.797 55.5482 167.638 54.7751 169.33 53.7753L170.922 55.3568C171.675 56.1157 172.912 56.1157 173.672 55.3568L178.264 50.7688C179.024 50.0172 179.024 48.7832 178.264 48.0244L176.679 46.4429C177.688 44.7551 178.455 42.9114 178.96 40.9612H181.199C182.272 40.9612 183.146 40.089 183.146 39.0182V32.5366C183.146 31.4658 182.272 30.5936 181.199 30.5936H178.96C178.455 28.6434 177.688 26.7997 176.679 25.1119L178.264 23.5304C179.024 22.7716 179.024 21.5376 178.264 20.786L173.672 16.198C172.912 15.4391 171.675 15.4391 170.922 16.198L169.33 17.7795C167.638 16.7797 165.79 16.0066 163.836 15.5102V13.2692C163.836 12.2054 162.962 11.3262 161.896 11.3262H155.393C154.319 11.3262 153.445 12.2056 153.445 13.2692V15.5102H153.445Z" fill="#2044F7"/>
<path fill-rule="evenodd" clip-rule="evenodd" d="M146.23 35.7774C146.23 42.6134 151.788 48.159 158.64 48.159C165.498 48.159 171.049 42.6134 171.049 35.7774C171.049 28.9414 165.498 23.3959 158.64 23.3959C151.788 23.3959 146.23 28.9414 146.23 35.7774Z" fill="#EDEFF5"/>
<path fill-rule="evenodd" clip-rule="evenodd" d="M162.777 33.8912C162.777 39.0537 161.931 43.8829 160.467 48.0244C166.458 47.1449 171.049 41.9967 171.049 35.7774C171.049 29.9695 167.041 25.0907 161.632 23.7574C162.372 26.8991 162.777 30.3172 162.777 33.8912Z" fill="#EDEFF5"/>
<path fill-rule="evenodd" clip-rule="evenodd" d="M161.632 23.7577C167.041 25.091 171.049 29.9698 171.049 35.7778C171.049 41.9971 166.458 47.1453 160.467 48.0248C158.832 52.6556 156.415 56.414 153.516 58.8039C153.75 59.6195 154.504 60.2292 155.392 60.2292H161.895C162.961 60.2292 163.835 59.3498 163.835 58.2862V56.0452C166.436 55.3857 167.538 54.2441 168.661 54.1518C169.308 54.1022 169.969 54.407 170.921 55.3572C171.674 56.116 172.911 56.116 173.671 55.3572L178.263 50.7691C179.023 50.0176 179.023 48.7836 178.263 48.0248L176.678 46.4433C177.687 44.7555 178.454 42.9118 178.959 40.9615H181.198C182.271 40.9615 183.145 40.0894 183.145 39.0185V32.537C183.145 31.4662 182.271 30.594 181.198 30.594H178.959C178.454 28.6437 177.687 26.8001 176.678 25.1123L178.263 23.5308C179.023 22.7719 179.023 21.538 178.263 20.7864L173.671 16.1983C172.911 15.4395 171.674 15.4395 170.921 16.1983L169.329 17.7798C167.637 16.78 165.789 16.0069 163.835 15.5106V13.2696C163.835 12.2057 162.968 11.3406 161.909 11.3266H161.895H155.854C158.434 14.4252 160.46 18.7368 161.632 23.7577Z" fill="#6E87FF"/>
<path d="M181.199 28.7163H180.365C179.995 27.5854 179.54 26.4896 179.004 25.4413L179.587 24.8583C180.313 24.1352 180.713 23.172 180.711 22.1462C180.708 21.1254 180.308 20.1672 179.59 19.4591L174.996 14.8706C174.273 14.1475 173.313 13.7397 172.284 13.7522C171.263 13.7547 170.308 14.155 169.6 14.8681L169.002 15.461C167.941 14.9206 166.84 14.4652 165.712 14.1V13.2693C165.712 11.1627 164 9.44886 161.896 9.44886H155.391C153.284 9.44886 151.568 11.1627 151.568 13.2693V14.1C150.44 14.4652 149.341 14.9206 148.281 15.4585L147.698 14.8756C146.977 14.1525 146.016 13.7522 144.991 13.7522C144.478 13.7522 143.98 13.8523 143.524 14.0424C143.067 14.2326 142.649 14.5103 142.291 14.8706L140.85 16.3092C138.11 12.5037 134.668 9.19366 130.717 6.59665C130.094 6.16006 129.412 5.76025 128.748 5.38822C122.438 1.883 114.935 -0.0785212 108.175 0.0115486C97.859 -0.238645 87.7037 3.55429 80.3179 10.4346C79.5598 11.1427 79.5173 12.3286 80.2254 13.0867C80.9309 13.8473 82.1193 13.8873 82.8774 13.1818C89.5576 6.95693 98.7597 3.52677 108.117 3.76446H108.19C114.332 3.67939 121.16 5.46578 126.927 8.67076C127.532 8.99801 128.099 9.39907 128.688 9.7541C132.508 12.2736 135.691 15.3835 138.18 18.9737L137.692 19.4591C136.206 20.9403 136.204 23.3596 137.692 24.8583L138.278 25.4438C137.74 26.4996 137.285 27.5954 136.919 28.7163H136.081C133.977 28.7163 132.266 30.4301 132.266 32.5368V39.0193C132.266 41.1259 133.977 42.8372 136.081 42.8372H136.919C137.287 43.9631 137.74 45.0565 138.28 46.1123L137.685 46.7027C136.204 48.1939 136.206 50.6158 137.692 52.0969L141.173 55.5696C139.021 59.8154 136.081 63.3531 133.056 66.991C127.565 73.5986 121.895 80.4189 121.33 91.7677H116.168V60.7887C122.553 57.8739 126.756 51.4464 126.756 44.4009C126.756 38.4538 123.799 32.892 118.845 29.5194C118.1 29.0115 115.835 27.4678 113.896 28.5862C111.997 29.682 112.188 32.199 112.278 33.4099C112.285 33.5125 112.293 43.3451 112.293 43.3451C112.293 45.6844 110.489 47.6485 108.165 47.8711C105.838 47.6485 104.036 45.6844 104.036 43.3451C104.036 43.3451 104.044 33.5125 104.051 33.4099C104.141 32.199 104.329 29.682 102.43 28.5862C100.494 27.4678 98.2293 29.0115 97.4862 29.5169C92.5349 32.887 89.5776 38.4513 89.5776 44.4009C89.5776 51.4464 93.7809 57.8739 100.161 60.7887V70.8014C100.161 71.8397 101.001 72.6779 102.037 72.6779C103.073 72.6779 103.914 71.8397 103.914 70.8014V59.5352C103.914 58.7496 103.426 58.0465 102.69 57.7738C97.0934 55.6997 93.3305 50.3255 93.3305 44.4009C93.3305 39.6948 95.6748 35.2914 99.5979 32.6193C99.9056 32.4092 100.153 32.264 100.348 32.164C100.351 32.4192 100.283 43.3451 100.283 43.3451C100.283 47.6935 103.689 51.3313 108.037 51.6265C108.122 51.6316 108.207 51.6316 108.292 51.6265C112.64 51.3313 116.046 47.6935 116.046 43.3451C116.046 43.3451 115.978 32.4192 115.981 32.164C116.176 32.264 116.423 32.4092 116.731 32.6193C120.659 35.2939 123.004 39.6973 123.004 44.4009C123.004 50.323 119.241 55.6997 113.639 57.7738C112.903 58.0465 112.415 58.7496 112.415 59.5352V91.7677H103.914V79.4681C103.914 78.4323 103.073 77.5917 102.037 77.5917C101.001 77.5917 100.161 78.4323 100.161 79.4681V91.7677H95.0043C94.4389 80.4189 88.7695 73.5986 83.2777 66.991C77.3456 59.8529 71.7413 53.1077 71.7538 40.6105C71.7088 32.7669 73.5902 25.7815 77.3481 19.8469C77.9011 18.9712 77.6409 17.8128 76.7652 17.2574C75.8895 16.7045 74.7311 16.9647 74.1757 17.8404C70.03 24.3904 67.9508 32.0589 68.0009 40.618C67.9859 54.4637 74.2933 62.0521 80.393 69.3903C85.7296 75.8103 90.7835 81.89 91.2614 92.0554C88.6294 92.871 86.7154 95.3229 86.7154 98.2101C86.7154 99.9965 87.446 101.615 88.6244 102.784C87.446 103.952 86.7154 105.568 86.7154 107.352C86.7154 110.53 89.0272 113.174 92.0595 113.705C92.9502 121.788 99.8306 128.098 108.165 128.098C116.501 128.098 123.386 121.788 124.277 113.705C127.304 113.174 129.614 110.527 129.614 107.352C129.614 105.568 128.883 103.952 127.707 102.784C128.883 101.615 129.614 99.9965 129.614 98.2101C129.614 95.3229 127.702 92.8735 125.075 92.0579C125.553 81.8925 130.607 75.8103 135.944 69.3903C138.928 65.8 141.961 62.1497 144.28 57.7363C144.513 57.7813 144.75 57.8038 144.991 57.8038C146.016 57.8038 146.977 57.4035 147.69 56.6855L148.281 56.0975C149.341 56.6354 150.44 57.0883 151.568 57.4561V58.2867C151.568 60.3933 153.284 62.1047 155.391 62.1047H161.896C164 62.1047 165.712 60.3933 165.712 58.2867V57.4561C166.84 57.0908 167.938 56.6354 169.002 56.095L169.59 56.6805C170.308 57.401 171.263 57.8013 172.284 57.8038H172.294C173.315 57.8038 174.276 57.406 174.999 56.6855L179.582 52.1044C180.308 51.3864 180.708 50.4306 180.711 49.4073C180.713 48.384 180.313 47.4208 179.587 46.6952L179.004 46.1123C179.54 45.064 179.995 43.9706 180.365 42.8372H181.199C183.308 42.8372 185.022 41.1259 185.022 39.0193V32.5368C185.022 30.4301 183.308 28.7163 181.199 28.7163ZM108.165 124.345C101.937 124.345 96.7632 119.764 95.855 113.802H120.482C119.571 119.764 114.394 124.345 108.165 124.345ZM123.161 110.049H93.1754C91.6817 110.049 90.4683 108.838 90.4683 107.352C90.4683 105.869 91.6817 104.66 93.1754 104.66H123.161C124.65 104.66 125.861 105.869 125.861 107.352C125.861 108.838 124.65 110.049 123.161 110.049ZM125.861 98.2101C125.861 99.6988 124.65 100.907 123.161 100.907H93.1754C91.6817 100.907 90.4683 99.6988 90.4683 98.2101C90.4683 96.7265 91.6817 95.5206 93.1754 95.5206H123.161C124.65 95.5206 125.861 96.7265 125.861 98.2101ZM181.269 39.019C181.269 39.049 181.239 39.0841 181.199 39.0841H178.959C178.104 39.0841 177.358 39.6645 177.143 40.4902C176.683 42.2665 175.985 43.9453 175.069 45.479C174.626 46.2196 174.744 47.1628 175.352 47.7708L176.938 49.352C176.943 49.3595 176.958 49.3721 176.958 49.3996C176.958 49.4221 176.948 49.4296 176.938 49.4421L172.347 54.0282C172.342 54.0332 172.324 54.0507 172.294 54.0507C172.267 54.0507 172.257 54.0407 172.244 54.0257L170.65 52.4444C170.045 51.8415 169.109 51.7264 168.374 52.1592C166.802 53.0899 165.121 53.783 163.375 54.2258C162.542 54.436 161.959 55.1866 161.959 56.0447V58.2865C161.959 58.314 161.924 58.3515 161.896 58.3515H155.391C155.354 58.3515 155.321 58.3115 155.321 58.2865V56.0447C155.321 55.1866 154.738 54.4385 153.907 54.2258C152.154 53.7805 150.472 53.0849 148.906 52.1592C148.608 51.9841 148.278 51.899 147.95 51.899C147.467 51.899 146.987 52.0867 146.624 52.4469L146.492 52.5795L145.033 54.0357C145.016 54.0532 144.973 54.0607 144.941 54.0282L142.766 51.859L140.342 49.4396C140.324 49.4221 140.319 49.3746 140.339 49.3545L141.931 47.7733C142.544 47.1678 142.661 46.2196 142.218 45.479C141.29 43.9253 140.592 42.249 140.147 40.4977C139.934 39.667 139.186 39.0841 138.328 39.0841H136.081C136.054 39.0841 136.019 39.0541 136.019 39.019V32.5365C136.019 32.5015 136.054 32.469 136.081 32.469H138.328C139.186 32.469 139.934 31.8885 140.147 31.0579C140.565 29.4116 141.205 27.8329 142.056 26.3492C142.106 26.2541 142.161 26.1616 142.216 26.069C142.654 25.3309 142.536 24.3902 141.928 23.7847L140.349 22.2085C140.319 22.181 140.324 22.1309 140.342 22.1134L142.931 19.5314L144.948 17.5199C144.966 17.4999 145.008 17.4948 145.041 17.5274L146.624 19.1086C147.23 19.7116 148.168 19.8292 148.906 19.3938C150.472 18.4681 152.154 17.7751 153.907 17.3297C154.738 17.1171 155.321 16.369 155.321 15.5108V13.2691C155.321 13.2441 155.354 13.2015 155.391 13.2015H161.896C161.924 13.2015 161.959 13.239 161.959 13.2691V15.5108C161.959 16.369 162.542 17.1171 163.372 17.3297C165.126 17.7751 166.807 18.4681 168.374 19.3938C169.109 19.8292 170.045 19.7116 170.65 19.1111L172.252 17.5199C172.257 17.5149 172.267 17.5049 172.294 17.5049C172.324 17.5049 172.342 17.5199 172.344 17.5249L176.943 22.1209C176.948 22.1259 176.958 22.1334 176.958 22.156C176.958 22.1835 176.943 22.196 176.938 22.201L175.352 23.7847C174.744 24.3927 174.626 25.3359 175.069 26.074C175.985 27.6102 176.683 29.289 177.143 31.0629C177.358 31.891 178.104 32.469 178.959 32.469H181.199C181.239 32.469 181.269 32.5065 181.269 32.5365V39.019Z" fill="#23263B"/>
<path d="M158.641 21.5204C153.583 21.5204 149.132 24.1549 146.595 28.123C145.176 30.3347 144.355 32.9617 144.355 35.7764C144.355 35.949 144.421 37.2125 144.481 37.6628C144.871 40.6076 146.164 43.2696 148.076 45.3638C150.69 48.231 154.458 50.0348 158.641 50.0348C166.518 50.0348 172.925 43.6399 172.925 35.7764C172.925 27.9153 166.518 21.5204 158.641 21.5204ZM158.641 46.2822C153.335 46.2822 148.936 42.3542 148.213 37.2578C147.465 33.0871 149.78 25.206 158.641 25.2736C164.448 25.3178 169.172 29.9847 169.172 35.7766C169.172 41.5711 164.448 46.2822 158.641 46.2822Z" fill="#23263B"/>
<circle cx="20" cy="20" r="20" transform="matrix(-1 0 0 1 40 42)" fill="#2044F7"/>
<path fill-rule="evenodd" clip-rule="evenodd" d="M27.4996 56.6167C28.3988 57.4771 28.3984 58.9027 27.4996 59.7629L19.5413 66.5299C19.1047 66.9475 18.5422 67.1462 17.9991 67.1462C17.4569 67.1461 16.8939 66.9477 16.4569 66.5299L12.6739 62.9091C11.7751 62.0489 11.7746 60.6233 12.6739 59.7629C13.5333 58.941 14.8982 58.9414 15.7572 59.7629L17.9991 61.9072L24.4163 56.6167C25.2216 55.8465 26.4708 55.7973 27.3321 56.4714L27.4996 56.6167ZM13.738 60.9628C13.7317 60.9701 13.7275 60.9798 13.7216 60.9874C13.7397 60.964 13.7581 60.9405 13.7802 60.9194L13.738 60.9628Z" fill="white"/>
</svg>
