<svg width="184" height="127" viewBox="0 0 184 127" fill="none" xmlns="http://www.w3.org/2000/svg">
<path fill-rule="evenodd" clip-rule="evenodd" d="M161.338 115.753L164.715 124.363H175.422C178.61 124.363 181.222 121.757 181.222 118.576V112.145C181.222 108.965 178.61 106.358 175.422 106.358H164.715L161.338 115.753Z" fill="#2044F7"/>
<path fill-rule="evenodd" clip-rule="evenodd" d="M78.0522 106.317L76.4092 111.123L78.0522 118.857L125.663 123.446L164.715 118.857V106.359H80.4113C79.4212 106.359 78.6769 106.331 78.0522 106.317Z" fill="#B5BED7"/>
<path fill-rule="evenodd" clip-rule="evenodd" d="M83.7048 16.0845H177.48C177.48 85.3278 177.551 79.2471 177.551 87.5838C177.551 92.4388 173.576 96.4038 168.711 96.4038H159.373L58.225 96.4108C57.4807 96.4108 56.877 95.8013 56.877 95.0588V17.4366C56.877 16.694 57.4879 16.0845 58.225 16.0845H68.1319H83.7048Z" fill="#EDEFF5"/>
<path fill-rule="evenodd" clip-rule="evenodd" d="M159.133 77.4605V9.70237C159.133 8.99482 159.723 8.40637 160.439 8.40637H168.71C173.569 8.40637 177.55 12.3784 177.55 17.2334V87.5835C177.55 82.7285 173.576 78.7635 168.71 78.7635H160.439C159.723 78.7635 159.133 78.175 159.133 77.4605Z" fill="#6E87FF"/>
<path fill-rule="evenodd" clip-rule="evenodd" d="M164.715 118.857V124.363H175.422C178.61 124.363 181.222 121.757 181.222 118.576V115.641C181.222 115.2 181.173 114.765 181.074 114.359C180.484 116.923 178.174 118.857 175.422 118.857H164.715V118.857Z" fill="#2044F7"/>
<path fill-rule="evenodd" clip-rule="evenodd" d="M78.0522 118.857L75.9668 118.878L78.0522 124.398C78.6771 124.391 79.4212 124.363 80.4112 124.363H164.715V118.857H78.0522Z" fill="#9CAAD2"/>
<path fill-rule="evenodd" clip-rule="evenodd" d="M67.7731 109.861L66.0811 115.361L67.7731 120.853L73.2566 123.305C75.5946 124.349 76.388 124.433 78.052 124.398V115.361V106.317C76.388 106.289 75.5946 106.373 73.2566 107.417L67.7731 109.861Z" fill="white"/>
<path fill-rule="evenodd" clip-rule="evenodd" d="M57.4798 116.258L67.773 120.853V109.862L57.4798 114.457C56.6725 114.814 56.7005 115.914 57.4798 116.258Z" fill="#6E87FF"/>
<path fill-rule="evenodd" clip-rule="evenodd" d="M57.4798 116.258L67.773 120.853V115.312L66.2986 114.653L61.6716 112.587L57.4798 114.457C56.6725 114.815 56.7005 115.914 57.4798 116.258Z" fill="#2044F7"/>
<path fill-rule="evenodd" clip-rule="evenodd" d="M67.7734 115.312V120.853L73.2569 123.305C75.595 124.349 76.3883 124.433 78.0523 124.398V118.857C77.8697 118.857 77.7013 118.864 77.5397 118.864C76.1987 118.857 75.342 118.695 73.2567 117.757L67.7734 115.312Z" fill="white"/>
<path fill-rule="evenodd" clip-rule="evenodd" d="M169.279 17.2334V78.7775C173.878 79.0717 177.55 82.9179 177.55 87.5835V17.2334C177.55 16.8411 177.529 16.4628 177.48 16.0845C176.911 11.769 173.183 8.40637 168.711 8.40637H160.439C164.912 8.40637 168.64 11.769 169.202 16.0845C169.251 16.4628 169.279 16.8411 169.279 17.2334Z" fill="#2044F7"/>
<path fill-rule="evenodd" clip-rule="evenodd" d="M131.82 96.4035H159.372H168.71C173.575 96.4035 177.549 92.4385 177.549 87.5835C177.549 82.9176 173.877 79.0717 169.278 78.7774C169.089 78.7634 168.899 78.7634 168.71 78.7634H160.439C159.723 78.7634 159.133 78.175 159.133 77.4604V16.0845H137.893C142.535 26.3336 145.189 38.1872 145.189 50.8112C145.189 59.0288 144.065 66.9241 142.001 74.252L147.892 80.1367C148.804 81.0474 148.144 81.9021 147.154 81.9021H139.424C137.367 87.1421 134.804 92.0041 131.82 96.4035Z" fill="#EDEFF5"/>
<path fill-rule="evenodd" clip-rule="evenodd" d="M68.1309 80.6902V16.0845V3.04699C68.1239 2.06624 68.9876 1.40072 69.9003 2.31142L83.7039 16.0845L147.892 80.1368C148.804 81.0475 148.144 81.9021 147.154 81.9021C121.218 81.9021 95.2818 81.9021 69.3453 81.9021C68.6646 81.9021 68.1309 81.3697 68.1309 80.6902ZM86.1405 64.4932H106.93C108.405 64.4932 108.201 64.2691 107.295 63.3654L86.7092 42.8248C85.8035 41.9141 85.5788 41.711 85.5788 43.1821V63.9328C85.5788 64.3739 85.6982 64.4932 86.1405 64.4932Z" fill="#2044F7"/>
<path fill-rule="evenodd" clip-rule="evenodd" d="M85.5791 63.9326V43.1819C85.5791 41.7107 85.8038 41.9139 86.7095 42.8246L107.296 63.3651C108.201 64.2688 108.405 64.493 106.931 64.493H86.1408C85.6984 64.4933 85.5791 64.3739 85.5791 63.9326Z" fill="#EDEFF5"/>
<path fill-rule="evenodd" clip-rule="evenodd" d="M70.8139 16.0845L136.778 81.9021H147.155C148.145 81.9021 148.805 81.0475 147.893 80.1368L83.7049 16.0845L69.9012 2.31142C68.9885 1.40072 68.1249 2.06624 68.1319 3.04699V13.4082L70.8139 16.0845Z" fill="#6E87FF"/>
<path d="M175.423 104.482C175.423 104.482 78.0152 104.442 77.9962 104.443C76.0792 104.418 75.0439 104.563 72.4925 105.703L56.7211 112.741C55.664 113.209 55.0078 114.211 55.0088 115.355C55.0098 116.488 55.6831 117.516 56.7136 117.97C61.8861 120.285 72.4917 125.018 72.4917 125.018C74.8796 126.085 75.9146 126.204 77.6112 126.204L115.792 126.239C116.828 126.239 117.668 125.399 117.668 124.363C117.668 123.327 116.828 122.486 115.792 122.486C115.792 122.486 80.0836 122.487 79.929 122.489V117.237H162.839V122.486H125.109C124.072 122.486 123.233 123.327 123.233 124.363C123.233 125.399 124.072 126.239 125.109 126.239H175.423C179.655 126.239 183.099 122.802 183.099 118.576V112.145C183.099 107.92 179.655 104.482 175.423 104.482ZM65.8972 112.756V117.963C63.9532 117.095 62.0112 116.229 60.0652 115.358L65.8972 112.756ZM69.6501 119.639V111.081C69.6501 111.081 75.6176 108.455 76.1761 108.327V122.395C75.6176 122.266 71.0199 120.251 69.6501 119.639ZM79.9292 113.484V108.233C80.0838 108.234 80.2429 108.235 80.4118 108.235H162.839V113.484H79.9292ZM179.346 118.576C179.346 120.733 177.586 122.486 175.423 122.486H166.592V108.235H175.423C177.586 108.235 179.346 109.989 179.346 112.145V118.576Z" fill="#23263B"/>
<path d="M58.2247 98.2873L115.518 98.2803C116.554 98.2803 117.394 97.4398 117.394 96.4036C117.394 95.3673 116.554 94.5271 115.517 94.5274L58.7529 94.5341V17.9607H66.2549V80.69C66.2549 82.393 67.6415 83.7784 69.346 83.7784H147.155C148.441 83.7784 149.559 83.0841 150.004 82.0097C150.447 80.9382 150.153 79.7415 149.218 78.8083L88.2403 17.9607H157.257V77.4605C157.257 79.2136 158.685 80.6399 160.439 80.6399H168.71C172.55 80.6399 175.674 83.7548 175.674 87.5835C175.674 91.4122 172.55 94.5271 168.71 94.5271H124.132C123.096 94.5271 122.256 95.3673 122.256 96.4036C122.256 97.4398 123.096 98.28 124.132 98.28H168.71C174.619 98.28 179.426 93.4816 179.426 87.5835V17.2334C179.426 11.3314 174.619 6.52993 168.71 6.52993H160.439C158.684 6.52993 157.257 7.95303 157.257 9.70237V14.2081H84.4792L71.2262 0.983166C70.2885 0.0474466 69.0868 -0.242026 68.0113 0.20832C66.9354 0.659167 66.2459 1.77853 66.2549 3.047V14.2078H58.2245C56.4466 14.2078 55 15.6562 55 17.4366V95.0588C55 96.8386 56.4466 98.2873 58.2247 98.2873ZM161.01 10.2826H168.71C172.55 10.2826 175.674 13.4005 175.674 17.2332V79.459C173.799 77.856 171.366 76.8868 168.71 76.8868H161.01V10.2826ZM70.0078 5.06931L145.124 80.0257H129.035V77.3904C129.035 76.3541 128.195 75.514 127.159 75.514C126.122 75.514 125.282 76.3541 125.282 77.3904V80.0257H117.232V74.9105C117.232 73.8742 116.392 73.0341 115.356 73.0341C114.32 73.0341 113.479 73.8742 113.479 74.9105V80.0257H105.423V77.3904C105.423 76.3541 104.582 75.514 103.546 75.514C102.51 75.514 101.67 76.3541 101.67 77.3904V80.0257H93.62V74.9105C93.62 73.8742 92.7798 73.0341 91.7435 73.0341C90.7072 73.0341 89.8671 73.8742 89.8671 74.9105V80.0257H81.8106V77.3904C81.8106 76.3541 80.9705 75.514 79.9342 75.514C78.8979 75.514 78.0577 76.3541 78.0577 77.3904V80.0257H70.0078V5.06931Z" fill="#23263B"/>
<path d="M86.1415 66.3697H106.931C107.715 66.3697 109.173 66.3697 109.731 65.0199C110.281 63.6921 109.322 62.7356 108.622 62.0371L88.0405 41.5018C87.3414 40.7988 86.3837 39.8363 85.0542 40.3847C83.7031 40.9424 83.7031 42.3995 83.7031 43.1824V63.9328C83.7034 65.4132 84.6604 66.3697 86.1415 66.3697ZM87.4563 46.2199L103.89 62.6168H87.4563V46.2199Z" fill="#23263B"/>
<circle cx="20" cy="20" r="20" transform="matrix(-1 0 0 1 40 40)" fill="#2044F7"/>
<path fill-rule="evenodd" clip-rule="evenodd" d="M27.4996 54.6167C28.3988 55.4771 28.3984 56.9027 27.4996 57.7629L19.5413 64.5299C19.1047 64.9475 18.5422 65.1462 17.9991 65.1462C17.4569 65.1461 16.8939 64.9477 16.4569 64.5299L12.6739 60.9091C11.7751 60.0489 11.7746 58.6233 12.6739 57.7629C13.5333 56.941 14.8982 56.9414 15.7572 57.7629L17.9991 59.9072L24.4163 54.6167C25.2216 53.8465 26.4708 53.7973 27.3321 54.4714L27.4996 54.6167ZM13.738 58.9628C13.7317 58.9701 13.7275 58.9798 13.7216 58.9874C13.7397 58.964 13.7581 58.9405 13.7802 58.9194L13.738 58.9628Z" fill="white"/>
</svg>
