<svg width="178" height="128" viewBox="0 0 178 128" fill="none" xmlns="http://www.w3.org/2000/svg">
<path fill-rule="evenodd" clip-rule="evenodd" d="M51.2396 19.4725C50.0192 25.9105 51.8963 32.8326 56.864 37.7893C63.0878 43.9994 72.4022 45.3666 79.982 41.8913L88.2186 50.1096H99.189L98.7606 38.6867L90.9809 30.917C94.464 23.3539 93.0935 14.0603 86.8696 7.8502C81.902 2.89354 74.9643 1.02066 68.5121 2.23831C61.7386 3.513 66.8634 7.07388 67.5914 7.80016L76.3061 16.4956C79.3538 19.5366 79.4822 24.4289 76.6844 27.6265C73.4797 30.4181 68.5761 30.29 65.5286 27.249L56.8139 18.5538C56.0859 17.8276 52.517 12.7143 51.2396 19.4725Z" fill="#8895B8"/>
<path fill-rule="evenodd" clip-rule="evenodd" d="M104.07 65.9193L108.603 79.2794L128.966 90.7664L135.118 96.9052C131.635 104.468 133.006 113.762 139.229 119.972C144.197 124.929 151.134 126.801 157.587 125.584C164.36 124.309 159.235 120.748 158.507 120.022L149.793 111.327C146.745 108.286 146.617 103.393 149.414 100.196C152.619 97.404 157.523 97.5321 160.57 100.573L169.285 109.269C170.013 109.995 173.582 115.108 174.859 108.35C176.08 101.912 174.203 94.9898 169.235 90.0331C163.011 83.823 153.697 82.4558 146.117 85.9311L139.779 79.6072C137.788 80.1341 135.582 79.6214 134.033 78.076C131.721 75.7686 131.721 71.9943 134.033 69.6868L137.766 65.9551C135.125 68.59 130.8 68.59 128.159 65.9551C126.025 63.8258 125.611 60.5996 126.931 58.043C124.519 61.1766 112.906 49.8319 112.407 49.3333C107.368 45.2953 93.621 54.5534 104.07 65.9193Z" fill="#9CAAD2"/>
<path fill-rule="evenodd" clip-rule="evenodd" d="M134.033 69.6868C131.721 71.9943 131.721 75.7686 134.033 78.076C135.582 79.6214 137.787 80.134 139.779 79.6072C140.757 79.3507 141.678 78.8381 142.441 78.076L151.434 69.1029C153.747 66.7955 153.747 63.0212 151.434 60.7137C149.122 58.4063 145.339 58.4063 143.019 60.7137L142.884 60.8491L137.766 65.9553L134.033 69.6868Z" fill="white"/>
<path fill-rule="evenodd" clip-rule="evenodd" d="M120.487 44.8538L118.531 46.8052L117.31 48.5785C114.584 52.5239 121.072 60.3362 127.153 57.6515L132.62 56.2557L133.413 51.1281L135.211 49.3336C137.852 46.6986 137.852 42.3829 135.211 39.748C132.57 37.1131 128.245 37.1131 125.604 39.748L122.064 43.2804L120.487 44.8538Z" fill="white"/>
<path fill-rule="evenodd" clip-rule="evenodd" d="M115.997 30.1619L108.924 37.2194C104.035 42.0977 111.608 50.1094 118.531 46.8049L124.213 45.1099L125.605 39.7475C128.246 37.1125 128.246 32.7969 125.605 30.1619C122.964 27.527 118.638 27.527 115.997 30.1619Z" fill="white"/>
<path fill-rule="evenodd" clip-rule="evenodd" d="M86.8406 56.9249C87.1618 62.2233 84.6922 67.5788 77.3691 74.8784L69.418 82.8117L73.8147 100.281L95.848 109.183L108.595 96.4638C113.37 91.6996 114.298 92.7251 119.937 93.5297C122.463 93.8929 126.068 92.5469 128.966 90.7664L104.07 65.9193C107.118 61.1122 107.425 55.5716 104.57 52.1033C104.534 52.0606 104.563 52.0393 104.591 52.0678C105.869 53.3425 108.91 56.3762 109.009 56.4761C113.242 60.5568 122.335 64.0179 126.931 58.0427C127.003 57.9146 127.074 57.7793 127.153 57.6509C127.845 55.7923 124.54 52.8084 121.15 49.4184L118.53 46.8047L108.923 37.2191L107.153 35.453C105.74 34.043 103.413 34.043 101.993 35.4601L98.7599 38.6862L90.4377 46.9898C89.5241 47.9015 88.7818 48.9625 88.2181 50.1091C87.1618 52.2459 86.705 54.6672 86.8406 56.9249Z" fill="white"/>
<path fill-rule="evenodd" clip-rule="evenodd" d="M82.0017 11.9024C87.9185 17.8063 88.6466 25.7041 85.7845 33.0535C85.2706 34.3568 86.0199 34.8839 87.0264 35.8879L93.8927 42.7317L93.9212 43.515L98.7603 38.6867L90.9805 30.917C94.4636 23.3539 93.0931 14.0603 86.8693 7.8502C81.9018 2.89354 74.9642 1.02066 68.512 2.23831C64.3366 3.02164 64.6791 4.68111 65.7357 6.00559C71.5597 5.50722 77.5624 7.47993 82.0017 11.9024Z" fill="#B5BED7"/>
<path fill-rule="evenodd" clip-rule="evenodd" d="M115.069 43.3511L118.531 46.8052L120.487 44.8537L122.064 43.2798L125.604 39.7475C128.245 37.1125 128.245 32.7968 125.604 30.1619C124.519 29.0866 123.163 28.4526 121.75 28.2532C123.834 30.9097 123.649 34.7838 121.208 37.2264L117.668 40.7515L115.069 43.3511Z" fill="white"/>
<path fill-rule="evenodd" clip-rule="evenodd" d="M130.614 46.3779L124.348 52.6305C126.289 54.6602 127.617 56.412 127.153 57.6512C127.431 57.1954 127.766 56.761 128.159 56.3693L135.211 49.3331C137.852 46.6981 137.852 42.3824 135.211 39.7475C134.162 38.7077 132.848 38.074 131.485 37.8604C133.212 40.4813 132.927 44.0704 130.614 46.3779Z" fill="white"/>
<path fill-rule="evenodd" clip-rule="evenodd" d="M132.777 76.2314C133.063 76.9009 133.484 77.5276 134.034 78.0758C135.582 79.6212 137.788 80.1338 139.779 79.6069C140.757 79.3505 141.678 78.8378 142.441 78.0758L151.435 69.1027C153.747 66.7952 153.747 63.0209 151.435 60.7135C150.599 59.8804 149.579 59.3462 148.501 59.1183C149.429 61.2831 149.015 63.9041 147.245 65.6631L138.252 74.6362C137.495 75.3983 136.567 75.9109 135.59 76.1674C134.669 76.4095 133.705 76.4308 132.777 76.2314Z" fill="white"/>
<path fill-rule="evenodd" clip-rule="evenodd" d="M146.724 91.8632C160.149 88.1673 169.407 95.3385 174.86 108.35C176.08 101.912 174.203 94.9895 169.235 90.0329C163.011 83.8228 153.697 82.4555 146.117 85.9309L139.779 79.6069C137.788 80.1338 135.582 79.6212 134.033 78.0758C133.484 77.5274 133.063 76.9007 132.777 76.2314C131.849 74.0666 132.263 71.4457 134.033 69.6866L137.766 65.9549C135.125 68.5898 130.8 68.5898 128.159 65.9549C127.802 65.5988 127.495 65.2213 127.238 64.8155C125.932 62.7715 125.832 60.1723 126.931 58.043C122.335 64.0179 104.962 52.2175 109.009 56.4764L140.293 89.3424C143.662 92.8817 142.477 93.0313 146.724 91.8632Z" fill="#B5BED7"/>
<path fill-rule="evenodd" clip-rule="evenodd" d="M109.009 56.4761C113.242 60.5569 122.335 64.0179 126.931 58.0427C127.003 57.9146 127.074 57.7793 127.152 57.651C127.616 56.4118 126.289 54.66 124.347 52.6302C122.627 54.0973 120.508 54.6385 118.316 54.5602C118.223 54.5532 118.138 54.5532 118.045 54.5459C114.155 54.311 110.072 52.1531 107.624 49.7887C107.596 49.7601 107.224 49.3899 106.704 48.87C106.075 48.2505 105.99 48.1507 105.226 47.3959C104.762 46.819 103.876 47.2911 103.729 47.5813C103.216 48.6025 103.245 49.0338 103.417 50.1091C103.56 51.0421 104.248 51.7328 104.612 52.0676C106.054 53.4994 108.923 56.3908 109.009 56.4761Z" fill="white"/>
<path fill-rule="evenodd" clip-rule="evenodd" d="M53.8021 98.3938L80.2321 124.765C80.8959 125.427 81.731 125.826 82.5946 125.954H83.9151C84.7858 125.826 85.6139 125.428 86.2776 124.765L95.8489 115.215C97.5119 113.556 97.5119 110.842 95.8489 109.183L69.4187 82.8118C67.7557 81.1526 65.0362 81.1526 63.3732 82.8118L53.8019 92.3618C52.1389 94.0211 52.1389 96.7343 53.8021 98.3938Z" fill="#2044F7"/>
<path fill-rule="evenodd" clip-rule="evenodd" d="M72.6299 117.18L80.2312 124.765C80.895 125.427 81.7301 125.826 82.5937 125.954H83.9142C84.7849 125.826 85.613 125.427 86.2767 124.765L95.848 115.215C97.511 113.555 97.511 110.842 95.848 109.183L88.2394 101.591C89.9024 103.25 89.9024 105.964 88.2394 107.623L78.6681 117.173C78.0043 117.835 77.1765 118.234 76.3129 118.37H74.9854C74.1217 118.234 73.2936 117.836 72.6299 117.18Z" fill="#6E87FF"/>
<path fill-rule="evenodd" clip-rule="evenodd" d="M102.729 90.617L89.9814 103.336L95.8485 109.183L108.596 96.4638C113.371 91.6996 114.299 92.7251 119.937 93.5297C122.464 93.8929 126.068 92.5469 128.966 90.7664L123.106 84.9125C122.371 85.3611 121.593 85.7884 120.801 86.1587C118.453 87.2625 115.962 87.9463 114.07 87.6756C108.439 86.871 107.504 85.8527 102.729 90.617Z" fill="white"/>
<path fill-rule="evenodd" clip-rule="evenodd" d="M125.14 59.8376C123.82 62.3872 124.227 65.6131 126.368 67.7424C129.009 70.3846 133.334 70.3846 135.975 67.7424L140.872 66.0832L143.02 60.7135C145.668 58.0785 145.668 53.7629 143.02 51.1279C140.379 48.493 136.054 48.493 133.413 51.1279L126.368 58.1568C125.968 58.5556 125.633 58.983 125.355 59.4458C125.305 59.5811 125.233 59.7095 125.14 59.8376Z" fill="white"/>
<path fill-rule="evenodd" clip-rule="evenodd" d="M138.858 49.1767C140.536 51.7974 140.229 55.3367 137.938 57.6229L130.893 64.6591C129.408 66.1332 127.396 66.7884 125.447 66.6033C125.704 67.0094 126.011 67.3939 126.368 67.7426C129.009 70.3848 133.334 70.3848 135.975 67.7426L143.02 60.7137C145.668 58.0788 145.668 53.7631 143.02 51.1281C141.863 49.967 140.386 49.3191 138.858 49.1767Z" fill="white"/>
<path d="M170.561 88.7046C164.281 82.4395 154.781 80.5101 146.549 83.7114L142.945 80.1153C143.231 79.8999 143.506 79.6639 143.767 79.404L152.759 70.4309C154.233 68.9603 155.045 66.9988 155.045 64.9078C155.045 62.8168 154.233 60.8553 152.759 59.3847H152.76C151.125 57.7543 148.943 56.9982 146.799 57.1145C146.852 56.722 146.881 56.3235 146.881 55.9202C146.881 53.6017 145.98 51.4279 144.344 49.7991C142.757 48.2157 140.703 47.3761 138.62 47.2798C139.613 44.2656 138.915 40.799 136.536 38.4188C134.591 36.4778 131.944 35.6565 129.403 35.9502C129.44 35.6219 129.461 35.2899 129.461 34.9544C129.461 32.636 128.562 30.4621 126.929 28.8332C123.55 25.4612 118.051 25.4614 114.672 28.8332L108.924 34.5682L108.479 34.1243C106.328 31.9778 102.824 31.9808 100.668 34.1316L98.7608 36.0347L93.2019 30.4834C96.4093 22.2658 94.4741 12.7873 88.1942 6.52147C82.9659 1.30462 75.4769 -0.986072 68.165 0.394446C67.1184 0.591342 63.9343 1.19053 63.2809 3.62683C62.6419 6.00959 64.9141 7.96278 66.0064 8.90147C66.1169 8.99654 74.9807 17.8241 74.9807 17.8241C77.2822 20.1205 77.4368 23.8167 75.355 26.2946C72.8687 28.3743 69.1587 28.2207 66.854 25.921C66.854 25.921 58.007 17.0768 57.9114 16.9662C56.9704 15.8766 55.0115 13.6104 52.6287 14.2502C50.1929 14.9052 49.5925 18.0805 49.3954 19.123C48.0116 26.4244 50.3078 33.8989 55.5381 39.1175C61.8173 45.3824 71.317 47.3118 79.5496 44.1107L85.9854 50.5319C85.1998 52.5614 84.8335 54.7951 84.9679 57.0382C85.2731 62.0727 82.6044 67.0106 76.0438 73.5502L69.21 80.3687C66.897 79.1823 63.9829 79.5524 62.0474 81.4833L52.4764 91.0331C51.3165 92.1902 50.6781 93.7331 50.6781 95.3775C50.6781 97.022 51.3168 98.5649 52.4761 99.7217L78.9064 126.093C80.105 127.289 81.6797 127.887 83.2543 127.887C84.829 127.887 86.4037 127.289 87.6026 126.093L97.1736 116.543C98.3335 115.386 98.9719 113.843 98.9719 112.198C98.9719 111.204 98.737 110.248 98.2962 109.391L109.921 97.7916C113.367 94.3538 113.927 94.4468 117.576 95.056C118.191 95.1586 118.887 95.275 119.67 95.3865C122.856 95.8441 126.555 94.2254 128.654 93.1044L132.896 97.3382C131.777 100.212 131.257 103.337 131.388 106.455C131.43 107.464 132.261 108.253 133.261 108.253C133.288 108.253 133.315 108.253 133.342 108.251C134.377 108.208 135.181 107.333 135.137 106.298C135.013 103.325 135.595 100.349 136.822 97.6917C137.152 96.9772 137.001 96.1328 136.444 95.5769L106.418 65.6116C107.64 63.3106 108.331 60.8633 108.407 58.4605C110.568 60.3184 113.411 61.832 116.19 62.5791C118.465 63.1908 120.595 63.2904 122.507 62.8946C122.507 62.9158 122.505 62.9368 122.505 62.9581C122.507 65.2733 123.408 67.4449 125.04 69.0689C126.576 70.6048 128.594 71.4909 130.761 71.5902C130.538 72.3225 130.422 73.0926 130.422 73.8809C130.422 75.972 131.234 77.9334 132.708 79.4037C134.232 80.9249 136.234 81.6854 138.237 81.6852C138.542 81.6852 138.847 81.6654 139.15 81.6299L144.792 87.2585C145.346 87.8122 146.187 87.9626 146.899 87.6358C153.979 84.3897 162.423 85.8863 167.91 91.3606C172.26 95.7005 174.168 101.921 173.016 108C172.823 109.019 172.604 109.552 172.463 109.813C172.194 109.636 171.751 109.24 171.028 108.402C170.866 108.214 161.895 99.2439 161.895 99.2439C158.172 95.5286 152.149 95.3247 148.182 98.78C148.118 98.8358 148.058 98.8954 148.002 98.9592C144.536 102.92 144.741 108.936 148.467 112.654L159.054 123.19C158.79 123.331 158.255 123.548 157.239 123.739C151.143 124.889 144.906 122.985 140.558 118.646C139.178 117.264 138.033 115.692 137.152 113.974C136.679 113.051 135.549 112.687 134.626 113.16C133.704 113.633 133.34 114.764 133.812 115.686C134.871 117.751 136.246 119.639 137.904 121.3C142.13 125.517 147.833 127.822 153.725 127.821C155.123 127.821 156.532 127.692 157.933 127.427C158.98 127.23 162.164 126.631 162.818 124.195C163.457 121.812 161.184 119.859 160.092 118.92C159.981 118.825 151.118 109.998 151.118 109.998C148.816 107.701 148.662 104.005 150.743 101.527C153.23 99.4473 156.94 99.6012 159.244 101.901C159.244 101.901 168.091 110.745 168.187 110.855C169.128 111.945 171.088 114.212 173.47 113.571C175.905 112.916 176.505 109.741 176.703 108.699C178.087 101.398 175.791 93.9235 170.561 88.7046ZM133.884 41.0742C135.763 42.9538 135.792 46.0301 133.952 47.9385L127.921 53.9567C126.885 52.4564 121.188 46.8052 121.188 46.8052L126.929 41.076C128.847 39.162 131.968 39.1626 133.884 41.0742ZM117.322 31.4904C119.24 29.5767 122.362 29.5772 124.279 31.4904C125.201 32.4103 125.708 33.6407 125.708 34.9549C125.708 36.2692 125.201 37.4996 124.279 38.4195L118.531 44.1545L111.58 37.2196L117.322 31.4904ZM81.3069 40.5631C80.7525 40.0097 79.9124 39.8593 79.1996 40.1858C72.1189 43.4317 63.6754 41.9353 58.1891 36.4611C53.8391 32.1211 51.9302 25.901 53.0828 19.8213C53.2757 18.8028 53.4944 18.2694 53.6352 18.0087C53.9049 18.1856 54.3475 18.5814 55.0708 19.4192C55.2332 19.6074 64.2033 28.5777 64.2033 28.5777C67.9268 32.2932 73.9502 32.4971 77.9167 29.0416C77.9805 28.986 78.0402 28.926 78.0963 28.8625C81.5623 24.9015 81.3579 18.8861 77.6312 15.1676C77.6312 15.1676 67.2235 4.90127 67.0446 4.63182C67.3083 4.49072 67.8437 4.27356 68.86 4.08217C74.9552 2.93182 81.1928 4.83672 85.544 9.17843C91.0283 14.6505 92.5282 23.0709 89.2763 30.1319C88.9475 30.8459 89.0987 31.689 89.6548 32.2444L96.1048 38.686L89.1129 45.6621C88.6638 46.1104 88.251 46.5968 87.8685 47.1094L81.3069 40.5631ZM125.042 56.8286C124.557 57.3134 124.137 57.8471 123.785 58.417C119.788 60.8936 113.468 58.1656 110.323 55.1361L109.933 54.7476C107.058 51.8824 105.529 50.3571 105.388 50.2125C105.386 50.2099 105.383 50.208 105.381 50.2054C105.374 50.1984 105.367 50.1909 105.36 50.1839C105.35 50.1739 105.34 50.1667 105.33 50.1577C104.613 49.4707 103.476 49.4586 102.745 50.1487C101.992 50.8607 101.959 52.0483 102.671 52.8014C102.678 52.8084 102.689 52.8201 102.709 52.8401C103.99 54.1181 104.667 55.9082 104.667 58.0167C104.667 61.3337 102.972 65.0051 100.133 67.838C99.399 68.57 99.3978 69.7579 100.13 70.4914C100.496 70.8587 100.977 71.0426 101.458 71.0426C101.938 71.0426 102.417 70.8599 102.784 70.4944C103.327 69.952 103.831 69.3846 104.303 68.8014L125.859 90.3143C123.673 91.3398 121.558 91.8667 120.202 91.6716C119.461 91.5657 118.788 91.4534 118.194 91.3543C113.846 90.6288 111.897 90.5179 107.27 95.1348L95.8481 106.532L86.4102 97.1148C85.6766 96.3828 84.4885 96.384 83.7567 97.1178C83.0247 97.8514 83.0262 99.0395 83.76 99.7713L94.5192 110.506C94.5194 110.507 94.5199 110.507 94.5202 110.508L94.5214 110.509L94.5234 110.511C94.9722 110.959 95.2194 111.558 95.2194 112.199C95.2194 112.839 94.9722 113.439 94.5232 113.886L84.9516 123.436C84.0154 124.37 82.4925 124.37 81.5568 123.436L55.1268 97.0655C54.678 96.6174 54.4308 96.018 54.4308 95.3778C54.4308 94.7376 54.678 94.1379 55.1271 93.69L64.6981 84.14C65.6343 83.2063 67.1572 83.2066 68.0929 84.14L77.5571 93.5832C78.2909 94.315 79.4788 94.314 80.2108 93.5802C80.9429 92.8467 80.9414 91.6585 80.2078 90.9268L72.0746 82.8118L78.6937 76.2071C86.0937 68.8307 89.0904 63.0302 88.7136 56.8126C88.5237 53.6397 89.6923 50.3848 91.7629 48.3183L103.319 36.7886C104.001 36.1075 105.15 36.1048 105.828 36.7813L107.595 38.5443L119.824 50.7463C120.154 51.0756 120.483 51.4013 120.808 51.7226C122.362 53.26 124.603 55.4766 125.212 56.6585L125.042 56.8286ZM131.171 67.8477C129.852 67.8477 128.618 67.3393 127.691 66.4124C126.768 65.4937 126.259 64.2661 126.258 62.9559C126.257 61.6421 126.767 60.4095 127.693 59.4853L134.738 52.4564C135.697 51.4997 136.956 51.0213 138.216 51.0213C139.475 51.0213 140.735 51.4997 141.694 52.4564C141.694 52.4569 141.695 52.4576 141.696 52.4581C142.62 53.3778 143.129 54.6074 143.129 55.9209C143.129 57.2334 142.62 58.4625 141.695 59.384C141.695 59.3847 141.694 59.3852 141.693 59.386L134.648 66.4162C133.725 67.3393 132.49 67.8477 131.171 67.8477ZM135.359 76.7478C134.595 75.9865 134.175 74.9685 134.175 73.8814C134.175 72.7944 134.596 71.7764 135.359 71.0146L144.345 62.0419C145.14 61.2491 146.183 60.8528 147.227 60.8528C148.271 60.8528 149.315 61.2491 150.109 62.0419H150.109C150.872 62.8032 151.293 63.8213 151.293 64.9083C151.293 65.9954 150.872 67.0134 150.109 67.7747L141.117 76.7478C139.529 78.3315 136.945 78.3312 135.359 76.7478Z" fill="#23263B"/>
<circle cx="20" cy="20" r="20" transform="matrix(-1 0 0 1 40 42)" fill="#2044F7"/>
<path fill-rule="evenodd" clip-rule="evenodd" d="M27.4996 56.6167C28.3988 57.4771 28.3984 58.9027 27.4996 59.7629L19.5413 66.5299C19.1047 66.9475 18.5422 67.1462 17.9991 67.1462C17.4569 67.1461 16.8939 66.9477 16.4569 66.5299L12.6739 62.9091C11.7751 62.0489 11.7746 60.6233 12.6739 59.7629C13.5333 58.941 14.8982 58.9414 15.7572 59.7629L17.9991 61.9072L24.4163 56.6167C25.2216 55.8465 26.4708 55.7973 27.3321 56.4714L27.4996 56.6167ZM13.738 60.9628C13.7317 60.9701 13.7275 60.9798 13.7216 60.9874C13.7397 60.964 13.7581 60.9405 13.7802 60.9194L13.738 60.9628Z" fill="white"/>
</svg>
