<svg width="167" height="129" viewBox="0 0 167 129" fill="none" xmlns="http://www.w3.org/2000/svg">
<path fill-rule="evenodd" clip-rule="evenodd" d="M126.99 10.0948C130.841 11.068 134.467 12.5889 137.798 14.5642L140.919 11.4501C142.408 9.96493 144.843 9.96493 146.331 11.4501L155.376 20.4685C156.858 21.9536 156.858 24.383 155.376 25.8679L152.248 28.9821C154.228 32.3054 155.752 35.9314 156.735 39.7666H161.142C163.244 39.7666 164.971 41.4824 164.971 43.58V56.3398C164.971 58.4447 163.244 60.1605 161.142 60.1605H156.735C155.752 63.9957 154.228 67.6218 152.248 70.9378L155.376 74.0592C156.858 75.5444 156.858 77.9737 155.376 79.4586L146.331 88.4771C144.842 89.9622 142.407 89.9622 140.919 88.4771L137.798 85.3629C134.467 87.3382 130.841 88.8521 126.99 89.8324V94.237C126.99 96.3349 125.27 98.0504 123.168 98.0504H110.38C108.277 98.0504 106.55 96.3346 106.55 94.237V89.8324C102.707 88.8519 99.0726 87.3382 95.7491 85.3629L92.6279 88.4771C91.1395 89.9622 88.7047 89.9622 87.2165 88.4771L78.1708 79.4586C76.6824 77.9735 76.6824 75.5441 78.1708 74.0592L81.292 70.9451C79.3194 67.6218 77.795 63.9957 76.8125 60.1605H72.4054C70.2957 60.1605 68.5762 58.4447 68.5762 56.3398V43.58C68.5762 41.4822 70.2957 39.7666 72.4054 39.7666H76.8125C77.795 35.9314 79.3197 32.3054 81.292 28.9821L78.1708 25.8679C76.6824 24.3828 76.6824 21.9534 78.1708 20.4685L87.2165 11.4501C88.7049 9.96493 91.1398 9.96493 92.6279 11.4501L95.7491 14.5642C99.0799 12.5889 102.707 11.075 106.55 10.0948V5.69014C106.55 3.59228 108.277 1.87671 110.38 1.87671H123.168C125.27 1.87671 126.99 3.59253 126.99 5.69014V10.0948Z" fill="#2044F7"/>
<path fill-rule="evenodd" clip-rule="evenodd" d="M155.377 20.4683L146.331 11.4498C144.843 9.96468 142.408 9.96468 140.92 11.4498L137.799 14.564C134.468 12.5887 130.841 11.0678 126.99 10.0945V5.69014C126.99 3.59228 125.27 1.87671 123.168 1.87671H114.513C117.056 7.13926 119.216 12.964 120.914 19.2213C136.123 21.2471 147.856 34.2373 147.856 49.9599C147.856 64.7743 137.452 77.1591 123.537 80.2372C123.168 80.3238 122.793 80.3959 122.424 80.4679C121.08 86.7252 119.303 92.6293 117.143 98.0504H123.168C125.271 98.0504 126.99 96.3346 126.99 94.237V89.8324C130.841 88.8519 134.468 87.3382 137.799 85.3629L140.92 88.4771C142.408 89.9622 144.843 89.9622 146.331 88.4771L155.377 79.4586C156.858 77.9735 156.858 75.5441 155.377 74.0592L152.249 70.9378C154.228 67.6218 155.753 63.9957 156.735 60.1605H161.143C163.245 60.1605 164.972 58.4447 164.972 56.3398V43.58C164.972 41.4822 163.245 39.7666 161.143 39.7666H156.735C155.753 35.9314 154.228 32.3054 152.249 28.9821L155.377 25.8679C156.858 24.3828 156.858 21.9534 155.377 20.4683Z" fill="#6E87FF"/>
<path fill-rule="evenodd" clip-rule="evenodd" d="M116.773 80.9725C133.889 80.9725 147.855 67.0451 147.855 49.9599C147.855 32.882 133.889 18.9473 116.773 18.9473C99.6499 18.9473 85.6914 32.882 85.6914 49.9599C85.6912 67.0448 99.6499 80.9725 116.773 80.9725Z" fill="white"/>
<path fill-rule="evenodd" clip-rule="evenodd" d="M123.536 65.4589C130.334 62.9429 135.219 56.3901 135.219 48.7558C135.219 42.6571 132.105 37.2504 127.394 34.0425C122.445 30.6686 123.399 35.996 123.399 36.8899V47.5879C123.399 51.3293 120.458 54.4146 116.773 54.6598C113.088 54.4146 110.148 51.3293 110.148 47.5879V36.8899C110.148 35.996 111.102 30.6686 106.153 34.0425C101.435 37.2504 98.3281 42.6571 98.3281 48.7558C98.3281 56.3899 103.212 62.9429 110.011 65.4589V80.237C112.186 80.7201 114.454 80.9723 116.773 80.9723C119.093 80.9723 121.354 80.7201 123.536 80.237V65.4589Z" fill="#9CAAD2"/>
<path fill-rule="evenodd" clip-rule="evenodd" d="M123.536 80.2373V65.4592C130.335 62.9432 135.219 56.3904 135.219 48.7561C135.219 42.6574 132.105 37.2507 127.394 34.0428C126.34 33.322 125.552 32.9975 124.967 32.9399C128.594 36.2054 130.877 40.9273 130.877 46.1538C130.877 53.507 126.354 59.8506 119.938 62.5612C118.876 63.008 119.194 64.2625 119.194 65.5385V80.8863C120.668 80.7707 122.12 80.5545 123.536 80.2373Z" fill="#B5BED7"/>
<path fill-rule="evenodd" clip-rule="evenodd" d="M59.4502 93.5305L51.1631 106.506L59.4502 119.23L75.4608 121.998L97.3163 125.783C99.5128 126.28 103.335 126.619 107.67 125.329L147.436 113.47C154.379 111.401 152.349 101.475 144.459 103.436L140.377 104.387L119.114 109.347C117.756 109.664 116.506 109.729 115.27 109.678C113.493 109.599 111.744 109.282 109.757 109.13L95.5675 106.766C89.8886 105.425 91.5144 98.4685 96.4056 98.8288H100.921C111.007 98.8288 110.798 86.6602 101.918 85.204H96.0446C93.9422 85.204 92.0348 85.2616 90.1058 85.4347C85.8648 85.8095 81.5009 86.7395 74.6589 88.8446L64.9992 91.8219L59.4502 93.5305Z" fill="white"/>
<path fill-rule="evenodd" clip-rule="evenodd" d="M42.877 93.2492V119.764V119.785C42.8842 121.35 44.1702 122.633 45.7452 122.633H56.5825C58.1647 122.633 59.4507 121.342 59.4507 119.763V119.23V93.5302V93.249C59.4507 91.6703 58.1647 90.3798 56.5825 90.3798H45.7452C44.1702 90.3798 42.884 91.663 42.877 93.2272V93.2492Z" fill="#2044F7"/>
<path fill-rule="evenodd" clip-rule="evenodd" d="M59.4512 110.767V119.23L75.4617 121.998L97.3173 125.783C99.5137 126.28 103.336 126.619 107.671 125.329L147.437 113.47C151.895 112.137 152.653 107.573 150.536 104.992C149.843 105.85 148.817 106.55 147.437 106.932L140.378 108.885L117.576 116.188L106.291 119.302C101.956 120.499 99.0514 119.158 96.8549 118.61C84.2327 116.152 72.0731 113.232 59.4512 110.767Z" fill="white"/>
<path fill-rule="evenodd" clip-rule="evenodd" d="M59.451 119.23V110.767C59.451 112.345 58.165 113.636 56.5827 113.636H55.8097H45.7452C44.1702 113.636 42.884 112.353 42.877 110.788V119.764V119.785C42.8842 121.35 44.1702 122.633 45.7452 122.633H56.5825C58.1647 122.633 59.4507 121.342 59.4507 119.763L59.451 119.23Z" fill="#6E87FF"/>
<path d="M116.774 17.0707C111.954 17.0707 107.295 18.0915 102.926 20.1048C101.984 20.5383 101.573 21.6532 102.007 22.5944C102.44 23.5357 103.555 23.9475 104.496 23.5134C108.37 21.7288 112.5 20.8238 116.774 20.8238C132.877 20.8238 145.979 33.8941 145.979 49.96C145.979 63.0298 137.312 74.1173 125.413 77.8016V66.7181C132.452 63.5599 137.095 56.5008 137.095 48.756C137.095 42.258 133.863 36.1781 128.451 32.4923C127.655 31.9496 125.232 30.2974 123.197 31.4708C121.207 32.6189 121.521 36.8276 121.522 36.8904V47.5881C121.522 50.2802 119.447 52.5362 116.774 52.7781C114.101 52.5362 112.025 50.2802 112.025 47.5881V36.8974C112.026 36.8276 112.34 32.6189 110.35 31.4708C108.316 30.2981 105.892 31.9496 105.098 32.491C99.6839 36.1721 96.4516 42.2525 96.4516 48.756C96.4516 56.5008 101.095 63.5599 108.134 66.7181V77.8016C96.235 74.1173 87.5683 63.0295 87.5683 49.96C87.5683 41.5715 91.1979 33.5864 97.5262 28.0516C98.3063 27.3693 98.3856 26.1839 97.7034 25.4038C97.0211 24.6237 95.8354 24.5442 95.0556 25.2267C87.9123 31.4743 83.8154 40.4889 83.8154 49.96C83.8154 68.0992 98.6006 82.8565 116.774 82.8565C134.947 82.8565 149.732 68.0992 149.732 49.96C149.732 31.8248 134.947 17.0707 116.774 17.0707ZM111.888 78.6933V65.4591C111.888 64.6738 111.399 63.9718 110.662 63.6993C104.407 61.3848 100.205 55.3796 100.205 48.7563C100.205 43.4968 102.823 38.5765 107.21 35.5937C107.715 35.2497 108.081 35.0568 108.331 34.9492L108.272 47.5886C108.272 52.2915 111.952 56.2203 116.649 56.533C116.732 56.5383 116.815 56.5383 116.898 56.533C121.596 56.2203 125.276 52.2913 125.276 47.5886L125.217 34.9492C125.467 35.0573 125.833 35.2499 126.338 35.5942C130.724 38.5807 133.343 43.5013 133.343 48.7563C133.343 55.3796 129.14 61.3848 122.885 63.6993C122.149 63.972 121.66 64.674 121.66 65.4591V78.6933C120.07 78.9615 118.439 79.1034 116.774 79.1034C115.109 79.1034 113.477 78.9615 111.888 78.6933Z" fill="#23263B"/>
<path d="M161.143 37.8906H158.165C157.292 34.9058 156.094 32.0259 154.59 29.2963L156.704 27.1922C158.918 24.973 158.918 21.3624 156.701 19.1407L147.657 10.121C145.435 7.90433 141.817 7.90433 139.593 10.121L137.486 12.2252C134.741 10.7215 131.852 9.52558 128.867 8.65966V5.68988C128.867 2.55196 126.309 0 123.167 0H110.379C107.234 0 104.674 2.55196 104.674 5.68963V8.66216C101.68 9.53533 98.7922 10.7288 96.0626 12.2249L93.9535 10.1208C91.7293 7.90408 88.1137 7.90408 85.892 10.1208L76.8448 19.1405C75.7715 20.2138 75.1785 21.6424 75.1785 23.1688C75.1785 24.6925 75.7715 26.1236 76.8448 27.1969L78.9514 29.296C77.4503 32.0309 76.2544 34.9106 75.3809 37.8904H72.4062C69.2585 37.8904 66.699 40.4426 66.699 43.58V56.3403C66.699 59.4805 69.2585 62.0375 72.4062 62.0375H75.3809C76.2541 65.015 77.45 67.8947 78.9514 70.6293L76.8448 72.7309C75.769 73.8043 75.1785 75.2329 75.1785 76.7593C75.1785 78.283 75.7715 79.7143 76.8448 80.7876L81.1459 85.0762C79.0843 85.5816 76.7823 86.2271 74.1077 87.0502L60.8277 91.1418C60.0499 89.5809 58.4417 88.5036 56.5827 88.5036H45.7449C43.1286 88.5036 41 90.6325 41 93.2492V119.764C41 122.38 43.1286 124.51 45.7449 124.51H56.5825C58.6206 124.51 60.3576 123.215 61.0279 121.407L72.6561 123.422C72.7637 123.44 72.8713 123.45 72.9788 123.45C73.8745 123.45 74.6676 122.807 74.8253 121.894C75.0004 120.873 74.3174 119.902 73.2966 119.725L61.3271 117.652V94.917L75.2106 90.6387C78.8411 89.5229 81.7458 88.7448 84.2903 88.2094C85.9566 87.8591 87.4652 87.6114 88.9191 87.4413C89.6947 87.3487 90.4553 87.2786 91.2134 87.2261C92.7796 87.116 94.3458 87.081 96.0448 87.081H101.757C105.217 87.714 106.836 90.391 106.643 92.7431C106.553 93.8639 106.028 95.0301 104.91 95.8482C104.001 96.5162 102.698 96.9541 100.921 96.9541H96.4704C92.8649 96.7239 90.5706 99.2684 90.1628 101.918C89.7675 104.475 91.1586 107.653 95.1369 108.594C95.1769 108.604 95.2194 108.611 95.2595 108.619L109.448 110.983C109.503 110.99 109.558 110.998 109.614 111.003C110.454 111.065 111.267 111.163 112.053 111.258C114.482 111.546 116.777 111.821 119.541 111.176L144.884 105.263C144.894 105.261 144.904 105.258 144.912 105.258C147.809 104.538 149.271 105.856 149.673 107.332C150.101 108.899 149.416 110.923 146.899 111.673L107.134 123.531C102.74 124.839 99.0952 124.261 97.7316 123.953C97.6991 123.946 97.6691 123.941 97.6366 123.936L82.4444 121.304C81.4236 121.129 80.4503 121.812 80.2752 122.832C80.0976 123.853 80.7806 124.824 81.8039 125.002L96.951 127.624C97.8317 127.822 99.4454 128.099 101.527 128.099C103.431 128.099 105.726 127.867 108.208 127.129L147.972 115.269C152.634 113.88 154.192 109.634 153.294 106.344C152.428 103.174 149.158 100.342 144.021 101.61L118.688 107.52C116.567 108.016 114.68 107.79 112.498 107.53C111.698 107.435 110.872 107.338 109.987 107.268L95.9428 104.928C94.4666 104.56 93.6935 103.652 93.8712 102.489C94.0213 101.523 94.8219 100.595 96.268 100.702C96.3155 100.705 96.3606 100.707 96.4056 100.707H100.921C103.536 100.707 105.59 100.002 107.109 98.8936C108.035 99.5466 109.163 99.9269 110.379 99.9269H123.167C126.31 99.9269 128.867 97.3749 128.867 94.2372V91.2672C131.864 90.394 134.751 89.1981 137.486 87.7017L139.595 89.8058C141.817 92.0225 145.432 92.0225 147.657 89.8058L156.704 80.7836C158.918 78.5644 158.918 74.9539 156.701 72.7322L154.59 70.6256C156.093 67.9007 157.289 65.0235 158.165 62.0387H161.142C164.288 62.0387 166.847 59.4817 166.847 56.3416V43.5813C166.847 40.4426 164.288 37.8906 161.143 37.8906ZM56.5825 120.756H45.7449C45.2072 120.756 44.7531 120.302 44.7531 119.764V93.2492C44.7531 92.7113 45.2075 92.2567 45.7449 92.2567H56.5825C57.1294 92.2567 57.5742 92.7018 57.5742 93.2492V93.4982C57.574 93.5169 57.574 93.5359 57.5742 93.555V119.764C57.5742 120.311 57.1292 120.756 56.5825 120.756ZM163.094 56.3406C163.094 57.4114 162.218 58.2846 161.143 58.2846H156.734C155.878 58.2846 155.13 58.865 154.918 59.6957C153.989 63.3112 152.551 66.7714 150.637 69.9766C150.196 70.7146 150.314 71.6579 150.922 72.2661L154.047 75.3835C154.802 76.1416 154.802 77.375 154.052 78.1306L145.004 87.1478C144.244 87.9084 143.005 87.9084 142.245 87.1478L139.125 84.0354C138.517 83.4299 137.579 83.3123 136.841 83.7477C133.628 85.6541 130.158 87.0905 126.527 88.0137C125.694 88.2264 125.114 88.9744 125.114 89.8326V94.2362C125.114 95.3046 124.241 96.1727 123.167 96.1727H110.379C110.089 96.1727 109.811 96.1102 109.564 95.9926C110.032 95.0544 110.302 94.0486 110.384 93.0451C110.717 88.9494 108.023 84.3031 102.223 83.3524C102.123 83.3348 102.02 83.3273 101.92 83.3273H96.0451C92.347 83.3273 89.2471 83.485 85.5265 84.143L79.4966 78.1306C79.1313 77.7653 78.9312 77.2799 78.9312 76.7595C78.9312 76.2391 79.1313 75.7513 79.4966 75.3885L82.6168 72.2733C83.2247 71.6679 83.3448 70.7246 82.9045 69.9866C80.993 66.7638 79.5541 63.3012 78.6309 59.6957C78.4183 58.865 77.6702 58.2846 76.812 58.2846H72.4059C71.3276 58.2846 70.4519 57.4114 70.4519 56.3406V43.5803C70.4519 42.5119 71.3276 41.6438 72.4059 41.6438H76.812C77.6702 41.6438 78.4183 41.0633 78.6309 40.2327C79.5541 36.6247 80.9928 33.162 82.9045 29.9393C83.3448 29.2012 83.2247 28.2605 82.6168 27.6525L79.4966 24.5401C79.1313 24.1748 78.9312 23.6895 78.9312 23.1691C78.9312 22.6487 79.1313 22.1608 79.4966 21.798L88.5413 12.7783C89.3019 12.0202 90.5404 12.0202 91.3009 12.7783L94.4236 15.8932C95.0291 16.4987 95.9698 16.6163 96.7053 16.1784C99.9178 14.2745 103.386 12.8384 107.014 11.9124C107.844 11.7023 108.427 10.9517 108.427 10.096V5.68963C108.427 4.6213 109.303 3.75314 110.379 3.75314H123.167C124.24 3.75314 125.113 4.6213 125.113 5.68963V10.0958C125.113 10.9539 125.696 11.7045 126.529 11.9147C130.137 12.8254 133.607 14.2615 136.84 16.1779C137.578 16.6158 138.516 16.4982 139.124 15.8927L142.244 12.7778C143.005 12.0197 144.243 12.0197 145.006 12.7778L154.046 21.7925C154.802 22.5506 154.802 23.784 154.051 24.5371L150.924 27.652C150.314 28.26 150.196 29.2032 150.636 29.9413C152.55 33.1565 153.992 36.6192 154.917 40.2322C155.13 41.0628 155.878 41.6433 156.734 41.6433H161.143C162.218 41.6433 163.094 42.5114 163.094 43.5798V56.3406Z" fill="#23263B"/>
<circle cx="20" cy="20" r="20" transform="matrix(-1 0 0 1 40 42)" fill="#2044F7"/>
<path fill-rule="evenodd" clip-rule="evenodd" d="M27.4996 56.6167C28.3988 57.4771 28.3984 58.9027 27.4996 59.7629L19.5413 66.5299C19.1047 66.9475 18.5422 67.1462 17.9991 67.1462C17.4569 67.1461 16.8939 66.9477 16.4569 66.5299L12.6739 62.9091C11.7751 62.0489 11.7746 60.6233 12.6739 59.7629C13.5333 58.941 14.8982 58.9414 15.7572 59.7629L17.9991 61.9072L24.4163 56.6167C25.2216 55.8465 26.4708 55.7973 27.3321 56.4714L27.4996 56.6167ZM13.738 60.9628C13.7317 60.9701 13.7275 60.9798 13.7216 60.9874C13.7397 60.964 13.7581 60.9405 13.7802 60.9194L13.738 60.9628Z" fill="white"/>
</svg>
